G04 EAGLE Gerber RS-274X export*
G75*
%MOMM*%
%FSLAX34Y34*%
%LPD*%
%INCopper Layer 2*%
%IPPOS*%
%AMOC8*
5,1,8,0,0,1.08239X$1,22.5*%
G01*
%ADD10C,0.177800*%
%ADD11C,1.219200*%
%ADD12C,1.524000*%
%ADD13C,0.704800*%
%ADD14C,0.604800*%
%ADD15C,0.304800*%
%ADD16C,3.215641*%


D10*
X77089Y14351D02*
X77089Y5969D01*
X80814Y5969D01*
X84214Y5969D02*
X87008Y14351D01*
X89802Y5969D01*
X89104Y8065D02*
X84913Y8065D01*
X93358Y14351D02*
X96152Y10393D01*
X98946Y14351D01*
X96152Y10393D02*
X96152Y5969D01*
X103302Y5969D02*
X107027Y5969D01*
X103302Y5969D02*
X103302Y14351D01*
X107027Y14351D01*
X106096Y10626D02*
X103302Y10626D01*
X111291Y14351D02*
X111291Y5969D01*
X111291Y14351D02*
X113620Y14351D01*
X113715Y14349D01*
X113810Y14343D01*
X113904Y14334D01*
X113998Y14320D01*
X114092Y14303D01*
X114184Y14282D01*
X114276Y14257D01*
X114366Y14228D01*
X114456Y14196D01*
X114544Y14160D01*
X114630Y14120D01*
X114715Y14078D01*
X114798Y14031D01*
X114879Y13981D01*
X114957Y13928D01*
X115034Y13872D01*
X115108Y13813D01*
X115180Y13751D01*
X115249Y13686D01*
X115316Y13618D01*
X115379Y13548D01*
X115440Y13474D01*
X115498Y13399D01*
X115552Y13321D01*
X115604Y13241D01*
X115652Y13159D01*
X115696Y13076D01*
X115738Y12990D01*
X115775Y12903D01*
X115809Y12814D01*
X115840Y12724D01*
X115867Y12633D01*
X115890Y12541D01*
X115909Y12448D01*
X115924Y12354D01*
X115936Y12260D01*
X115944Y12165D01*
X115948Y12070D01*
X115948Y11976D01*
X115944Y11881D01*
X115936Y11786D01*
X115924Y11692D01*
X115909Y11598D01*
X115890Y11505D01*
X115867Y11413D01*
X115840Y11322D01*
X115809Y11232D01*
X115775Y11143D01*
X115738Y11056D01*
X115696Y10970D01*
X115652Y10887D01*
X115604Y10805D01*
X115552Y10725D01*
X115498Y10647D01*
X115440Y10572D01*
X115379Y10498D01*
X115316Y10428D01*
X115249Y10360D01*
X115180Y10295D01*
X115108Y10233D01*
X115034Y10174D01*
X114957Y10118D01*
X114879Y10065D01*
X114798Y10015D01*
X114715Y9968D01*
X114630Y9926D01*
X114544Y9886D01*
X114456Y9850D01*
X114366Y9818D01*
X114276Y9789D01*
X114184Y9764D01*
X114092Y9743D01*
X113998Y9726D01*
X113904Y9712D01*
X113810Y9703D01*
X113715Y9697D01*
X113620Y9695D01*
X113620Y9694D02*
X111291Y9694D01*
X114085Y9694D02*
X115948Y5969D01*
X127779Y14352D02*
X127868Y14350D01*
X127957Y14344D01*
X128045Y14335D01*
X128133Y14322D01*
X128221Y14305D01*
X128307Y14284D01*
X128393Y14260D01*
X128477Y14232D01*
X128561Y14201D01*
X128642Y14166D01*
X128723Y14128D01*
X128801Y14086D01*
X128878Y14041D01*
X128953Y13993D01*
X129025Y13941D01*
X129096Y13887D01*
X129164Y13829D01*
X129229Y13769D01*
X129292Y13706D01*
X129352Y13641D01*
X129410Y13573D01*
X129464Y13502D01*
X129516Y13430D01*
X129564Y13355D01*
X129609Y13278D01*
X129651Y13200D01*
X129689Y13119D01*
X129724Y13038D01*
X129755Y12954D01*
X129783Y12870D01*
X129807Y12784D01*
X129828Y12698D01*
X129845Y12610D01*
X129858Y12522D01*
X129867Y12434D01*
X129873Y12345D01*
X129875Y12256D01*
X127779Y14351D02*
X127676Y14349D01*
X127574Y14343D01*
X127472Y14333D01*
X127370Y14320D01*
X127269Y14302D01*
X127169Y14281D01*
X127069Y14256D01*
X126971Y14227D01*
X126874Y14194D01*
X126778Y14158D01*
X126683Y14118D01*
X126590Y14074D01*
X126499Y14027D01*
X126410Y13977D01*
X126323Y13923D01*
X126237Y13866D01*
X126154Y13806D01*
X126074Y13742D01*
X125996Y13676D01*
X125920Y13606D01*
X125847Y13534D01*
X125777Y13459D01*
X125710Y13381D01*
X125646Y13301D01*
X125585Y13219D01*
X125527Y13134D01*
X125473Y13047D01*
X125421Y12958D01*
X125374Y12868D01*
X125329Y12775D01*
X125289Y12681D01*
X125251Y12585D01*
X125218Y12488D01*
X129176Y10626D02*
X129241Y10690D01*
X129303Y10757D01*
X129363Y10826D01*
X129419Y10898D01*
X129472Y10971D01*
X129523Y11047D01*
X129570Y11125D01*
X129614Y11205D01*
X129655Y11286D01*
X129693Y11369D01*
X129727Y11454D01*
X129758Y11540D01*
X129785Y11627D01*
X129809Y11715D01*
X129829Y11803D01*
X129846Y11893D01*
X129858Y11983D01*
X129868Y12074D01*
X129873Y12165D01*
X129875Y12256D01*
X129176Y10626D02*
X125218Y5969D01*
X129875Y5969D01*
X139149Y10160D02*
X139151Y10352D01*
X139158Y10544D01*
X139170Y10735D01*
X139186Y10926D01*
X139207Y11117D01*
X139232Y11307D01*
X139262Y11496D01*
X139296Y11685D01*
X139335Y11873D01*
X139379Y12060D01*
X139427Y12246D01*
X139479Y12430D01*
X139536Y12613D01*
X139597Y12795D01*
X139662Y12975D01*
X139732Y13154D01*
X139806Y13331D01*
X139885Y13506D01*
X139967Y13679D01*
X140054Y13850D01*
X140145Y14019D01*
X140240Y14186D01*
X140339Y14350D01*
X140441Y14512D01*
X140548Y14672D01*
X140658Y14829D01*
X140773Y14983D01*
X140890Y15134D01*
X141012Y15283D01*
X139149Y10160D02*
X139151Y9968D01*
X139158Y9776D01*
X139170Y9585D01*
X139186Y9394D01*
X139207Y9203D01*
X139232Y9013D01*
X139262Y8824D01*
X139296Y8635D01*
X139335Y8447D01*
X139379Y8260D01*
X139427Y8074D01*
X139479Y7890D01*
X139536Y7707D01*
X139597Y7525D01*
X139662Y7345D01*
X139732Y7166D01*
X139806Y6989D01*
X139885Y6814D01*
X139967Y6641D01*
X140054Y6470D01*
X140145Y6301D01*
X140240Y6134D01*
X140339Y5970D01*
X140441Y5808D01*
X140548Y5648D01*
X140658Y5491D01*
X140773Y5337D01*
X140890Y5186D01*
X141012Y5037D01*
X145174Y9229D02*
X150762Y9229D01*
X147968Y6435D02*
X147968Y12023D01*
X155393Y5969D02*
X158187Y5969D01*
X158271Y5971D01*
X158354Y5977D01*
X158437Y5986D01*
X158520Y5999D01*
X158602Y6016D01*
X158683Y6036D01*
X158763Y6060D01*
X158842Y6088D01*
X158919Y6119D01*
X158995Y6153D01*
X159070Y6191D01*
X159143Y6233D01*
X159213Y6277D01*
X159282Y6325D01*
X159349Y6375D01*
X159413Y6429D01*
X159474Y6485D01*
X159534Y6545D01*
X159590Y6606D01*
X159644Y6670D01*
X159694Y6737D01*
X159742Y6806D01*
X159786Y6876D01*
X159828Y6949D01*
X159866Y7024D01*
X159900Y7100D01*
X159931Y7177D01*
X159959Y7256D01*
X159983Y7336D01*
X160003Y7417D01*
X160020Y7499D01*
X160033Y7582D01*
X160043Y7665D01*
X160048Y7748D01*
X160050Y7832D01*
X160050Y8763D01*
X160048Y8847D01*
X160043Y8930D01*
X160033Y9013D01*
X160020Y9096D01*
X160003Y9178D01*
X159983Y9259D01*
X159959Y9339D01*
X159931Y9418D01*
X159900Y9495D01*
X159866Y9571D01*
X159828Y9646D01*
X159786Y9719D01*
X159742Y9789D01*
X159694Y9858D01*
X159644Y9925D01*
X159590Y9989D01*
X159534Y10050D01*
X159474Y10110D01*
X159413Y10166D01*
X159349Y10220D01*
X159282Y10270D01*
X159213Y10318D01*
X159143Y10362D01*
X159070Y10404D01*
X158995Y10442D01*
X158919Y10476D01*
X158842Y10507D01*
X158763Y10535D01*
X158683Y10559D01*
X158602Y10579D01*
X158520Y10596D01*
X158437Y10609D01*
X158354Y10619D01*
X158271Y10624D01*
X158187Y10626D01*
X155393Y10626D01*
X155393Y14351D01*
X160050Y14351D01*
X164072Y14351D02*
X166866Y5969D01*
X169660Y14351D01*
X175075Y10160D02*
X175073Y9968D01*
X175066Y9777D01*
X175054Y9585D01*
X175038Y9394D01*
X175017Y9203D01*
X174992Y9013D01*
X174962Y8824D01*
X174928Y8635D01*
X174889Y8447D01*
X174845Y8260D01*
X174797Y8074D01*
X174745Y7890D01*
X174688Y7707D01*
X174627Y7525D01*
X174562Y7345D01*
X174492Y7166D01*
X174418Y6989D01*
X174339Y6814D01*
X174257Y6641D01*
X174170Y6470D01*
X174079Y6301D01*
X173984Y6134D01*
X173885Y5970D01*
X173783Y5808D01*
X173676Y5648D01*
X173566Y5491D01*
X173451Y5337D01*
X173334Y5186D01*
X173212Y5037D01*
X175075Y10160D02*
X175073Y10352D01*
X175066Y10543D01*
X175054Y10735D01*
X175038Y10926D01*
X175017Y11117D01*
X174992Y11307D01*
X174962Y11496D01*
X174928Y11685D01*
X174889Y11873D01*
X174845Y12060D01*
X174797Y12246D01*
X174745Y12430D01*
X174688Y12613D01*
X174627Y12795D01*
X174562Y12975D01*
X174492Y13154D01*
X174418Y13331D01*
X174339Y13506D01*
X174257Y13679D01*
X174170Y13850D01*
X174079Y14019D01*
X173984Y14186D01*
X173885Y14350D01*
X173783Y14512D01*
X173676Y14672D01*
X173566Y14829D01*
X173451Y14983D01*
X173334Y15134D01*
X173212Y15283D01*
D11*
X173480Y244350D03*
X198880Y244350D03*
D12*
X25400Y342900D03*
X25400Y317500D03*
X25400Y368300D03*
D13*
X185420Y330200D03*
X200660Y281940D03*
X210820Y393700D03*
X406400Y381000D03*
X383540Y335280D03*
D14*
X250190Y187960D03*
X182880Y160020D03*
X118110Y193040D03*
X105410Y283210D03*
D13*
X337820Y236220D03*
X184150Y46990D03*
X95250Y397510D03*
D14*
X342900Y327660D03*
X144780Y152400D03*
X99060Y135890D03*
D13*
X248920Y292100D03*
X248920Y266700D03*
X292100Y345440D03*
X223520Y330200D03*
X311150Y306070D03*
X55880Y172720D03*
X247650Y220980D03*
X140970Y243840D03*
D14*
X185420Y109220D03*
D15*
X138280Y20524D02*
X136827Y18790D01*
X135306Y16976D01*
X135306Y16976D01*
X134716Y15353D01*
X133311Y17787D01*
X133311Y17787D01*
X133311Y17787D01*
X130366Y19488D01*
X130041Y19812D01*
X125517Y19812D01*
X125093Y19388D01*
X122877Y18400D01*
X120571Y15836D01*
X120246Y16837D01*
X120246Y16837D01*
X116151Y19812D01*
X101040Y19812D01*
X100891Y19663D01*
X100248Y20117D01*
X96152Y19411D01*
X92057Y20117D01*
X90429Y18967D01*
X89104Y19409D01*
X87428Y20247D01*
X87008Y20107D01*
X86589Y20247D01*
X84913Y19409D01*
X83136Y18816D01*
X82938Y18421D01*
X82543Y18224D01*
X82142Y17021D01*
X79351Y19812D01*
X74827Y19812D01*
X71628Y16613D01*
X71628Y11430D01*
X25400Y11430D01*
X11430Y25400D01*
X11430Y401320D01*
X29210Y419100D01*
X405130Y419100D01*
X419100Y405130D01*
X419100Y247650D01*
X182880Y11430D01*
X180536Y11430D01*
X180536Y12527D01*
X178918Y16976D01*
X178918Y16976D01*
X177397Y18790D01*
X175944Y20524D01*
X171438Y20921D01*
X170237Y19915D01*
X169241Y20247D01*
X166866Y19060D01*
X164491Y20247D01*
X162530Y19594D01*
X162312Y19812D01*
X153131Y19812D01*
X150517Y17197D01*
X150230Y17484D01*
X146300Y17484D01*
X146254Y18015D01*
X142786Y20921D01*
X138280Y20524D01*
X299696Y390919D02*
X299696Y393941D01*
X298540Y396733D01*
X296403Y398870D01*
X293611Y400026D01*
X290589Y400026D01*
X287797Y398870D01*
X285660Y396733D01*
X284504Y393941D01*
X284504Y390919D01*
X285660Y388127D01*
X287797Y385990D01*
X290589Y384834D01*
X293611Y384834D01*
X296403Y385990D01*
X298540Y388127D01*
X299696Y390919D01*
X264636Y344510D02*
X264636Y341290D01*
X264636Y344510D02*
X263403Y347486D01*
X261126Y349763D01*
X258150Y350996D01*
X254930Y350996D01*
X251954Y349763D01*
X249677Y347486D01*
X248444Y344510D01*
X248444Y341290D01*
X249677Y338314D01*
X251954Y336037D01*
X254930Y334804D01*
X258150Y334804D01*
X261126Y336037D01*
X263403Y338314D01*
X264636Y341290D01*
X248126Y395900D02*
X248126Y399120D01*
X246893Y402096D01*
X244616Y404373D01*
X241640Y405606D01*
X238420Y405606D01*
X235444Y404373D01*
X233167Y402096D01*
X231934Y399120D01*
X231934Y395900D01*
X233167Y392924D01*
X235444Y390647D01*
X238420Y389414D01*
X241640Y389414D01*
X244616Y390647D01*
X246893Y392924D01*
X248126Y395900D01*
X147296Y137401D02*
X147296Y134379D01*
X147296Y137401D02*
X146140Y140193D01*
X144003Y142330D01*
X141211Y143486D01*
X138189Y143486D01*
X135397Y142330D01*
X133260Y140193D01*
X132104Y137401D01*
X132104Y134379D01*
X133260Y131587D01*
X135397Y129450D01*
X138189Y128294D01*
X141211Y128294D01*
X144003Y129450D01*
X146140Y131587D01*
X147296Y134379D01*
X328906Y195339D02*
X328906Y198361D01*
X327750Y201153D01*
X325613Y203290D01*
X322821Y204446D01*
X319799Y204446D01*
X317007Y203290D01*
X314870Y201153D01*
X313714Y198361D01*
X313714Y195339D01*
X314870Y192547D01*
X317007Y190410D01*
X319799Y189254D01*
X322821Y189254D01*
X325613Y190410D01*
X327750Y192547D01*
X328906Y195339D01*
X139676Y289319D02*
X139676Y292341D01*
X138520Y295133D01*
X136383Y297270D01*
X133591Y298426D01*
X130569Y298426D01*
X127777Y297270D01*
X125640Y295133D01*
X124484Y292341D01*
X124484Y289319D01*
X125640Y286527D01*
X127777Y284390D01*
X130569Y283234D01*
X133591Y283234D01*
X136383Y284390D01*
X138520Y286527D01*
X139676Y289319D01*
X247980Y99104D02*
X247980Y90888D01*
X247980Y99104D02*
X244836Y106693D01*
X239027Y112502D01*
X231438Y115646D01*
X223222Y115646D01*
X215633Y112502D01*
X209824Y106693D01*
X206680Y99104D01*
X206680Y90888D01*
X209824Y83299D01*
X215633Y77490D01*
X223222Y74346D01*
X231438Y74346D01*
X239027Y77490D01*
X244836Y83299D01*
X247980Y90888D01*
X96342Y350476D02*
X96342Y358692D01*
X93198Y366281D01*
X87389Y372090D01*
X79800Y375234D01*
X71584Y375234D01*
X63995Y372090D01*
X58186Y366281D01*
X55042Y358692D01*
X55042Y350476D01*
X58186Y342887D01*
X63995Y337078D01*
X71584Y333934D01*
X79800Y333934D01*
X87389Y337078D01*
X93198Y342887D01*
X96342Y350476D01*
X193016Y110731D02*
X193016Y107709D01*
X193016Y110731D02*
X191860Y113523D01*
X189723Y115660D01*
X186931Y116816D01*
X183909Y116816D01*
X181117Y115660D01*
X178980Y113523D01*
X177824Y110731D01*
X177824Y107709D01*
X178980Y104917D01*
X181117Y102780D01*
X183909Y101624D01*
X186931Y101624D01*
X189723Y102780D01*
X191860Y104917D01*
X193016Y107709D01*
X63976Y171110D02*
X63976Y174330D01*
X62743Y177306D01*
X60466Y179583D01*
X57490Y180816D01*
X54270Y180816D01*
X51294Y179583D01*
X49017Y177306D01*
X47784Y174330D01*
X47784Y171110D01*
X49017Y168134D01*
X51294Y165857D01*
X54270Y164624D01*
X57490Y164624D01*
X60466Y165857D01*
X62743Y168134D01*
X63976Y171110D01*
X319246Y304460D02*
X319246Y307680D01*
X318013Y310656D01*
X315736Y312933D01*
X312760Y314166D01*
X309540Y314166D01*
X306564Y312933D01*
X304287Y310656D01*
X303054Y307680D01*
X303054Y304460D01*
X304287Y301484D01*
X306564Y299207D01*
X309540Y297974D01*
X312760Y297974D01*
X315736Y299207D01*
X318013Y301484D01*
X319246Y304460D01*
X231616Y328590D02*
X231616Y331810D01*
X230383Y334786D01*
X228106Y337063D01*
X225130Y338296D01*
X221910Y338296D01*
X218934Y337063D01*
X216657Y334786D01*
X215424Y331810D01*
X215424Y328590D01*
X216657Y325614D01*
X218934Y323337D01*
X221910Y322104D01*
X225130Y322104D01*
X228106Y323337D01*
X230383Y325614D01*
X231616Y328590D01*
X293710Y353536D02*
X296686Y352303D01*
X293710Y353536D02*
X290490Y353536D01*
X287514Y352303D01*
X285237Y350026D01*
X284004Y347050D01*
X284004Y343830D01*
X285237Y340854D01*
X287514Y338577D01*
X290490Y337344D01*
X293710Y337344D01*
X296686Y338577D01*
X296986Y338877D01*
X299479Y337844D01*
X302501Y337844D01*
X305293Y339000D01*
X307430Y341137D01*
X308586Y343929D01*
X308586Y346951D01*
X307430Y349743D01*
X305293Y351880D01*
X302501Y353036D01*
X299479Y353036D01*
X296986Y352003D01*
X296686Y352303D01*
X257016Y268310D02*
X257016Y265090D01*
X257016Y268310D02*
X255783Y271286D01*
X253506Y273563D01*
X250530Y274796D01*
X247310Y274796D01*
X244334Y273563D01*
X242057Y271286D01*
X240824Y268310D01*
X240824Y265090D01*
X242057Y262114D01*
X244334Y259837D01*
X247310Y258604D01*
X250530Y258604D01*
X253506Y259837D01*
X255783Y262114D01*
X257016Y265090D01*
X257016Y290490D02*
X257016Y293710D01*
X255783Y296686D01*
X253506Y298963D01*
X250530Y300196D01*
X247310Y300196D01*
X244334Y298963D01*
X242057Y296686D01*
X240824Y293710D01*
X240824Y290490D01*
X242057Y287514D01*
X244334Y285237D01*
X247310Y284004D01*
X250530Y284004D01*
X253506Y285237D01*
X255783Y287514D01*
X257016Y290490D01*
X106656Y137401D02*
X106656Y134379D01*
X106656Y137401D02*
X105500Y140193D01*
X103363Y142330D01*
X100571Y143486D01*
X97549Y143486D01*
X94757Y142330D01*
X92620Y140193D01*
X91464Y137401D01*
X91464Y134379D01*
X92620Y131587D01*
X94757Y129450D01*
X97549Y128294D01*
X100571Y128294D01*
X103363Y129450D01*
X105500Y131587D01*
X106656Y134379D01*
X152376Y150889D02*
X152376Y153911D01*
X151220Y156703D01*
X149083Y158840D01*
X146291Y159996D01*
X143269Y159996D01*
X140477Y158840D01*
X138340Y156703D01*
X137184Y153911D01*
X137184Y150889D01*
X138340Y148097D01*
X140477Y145960D01*
X143269Y144804D01*
X146291Y144804D01*
X149083Y145960D01*
X151220Y148097D01*
X152376Y150889D01*
X350496Y326149D02*
X350496Y329171D01*
X349340Y331963D01*
X347927Y333375D01*
X349250Y334698D01*
X351297Y332650D01*
X354089Y331494D01*
X357111Y331494D01*
X359903Y332650D01*
X361950Y334698D01*
X363997Y332650D01*
X366789Y331494D01*
X369811Y331494D01*
X372603Y332650D01*
X374740Y334787D01*
X375444Y336488D01*
X375444Y333670D01*
X376677Y330694D01*
X378954Y328417D01*
X381930Y327184D01*
X385150Y327184D01*
X388126Y328417D01*
X390403Y330694D01*
X391636Y333670D01*
X391636Y336890D01*
X390403Y339866D01*
X388126Y342143D01*
X385150Y343376D01*
X381930Y343376D01*
X378954Y342143D01*
X376677Y339866D01*
X375896Y337982D01*
X375896Y340601D01*
X374740Y343393D01*
X372603Y345530D01*
X369811Y346686D01*
X366789Y346686D01*
X363997Y345530D01*
X361950Y343482D01*
X359903Y345530D01*
X357111Y346686D01*
X354089Y346686D01*
X351297Y345530D01*
X349250Y343482D01*
X347203Y345530D01*
X344411Y346686D01*
X341389Y346686D01*
X338597Y345530D01*
X336550Y343482D01*
X334503Y345530D01*
X331711Y346686D01*
X328689Y346686D01*
X325897Y345530D01*
X323760Y343393D01*
X322604Y340601D01*
X322604Y337579D01*
X323760Y334787D01*
X325897Y332650D01*
X328689Y331494D01*
X331711Y331494D01*
X334503Y332650D01*
X336550Y334698D01*
X337873Y333375D01*
X336460Y331963D01*
X335304Y329171D01*
X335304Y326149D01*
X336460Y323357D01*
X338597Y321220D01*
X341389Y320064D01*
X344411Y320064D01*
X347203Y321220D01*
X349340Y323357D01*
X350496Y326149D01*
X103346Y395900D02*
X103346Y399120D01*
X102113Y402096D01*
X99836Y404373D01*
X96860Y405606D01*
X93640Y405606D01*
X90664Y404373D01*
X88387Y402096D01*
X87154Y399120D01*
X87154Y395900D01*
X88387Y392924D01*
X90664Y390647D01*
X93640Y389414D01*
X96860Y389414D01*
X99836Y390647D01*
X102113Y392924D01*
X103346Y395900D01*
X192246Y48600D02*
X192246Y45380D01*
X192246Y48600D02*
X191013Y51576D01*
X188736Y53853D01*
X185760Y55086D01*
X182540Y55086D01*
X179564Y53853D01*
X177287Y51576D01*
X176054Y48600D01*
X176054Y45380D01*
X177287Y42404D01*
X179564Y40127D01*
X182540Y38894D01*
X185760Y38894D01*
X188736Y40127D01*
X191013Y42404D01*
X192246Y45380D01*
X113006Y281699D02*
X113006Y284721D01*
X111850Y287513D01*
X109713Y289650D01*
X106921Y290806D01*
X103899Y290806D01*
X101107Y289650D01*
X98970Y287513D01*
X97814Y284721D01*
X97814Y281699D01*
X98970Y278907D01*
X101107Y276770D01*
X103899Y275614D01*
X106921Y275614D01*
X109713Y276770D01*
X111850Y278907D01*
X113006Y281699D01*
X125706Y194551D02*
X125706Y191529D01*
X125706Y194551D02*
X124550Y197343D01*
X122413Y199480D01*
X119621Y200636D01*
X116599Y200636D01*
X113807Y199480D01*
X111670Y197343D01*
X110514Y194551D01*
X110514Y191529D01*
X111670Y188737D01*
X113807Y186600D01*
X116599Y185444D01*
X119621Y185444D01*
X122413Y186600D01*
X124550Y188737D01*
X125706Y191529D01*
X190476Y161531D02*
X190476Y158509D01*
X190476Y161531D02*
X189320Y164323D01*
X187183Y166460D01*
X184391Y167616D01*
X181369Y167616D01*
X178577Y166460D01*
X176440Y164323D01*
X175284Y161531D01*
X175284Y158509D01*
X176440Y155717D01*
X178577Y153580D01*
X181369Y152424D01*
X184391Y152424D01*
X187183Y153580D01*
X189320Y155717D01*
X190476Y158509D01*
X414496Y379390D02*
X414496Y382610D01*
X413263Y385586D01*
X410986Y387863D01*
X408010Y389096D01*
X404790Y389096D01*
X401814Y387863D01*
X399696Y385746D01*
X398003Y387440D01*
X395211Y388596D01*
X392189Y388596D01*
X389397Y387440D01*
X387350Y385392D01*
X385303Y387440D01*
X382511Y388596D01*
X379489Y388596D01*
X376697Y387440D01*
X374650Y385392D01*
X372603Y387440D01*
X369811Y388596D01*
X366789Y388596D01*
X363997Y387440D01*
X361950Y385392D01*
X359903Y387440D01*
X357111Y388596D01*
X354089Y388596D01*
X351297Y387440D01*
X349250Y385392D01*
X347203Y387440D01*
X344411Y388596D01*
X341389Y388596D01*
X338597Y387440D01*
X336550Y385392D01*
X334503Y387440D01*
X331711Y388596D01*
X328689Y388596D01*
X325897Y387440D01*
X323760Y385303D01*
X322604Y382511D01*
X322604Y379489D01*
X323760Y376697D01*
X325897Y374560D01*
X328689Y373404D01*
X331711Y373404D01*
X334503Y374560D01*
X336550Y376608D01*
X338597Y374560D01*
X341389Y373404D01*
X344411Y373404D01*
X347203Y374560D01*
X349250Y376608D01*
X351297Y374560D01*
X354089Y373404D01*
X357111Y373404D01*
X359903Y374560D01*
X361950Y376608D01*
X363997Y374560D01*
X366789Y373404D01*
X369811Y373404D01*
X372603Y374560D01*
X374650Y376608D01*
X376697Y374560D01*
X379489Y373404D01*
X382511Y373404D01*
X385303Y374560D01*
X387350Y376608D01*
X389397Y374560D01*
X392189Y373404D01*
X395211Y373404D01*
X398003Y374560D01*
X399696Y376254D01*
X401814Y374137D01*
X404790Y372904D01*
X408010Y372904D01*
X410986Y374137D01*
X413263Y376414D01*
X414496Y379390D01*
X218916Y392090D02*
X218916Y395310D01*
X217683Y398286D01*
X215406Y400563D01*
X212430Y401796D01*
X209210Y401796D01*
X206234Y400563D01*
X203957Y398286D01*
X202724Y395310D01*
X202724Y392090D01*
X203957Y389114D01*
X206234Y386837D01*
X209210Y385604D01*
X212430Y385604D01*
X215406Y386837D01*
X217683Y389114D01*
X218916Y392090D01*
X208756Y283550D02*
X208756Y280330D01*
X208756Y283550D02*
X207523Y286526D01*
X205246Y288803D01*
X202270Y290036D01*
X199050Y290036D01*
X196074Y288803D01*
X193797Y286526D01*
X192564Y283550D01*
X192564Y280330D01*
X193797Y277354D01*
X196074Y275077D01*
X199050Y273844D01*
X202270Y273844D01*
X205246Y275077D01*
X207523Y277354D01*
X208756Y280330D01*
X193516Y328590D02*
X193516Y331810D01*
X192283Y334786D01*
X190006Y337063D01*
X187030Y338296D01*
X183810Y338296D01*
X180834Y337063D01*
X178557Y334786D01*
X177324Y331810D01*
X177324Y328590D01*
X178557Y325614D01*
X180834Y323337D01*
X183810Y322104D01*
X187030Y322104D01*
X190006Y323337D01*
X192283Y325614D01*
X193516Y328590D01*
X37592Y365875D02*
X37592Y370725D01*
X35736Y375206D01*
X32306Y378636D01*
X27825Y380492D01*
X22975Y380492D01*
X18494Y378636D01*
X15064Y375206D01*
X13208Y370725D01*
X13208Y365875D01*
X15064Y361394D01*
X18494Y357964D01*
X22975Y356108D01*
X27825Y356108D01*
X32306Y357964D01*
X35736Y361394D01*
X37592Y365875D01*
X37592Y319925D02*
X37592Y315075D01*
X37592Y319925D02*
X35736Y324406D01*
X32306Y327836D01*
X27825Y329692D01*
X22975Y329692D01*
X18494Y327836D01*
X15064Y324406D01*
X13208Y319925D01*
X13208Y315075D01*
X15064Y310594D01*
X18494Y307164D01*
X22975Y305308D01*
X27825Y305308D01*
X32306Y307164D01*
X35736Y310594D01*
X37592Y315075D01*
X37592Y340475D02*
X37592Y345325D01*
X35736Y349806D01*
X32306Y353236D01*
X27825Y355092D01*
X22975Y355092D01*
X18494Y353236D01*
X15064Y349806D01*
X13208Y345325D01*
X13208Y340475D01*
X15064Y335994D01*
X18494Y332564D01*
X22975Y330708D01*
X27825Y330708D01*
X32306Y332564D01*
X35736Y335994D01*
X37592Y340475D01*
X209548Y246472D02*
X209548Y242228D01*
X209548Y246472D02*
X207924Y250393D01*
X204923Y253394D01*
X201002Y255018D01*
X196758Y255018D01*
X192837Y253394D01*
X189836Y250393D01*
X188212Y246472D01*
X188212Y242228D01*
X189836Y238307D01*
X192837Y235306D01*
X196758Y233682D01*
X201002Y233682D01*
X204923Y235306D01*
X207924Y238307D01*
X209548Y242228D01*
X308352Y240258D02*
X308352Y248442D01*
X305220Y256003D01*
X299433Y261790D01*
X291872Y264922D01*
X283688Y264922D01*
X276127Y261790D01*
X270340Y256003D01*
X267208Y248442D01*
X267208Y240258D01*
X270340Y232697D01*
X276127Y226910D01*
X283688Y223778D01*
X291872Y223778D01*
X299433Y226910D01*
X305220Y232697D01*
X308352Y240258D01*
X105152Y240258D02*
X105152Y248442D01*
X102020Y256003D01*
X96233Y261790D01*
X88672Y264922D01*
X80488Y264922D01*
X72927Y261790D01*
X67140Y256003D01*
X64008Y248442D01*
X64008Y240258D01*
X67140Y232697D01*
X72927Y226910D01*
X80488Y223778D01*
X88672Y223778D01*
X96233Y226910D01*
X102020Y232697D01*
X105152Y240258D01*
X184148Y242228D02*
X184148Y246472D01*
X182524Y250393D01*
X179523Y253394D01*
X175602Y255018D01*
X171358Y255018D01*
X167437Y253394D01*
X164436Y250393D01*
X162812Y246472D01*
X162812Y242228D01*
X164436Y238307D01*
X167437Y235306D01*
X171358Y233682D01*
X175602Y233682D01*
X179523Y235306D01*
X182524Y238307D01*
X184148Y242228D01*
X257786Y189471D02*
X257786Y186449D01*
X257786Y189471D02*
X256630Y192263D01*
X254493Y194400D01*
X251701Y195556D01*
X248679Y195556D01*
X245887Y194400D01*
X243750Y192263D01*
X242594Y189471D01*
X242594Y186449D01*
X243750Y183657D01*
X245887Y181520D01*
X248679Y180364D01*
X251701Y180364D01*
X254493Y181520D01*
X256630Y183657D01*
X257786Y186449D01*
X345916Y234610D02*
X345916Y237830D01*
X344683Y240806D01*
X342406Y243083D01*
X339430Y244316D01*
X336210Y244316D01*
X333234Y243083D01*
X330957Y240806D01*
X329724Y237830D01*
X329724Y234610D01*
X330957Y231634D01*
X333234Y229357D01*
X336210Y228124D01*
X339430Y228124D01*
X342406Y229357D01*
X344683Y231634D01*
X345916Y234610D01*
X255746Y222590D02*
X255746Y219370D01*
X255746Y222590D02*
X254513Y225566D01*
X252236Y227843D01*
X249260Y229076D01*
X246040Y229076D01*
X243064Y227843D01*
X240787Y225566D01*
X239554Y222590D01*
X239554Y219370D01*
X240787Y216394D01*
X243064Y214117D01*
X246040Y212884D01*
X249260Y212884D01*
X252236Y214117D01*
X254513Y216394D01*
X255746Y219370D01*
X149066Y242230D02*
X149066Y245450D01*
X147833Y248426D01*
X145556Y250703D01*
X142580Y251936D01*
X139360Y251936D01*
X136384Y250703D01*
X134107Y248426D01*
X132874Y245450D01*
X132874Y242230D01*
X134107Y239254D01*
X136384Y236977D01*
X139360Y235744D01*
X142580Y235744D01*
X145556Y236977D01*
X147833Y239254D01*
X149066Y242230D01*
X355676Y280626D02*
X355676Y288842D01*
X352532Y296431D01*
X346723Y302240D01*
X339134Y305384D01*
X330918Y305384D01*
X323329Y302240D01*
X317520Y296431D01*
X314376Y288842D01*
X314376Y280626D01*
X317520Y273037D01*
X323329Y267228D01*
X330918Y264084D01*
X339134Y264084D01*
X346723Y267228D01*
X352532Y273037D01*
X355676Y280626D01*
X165684Y99104D02*
X165684Y90888D01*
X165684Y99104D02*
X162540Y106693D01*
X156731Y112502D01*
X149142Y115646D01*
X140926Y115646D01*
X133337Y112502D01*
X127528Y106693D01*
X124384Y99104D01*
X124384Y90888D01*
X127528Y83299D01*
X133337Y77490D01*
X140926Y74346D01*
X149142Y74346D01*
X156731Y77490D01*
X162540Y83299D01*
X165684Y90888D01*
X256516Y170421D02*
X255360Y173213D01*
X253223Y175350D01*
X250431Y176506D01*
X247409Y176506D01*
X244617Y175350D01*
X242480Y173213D01*
X241324Y170421D01*
X241324Y167399D01*
X242480Y164607D01*
X244617Y162470D01*
X247409Y161314D01*
X250214Y161314D01*
X250214Y161049D01*
X251370Y158257D01*
X253507Y156120D01*
X256299Y154964D01*
X259321Y154964D01*
X262113Y156120D01*
X264250Y158257D01*
X265406Y161049D01*
X265406Y164071D01*
X264250Y166863D01*
X262113Y169000D01*
X259321Y170156D01*
X256516Y170156D01*
X256516Y170421D01*
X210796Y341389D02*
X210796Y344411D01*
X209640Y347203D01*
X207503Y349340D01*
X204711Y350496D01*
X201689Y350496D01*
X198897Y349340D01*
X196760Y347203D01*
X195604Y344411D01*
X195604Y341389D01*
X196760Y338597D01*
X198897Y336460D01*
X201689Y335304D01*
X204711Y335304D01*
X207503Y336460D01*
X209640Y338597D01*
X210796Y341389D01*
X250100Y403083D02*
X252237Y405220D01*
X250100Y403083D02*
X248944Y400291D01*
X248944Y397269D01*
X250100Y394477D01*
X252237Y392340D01*
X255029Y391184D01*
X258051Y391184D01*
X260843Y392340D01*
X262980Y394477D01*
X263814Y396491D01*
X265923Y397364D01*
X268060Y399501D01*
X269216Y402293D01*
X269216Y405315D01*
X268060Y408107D01*
X265923Y410244D01*
X263131Y411400D01*
X260109Y411400D01*
X257317Y410244D01*
X255180Y408107D01*
X254346Y406093D01*
X252237Y405220D01*
X71628Y12192D02*
X24638Y12192D01*
X180536Y12192D02*
X183642Y12192D01*
X73303Y18288D02*
X18542Y18288D01*
X80875Y18288D02*
X82671Y18288D01*
X118248Y18288D02*
X122776Y18288D01*
X132444Y18288D02*
X136406Y18288D01*
X145928Y18288D02*
X151607Y18288D01*
X177818Y18288D02*
X189738Y18288D01*
X195834Y24384D02*
X12446Y24384D01*
X11430Y30480D02*
X201930Y30480D01*
X208026Y36576D02*
X11430Y36576D01*
X11430Y42672D02*
X177176Y42672D01*
X191124Y42672D02*
X214122Y42672D01*
X176123Y48768D02*
X11430Y48768D01*
X192177Y48768D02*
X220218Y48768D01*
X182004Y54864D02*
X11430Y54864D01*
X186296Y54864D02*
X226314Y54864D01*
X232410Y60960D02*
X11430Y60960D01*
X11430Y67056D02*
X238506Y67056D01*
X244602Y73152D02*
X11430Y73152D01*
X11430Y79248D02*
X131578Y79248D01*
X158490Y79248D02*
X213874Y79248D01*
X240786Y79248D02*
X250698Y79248D01*
X126680Y85344D02*
X11430Y85344D01*
X163388Y85344D02*
X208976Y85344D01*
X245684Y85344D02*
X256794Y85344D01*
X124384Y91440D02*
X11430Y91440D01*
X165684Y91440D02*
X206680Y91440D01*
X247980Y91440D02*
X262890Y91440D01*
X124384Y97536D02*
X11430Y97536D01*
X165684Y97536D02*
X206680Y97536D01*
X247980Y97536D02*
X268986Y97536D01*
X126260Y103632D02*
X11430Y103632D01*
X163808Y103632D02*
X180266Y103632D01*
X190574Y103632D02*
X208556Y103632D01*
X246104Y103632D02*
X275082Y103632D01*
X130562Y109728D02*
X11430Y109728D01*
X159506Y109728D02*
X177824Y109728D01*
X193016Y109728D02*
X212858Y109728D01*
X241802Y109728D02*
X281178Y109728D01*
X181514Y115824D02*
X11430Y115824D01*
X189326Y115824D02*
X287274Y115824D01*
X293370Y121920D02*
X11430Y121920D01*
X11430Y128016D02*
X299466Y128016D01*
X91575Y134112D02*
X11430Y134112D01*
X106545Y134112D02*
X132215Y134112D01*
X147185Y134112D02*
X305562Y134112D01*
X92636Y140208D02*
X11430Y140208D01*
X105484Y140208D02*
X133276Y140208D01*
X146124Y140208D02*
X311658Y140208D01*
X140134Y146304D02*
X11430Y146304D01*
X149426Y146304D02*
X317754Y146304D01*
X137184Y152400D02*
X11430Y152400D01*
X152376Y152400D02*
X323850Y152400D01*
X140134Y158496D02*
X11430Y158496D01*
X149426Y158496D02*
X175289Y158496D01*
X190471Y158496D02*
X251271Y158496D01*
X264348Y158496D02*
X329946Y158496D01*
X176710Y164592D02*
X11430Y164592D01*
X189050Y164592D02*
X242496Y164592D01*
X265190Y164592D02*
X336042Y164592D01*
X47959Y170688D02*
X11430Y170688D01*
X63801Y170688D02*
X241435Y170688D01*
X256405Y170688D02*
X342138Y170688D01*
X48800Y176784D02*
X11430Y176784D01*
X62960Y176784D02*
X348234Y176784D01*
X244528Y182880D02*
X11430Y182880D01*
X255852Y182880D02*
X354330Y182880D01*
X111571Y188976D02*
X11430Y188976D01*
X124648Y188976D02*
X242594Y188976D01*
X257786Y188976D02*
X360426Y188976D01*
X110730Y195072D02*
X11430Y195072D01*
X125490Y195072D02*
X247511Y195072D01*
X252869Y195072D02*
X313825Y195072D01*
X328795Y195072D02*
X366522Y195072D01*
X314886Y201168D02*
X11430Y201168D01*
X327734Y201168D02*
X372618Y201168D01*
X378714Y207264D02*
X11430Y207264D01*
X11430Y213360D02*
X244890Y213360D01*
X250410Y213360D02*
X384810Y213360D01*
X239554Y219456D02*
X11430Y219456D01*
X255746Y219456D02*
X390906Y219456D01*
X76205Y225552D02*
X11430Y225552D01*
X92955Y225552D02*
X240781Y225552D01*
X254519Y225552D02*
X279405Y225552D01*
X296155Y225552D02*
X397002Y225552D01*
X68189Y231648D02*
X11430Y231648D01*
X100971Y231648D02*
X271389Y231648D01*
X304171Y231648D02*
X330951Y231648D01*
X344689Y231648D02*
X403098Y231648D01*
X65049Y237744D02*
X11430Y237744D01*
X104111Y237744D02*
X135617Y237744D01*
X146323Y237744D02*
X164999Y237744D01*
X181961Y237744D02*
X190399Y237744D01*
X207361Y237744D02*
X268249Y237744D01*
X307311Y237744D02*
X329724Y237744D01*
X345916Y237744D02*
X409194Y237744D01*
X64008Y243840D02*
X11430Y243840D01*
X105152Y243840D02*
X132874Y243840D01*
X149066Y243840D02*
X162812Y243840D01*
X184148Y243840D02*
X188212Y243840D01*
X209548Y243840D02*
X267208Y243840D01*
X308352Y243840D02*
X335061Y243840D01*
X340580Y243840D02*
X415290Y243840D01*
X64627Y249936D02*
X11430Y249936D01*
X104533Y249936D02*
X135617Y249936D01*
X146323Y249936D02*
X164247Y249936D01*
X182713Y249936D02*
X189647Y249936D01*
X208113Y249936D02*
X267827Y249936D01*
X307733Y249936D02*
X419100Y249936D01*
X67169Y256032D02*
X11430Y256032D01*
X101991Y256032D02*
X270369Y256032D01*
X305191Y256032D02*
X419100Y256032D01*
X73743Y262128D02*
X11430Y262128D01*
X95417Y262128D02*
X242051Y262128D01*
X255789Y262128D02*
X276943Y262128D01*
X298617Y262128D02*
X419100Y262128D01*
X240824Y268224D02*
X11430Y268224D01*
X257016Y268224D02*
X322332Y268224D01*
X347720Y268224D02*
X419100Y268224D01*
X197900Y274320D02*
X11430Y274320D01*
X203420Y274320D02*
X246161Y274320D01*
X251680Y274320D02*
X316988Y274320D01*
X353064Y274320D02*
X419100Y274320D01*
X98345Y280416D02*
X11430Y280416D01*
X112475Y280416D02*
X192564Y280416D01*
X208756Y280416D02*
X314463Y280416D01*
X355589Y280416D02*
X419100Y280416D01*
X98556Y286512D02*
X11430Y286512D01*
X112264Y286512D02*
X125656Y286512D01*
X138504Y286512D02*
X193791Y286512D01*
X207529Y286512D02*
X243059Y286512D01*
X254781Y286512D02*
X314376Y286512D01*
X355676Y286512D02*
X419100Y286512D01*
X124595Y292608D02*
X11430Y292608D01*
X139565Y292608D02*
X240824Y292608D01*
X257016Y292608D02*
X315936Y292608D01*
X354116Y292608D02*
X419100Y292608D01*
X244075Y298704D02*
X11430Y298704D01*
X253765Y298704D02*
X307777Y298704D01*
X314523Y298704D02*
X319792Y298704D01*
X350260Y298704D02*
X419100Y298704D01*
X303054Y304800D02*
X11430Y304800D01*
X319246Y304800D02*
X329508Y304800D01*
X340544Y304800D02*
X419100Y304800D01*
X14939Y310896D02*
X11430Y310896D01*
X35861Y310896D02*
X304527Y310896D01*
X317773Y310896D02*
X419100Y310896D01*
X13208Y316992D02*
X11430Y316992D01*
X37592Y316992D02*
X419100Y316992D01*
X14518Y323088D02*
X11430Y323088D01*
X36282Y323088D02*
X181434Y323088D01*
X189406Y323088D02*
X219534Y323088D01*
X227506Y323088D02*
X336730Y323088D01*
X349070Y323088D02*
X419100Y323088D01*
X21749Y329184D02*
X11430Y329184D01*
X29051Y329184D02*
X177324Y329184D01*
X193516Y329184D02*
X215424Y329184D01*
X231616Y329184D02*
X335309Y329184D01*
X350491Y329184D02*
X378187Y329184D01*
X388893Y329184D02*
X419100Y329184D01*
X15778Y335280D02*
X11430Y335280D01*
X35022Y335280D02*
X68334Y335280D01*
X83050Y335280D02*
X179051Y335280D01*
X191789Y335280D02*
X217151Y335280D01*
X229889Y335280D02*
X253780Y335280D01*
X259300Y335280D02*
X323556Y335280D01*
X374944Y335280D02*
X375444Y335280D01*
X391636Y335280D02*
X419100Y335280D01*
X13208Y341376D02*
X11430Y341376D01*
X37592Y341376D02*
X59696Y341376D01*
X91688Y341376D02*
X195609Y341376D01*
X210791Y341376D02*
X248444Y341376D01*
X264636Y341376D02*
X285020Y341376D01*
X307528Y341376D02*
X322925Y341376D01*
X375575Y341376D02*
X378187Y341376D01*
X388893Y341376D02*
X419100Y341376D01*
X14097Y347472D02*
X11430Y347472D01*
X36703Y347472D02*
X56286Y347472D01*
X95098Y347472D02*
X197030Y347472D01*
X209370Y347472D02*
X249671Y347472D01*
X263409Y347472D02*
X284179Y347472D01*
X308370Y347472D02*
X419100Y347472D01*
X19296Y353568D02*
X11430Y353568D01*
X31504Y353568D02*
X55042Y353568D01*
X96342Y353568D02*
X419100Y353568D01*
X16794Y359664D02*
X11430Y359664D01*
X34006Y359664D02*
X55445Y359664D01*
X95939Y359664D02*
X419100Y359664D01*
X13256Y365760D02*
X11430Y365760D01*
X37544Y365760D02*
X57970Y365760D01*
X93414Y365760D02*
X419100Y365760D01*
X13676Y371856D02*
X11430Y371856D01*
X37124Y371856D02*
X63760Y371856D01*
X87624Y371856D02*
X419100Y371856D01*
X17810Y377952D02*
X11430Y377952D01*
X32990Y377952D02*
X323241Y377952D01*
X413901Y377952D02*
X419100Y377952D01*
X323241Y384048D02*
X11430Y384048D01*
X413901Y384048D02*
X419100Y384048D01*
X91877Y390144D02*
X11430Y390144D01*
X98623Y390144D02*
X203530Y390144D01*
X218110Y390144D02*
X236657Y390144D01*
X243403Y390144D02*
X284825Y390144D01*
X299375Y390144D02*
X419100Y390144D01*
X87154Y396240D02*
X11430Y396240D01*
X103346Y396240D02*
X203109Y396240D01*
X218531Y396240D02*
X231934Y396240D01*
X248126Y396240D02*
X249370Y396240D01*
X263710Y396240D02*
X285456Y396240D01*
X298744Y396240D02*
X419100Y396240D01*
X88627Y402336D02*
X12446Y402336D01*
X101873Y402336D02*
X233407Y402336D01*
X246653Y402336D02*
X249791Y402336D01*
X269216Y402336D02*
X419100Y402336D01*
X255506Y408432D02*
X18542Y408432D01*
X267734Y408432D02*
X415798Y408432D01*
X409702Y414528D02*
X24638Y414528D01*
X12192Y402082D02*
X12192Y24638D01*
X18288Y18542D02*
X18288Y307370D01*
X18288Y327630D02*
X18288Y332770D01*
X18288Y353030D02*
X18288Y358170D01*
X18288Y378430D02*
X18288Y408178D01*
X24384Y305308D02*
X24384Y12446D01*
X24384Y329692D02*
X24384Y330708D01*
X24384Y355092D02*
X24384Y356108D01*
X24384Y380492D02*
X24384Y414274D01*
X30480Y306408D02*
X30480Y11430D01*
X30480Y328592D02*
X30480Y331808D01*
X30480Y353992D02*
X30480Y357208D01*
X30480Y379392D02*
X30480Y419100D01*
X36576Y312622D02*
X36576Y11430D01*
X36576Y322378D02*
X36576Y338022D01*
X36576Y347778D02*
X36576Y363422D01*
X36576Y373178D02*
X36576Y419100D01*
X42672Y419100D02*
X42672Y11430D01*
X48768Y11430D02*
X48768Y168734D01*
X48768Y176706D02*
X48768Y419100D01*
X54864Y164624D02*
X54864Y11430D01*
X54864Y180816D02*
X54864Y419100D01*
X60960Y166351D02*
X60960Y11430D01*
X60960Y179089D02*
X60960Y340112D01*
X60960Y369056D02*
X60960Y419100D01*
X67056Y232899D02*
X67056Y11430D01*
X67056Y255801D02*
X67056Y335810D01*
X67056Y373358D02*
X67056Y419100D01*
X73152Y226817D02*
X73152Y18137D01*
X73152Y261883D02*
X73152Y333934D01*
X73152Y375234D02*
X73152Y419100D01*
X79248Y224292D02*
X79248Y19812D01*
X79248Y264408D02*
X79248Y333934D01*
X79248Y375234D02*
X79248Y419100D01*
X85344Y223778D02*
X85344Y19624D01*
X85344Y264922D02*
X85344Y336230D01*
X85344Y372938D02*
X85344Y419100D01*
X91440Y224925D02*
X91440Y19681D01*
X91440Y263775D02*
X91440Y341128D01*
X91440Y368040D02*
X91440Y390325D01*
X91440Y404695D02*
X91440Y419100D01*
X97536Y128299D02*
X97536Y19649D01*
X97536Y143481D02*
X97536Y228213D01*
X97536Y260487D02*
X97536Y389694D01*
X97536Y405326D02*
X97536Y419100D01*
X103632Y129720D02*
X103632Y19812D01*
X103632Y142060D02*
X103632Y236588D01*
X103632Y252112D02*
X103632Y275725D01*
X103632Y290695D02*
X103632Y419100D01*
X109728Y276786D02*
X109728Y19812D01*
X109728Y289634D02*
X109728Y419100D01*
X115824Y185765D02*
X115824Y19812D01*
X115824Y200315D02*
X115824Y419100D01*
X121920Y186396D02*
X121920Y17336D01*
X121920Y199684D02*
X121920Y419100D01*
X128016Y82810D02*
X128016Y19812D01*
X128016Y107182D02*
X128016Y284292D01*
X128016Y297369D02*
X128016Y419100D01*
X134112Y77168D02*
X134112Y16400D01*
X134112Y112824D02*
X134112Y130736D01*
X134112Y141044D02*
X134112Y239249D01*
X134112Y248431D02*
X134112Y283450D01*
X134112Y298210D02*
X134112Y419100D01*
X140208Y74643D02*
X140208Y20694D01*
X140208Y115349D02*
X140208Y128294D01*
X140208Y143486D02*
X140208Y146230D01*
X140208Y158570D02*
X140208Y235744D01*
X140208Y251936D02*
X140208Y419100D01*
X146304Y74346D02*
X146304Y17484D01*
X146304Y115646D02*
X146304Y131984D01*
X146304Y139796D02*
X146304Y144809D01*
X146304Y159991D02*
X146304Y237725D01*
X146304Y249955D02*
X146304Y419100D01*
X152400Y75695D02*
X152400Y19081D01*
X152400Y114296D02*
X152400Y419100D01*
X158496Y79254D02*
X158496Y19812D01*
X158496Y110738D02*
X158496Y419100D01*
X164592Y88252D02*
X164592Y20196D01*
X164592Y101740D02*
X164592Y238151D01*
X164592Y250549D02*
X164592Y419100D01*
X170688Y233960D02*
X170688Y20292D01*
X170688Y254740D02*
X170688Y419100D01*
X176784Y43617D02*
X176784Y19522D01*
X176784Y50363D02*
X176784Y155374D01*
X176784Y164666D02*
X176784Y234172D01*
X176784Y254528D02*
X176784Y419100D01*
X182880Y38894D02*
X182880Y11430D01*
X182880Y55086D02*
X182880Y102050D01*
X182880Y116390D02*
X182880Y152424D01*
X182880Y167616D02*
X182880Y239167D01*
X182880Y249533D02*
X182880Y322489D01*
X182880Y337911D02*
X182880Y419100D01*
X188976Y40367D02*
X188976Y17526D01*
X188976Y53613D02*
X188976Y102471D01*
X188976Y115969D02*
X188976Y155374D01*
X188976Y164666D02*
X188976Y240384D01*
X188976Y248316D02*
X188976Y322910D01*
X188976Y337490D02*
X188976Y419100D01*
X195072Y234380D02*
X195072Y23622D01*
X195072Y254320D02*
X195072Y276079D01*
X195072Y287801D02*
X195072Y419100D01*
X201168Y233751D02*
X201168Y29718D01*
X201168Y254949D02*
X201168Y273844D01*
X201168Y290036D02*
X201168Y335520D01*
X201168Y350280D02*
X201168Y419100D01*
X207264Y89478D02*
X207264Y35814D01*
X207264Y100514D02*
X207264Y237647D01*
X207264Y251053D02*
X207264Y277095D01*
X207264Y286785D02*
X207264Y336362D01*
X207264Y349438D02*
X207264Y386410D01*
X207264Y400990D02*
X207264Y419100D01*
X213360Y79762D02*
X213360Y41910D01*
X213360Y110230D02*
X213360Y385989D01*
X213360Y401411D02*
X213360Y419100D01*
X219456Y75906D02*
X219456Y48006D01*
X219456Y114086D02*
X219456Y323120D01*
X219456Y337280D02*
X219456Y419100D01*
X225552Y74346D02*
X225552Y54102D01*
X225552Y115646D02*
X225552Y322279D01*
X225552Y338121D02*
X225552Y419100D01*
X231648Y74433D02*
X231648Y60198D01*
X231648Y115559D02*
X231648Y419100D01*
X237744Y76958D02*
X237744Y66294D01*
X237744Y113034D02*
X237744Y389694D01*
X237744Y405326D02*
X237744Y419100D01*
X243840Y82302D02*
X243840Y72390D01*
X243840Y107690D02*
X243840Y163248D01*
X243840Y174572D02*
X243840Y183568D01*
X243840Y192352D02*
X243840Y213795D01*
X243840Y228165D02*
X243840Y260331D01*
X243840Y273069D02*
X243840Y285731D01*
X243840Y298469D02*
X243840Y390325D01*
X243840Y404695D02*
X243840Y419100D01*
X249936Y161314D02*
X249936Y78486D01*
X249936Y176506D02*
X249936Y180364D01*
X249936Y195556D02*
X249936Y213164D01*
X249936Y228796D02*
X249936Y258604D01*
X249936Y274796D02*
X249936Y284004D01*
X249936Y300196D02*
X249936Y338055D01*
X249936Y347745D02*
X249936Y394874D01*
X249936Y402686D02*
X249936Y419100D01*
X256032Y155075D02*
X256032Y84582D01*
X256032Y171589D02*
X256032Y183060D01*
X256032Y192860D02*
X256032Y262714D01*
X256032Y270686D02*
X256032Y288114D01*
X256032Y296086D02*
X256032Y334804D01*
X256032Y350996D02*
X256032Y391184D01*
X256032Y408958D02*
X256032Y419100D01*
X262128Y156136D02*
X262128Y90678D01*
X262128Y168984D02*
X262128Y337039D01*
X262128Y348761D02*
X262128Y393626D01*
X262128Y411400D02*
X262128Y419100D01*
X268224Y237805D02*
X268224Y96774D01*
X268224Y250895D02*
X268224Y399898D01*
X268224Y407710D02*
X268224Y419100D01*
X274320Y228717D02*
X274320Y102870D01*
X274320Y259983D02*
X274320Y419100D01*
X280416Y225133D02*
X280416Y108966D01*
X280416Y263567D02*
X280416Y419100D01*
X286512Y223778D02*
X286512Y115062D01*
X286512Y264922D02*
X286512Y339579D01*
X286512Y351301D02*
X286512Y387276D01*
X286512Y397584D02*
X286512Y419100D01*
X292608Y224083D02*
X292608Y121158D01*
X292608Y264617D02*
X292608Y337344D01*
X292608Y353536D02*
X292608Y384834D01*
X292608Y400026D02*
X292608Y419100D01*
X298704Y226608D02*
X298704Y127254D01*
X298704Y262092D02*
X298704Y338165D01*
X298704Y352715D02*
X298704Y388524D01*
X298704Y396336D02*
X298704Y419100D01*
X304800Y232277D02*
X304800Y133350D01*
X304800Y256423D02*
X304800Y300971D01*
X304800Y311169D02*
X304800Y338796D01*
X304800Y352084D02*
X304800Y419100D01*
X310896Y297974D02*
X310896Y139446D01*
X310896Y314166D02*
X310896Y419100D01*
X316992Y190426D02*
X316992Y145542D01*
X316992Y203274D02*
X316992Y274310D01*
X316992Y295158D02*
X316992Y300463D01*
X316992Y311677D02*
X316992Y419100D01*
X323088Y189365D02*
X323088Y151638D01*
X323088Y204335D02*
X323088Y267468D01*
X323088Y302000D02*
X323088Y336411D01*
X323088Y341769D02*
X323088Y378321D01*
X323088Y383679D02*
X323088Y419100D01*
X329184Y264802D02*
X329184Y157734D01*
X329184Y304666D02*
X329184Y331494D01*
X329184Y346686D02*
X329184Y373404D01*
X329184Y388596D02*
X329184Y419100D01*
X335280Y228509D02*
X335280Y163830D01*
X335280Y243931D02*
X335280Y264084D01*
X335280Y305384D02*
X335280Y333428D01*
X335280Y344752D02*
X335280Y375338D01*
X335280Y386662D02*
X335280Y419100D01*
X341376Y228930D02*
X341376Y169926D01*
X341376Y243510D02*
X341376Y265013D01*
X341376Y304455D02*
X341376Y320069D01*
X341376Y346681D02*
X341376Y373409D01*
X341376Y388591D02*
X341376Y419100D01*
X347472Y267976D02*
X347472Y176022D01*
X347472Y301492D02*
X347472Y321490D01*
X347472Y345260D02*
X347472Y374830D01*
X347472Y387170D02*
X347472Y419100D01*
X353568Y275537D02*
X353568Y182118D01*
X353568Y293931D02*
X353568Y331710D01*
X353568Y346470D02*
X353568Y373620D01*
X353568Y388380D02*
X353568Y419100D01*
X359664Y332552D02*
X359664Y188214D01*
X359664Y345628D02*
X359664Y374462D01*
X359664Y387538D02*
X359664Y419100D01*
X365760Y331920D02*
X365760Y194310D01*
X365760Y346260D02*
X365760Y373830D01*
X365760Y388170D02*
X365760Y419100D01*
X371856Y332341D02*
X371856Y200406D01*
X371856Y345839D02*
X371856Y374251D01*
X371856Y387749D02*
X371856Y419100D01*
X377952Y329419D02*
X377952Y206502D01*
X377952Y341141D02*
X377952Y374041D01*
X377952Y387959D02*
X377952Y419100D01*
X384048Y327184D02*
X384048Y212598D01*
X384048Y343376D02*
X384048Y374041D01*
X384048Y387959D02*
X384048Y419100D01*
X390144Y330435D02*
X390144Y218694D01*
X390144Y340125D02*
X390144Y374251D01*
X390144Y387749D02*
X390144Y419100D01*
X396240Y373830D02*
X396240Y224790D01*
X396240Y388170D02*
X396240Y419100D01*
X402336Y373920D02*
X402336Y230886D01*
X402336Y388080D02*
X402336Y419100D01*
X408432Y373079D02*
X408432Y236982D01*
X408432Y388921D02*
X408432Y415798D01*
X414528Y409702D02*
X414528Y243078D01*
D13*
X147320Y330200D03*
X121920Y330200D03*
X200660Y290830D03*
X406400Y340360D03*
X238760Y266700D03*
X259080Y266700D03*
X102870Y172720D03*
X240030Y344170D03*
X125730Y219710D03*
X87630Y327660D03*
D16*
X75692Y354584D03*
X335026Y284734D03*
X145034Y94996D03*
X227330Y94996D03*
D14*
X132080Y290830D03*
X342900Y339090D03*
X321310Y196850D03*
X248920Y168910D03*
X355600Y339090D03*
X368300Y339090D03*
X257810Y162560D03*
X330200Y339090D03*
X203200Y342900D03*
X368300Y381000D03*
X393700Y381000D03*
X381000Y381000D03*
X355600Y381000D03*
X139700Y135890D03*
D13*
X240030Y397510D03*
X256540Y342900D03*
D14*
X292100Y392430D03*
X300990Y345440D03*
X256540Y398780D03*
X330200Y381000D03*
X261620Y403804D03*
X342900Y381000D03*
M02*
