G04 EAGLE Gerber RS-274X export*
G75*
%MOMM*%
%FSLAX34Y34*%
%LPD*%
%INTop Copper*%
%IPPOS*%
%AMOC8*
5,1,8,0,0,1.08239X$1,22.5*%
G01*
%ADD10C,0.177800*%
%ADD11C,1.879600*%
%ADD12R,1.525000X0.650000*%
%ADD13C,0.654000*%
%ADD14C,0.554000*%
%ADD15C,0.406400*%
%ADD16C,0.304800*%
%ADD17C,4.013200*%


D10*
X9779Y65363D02*
X18161Y65363D01*
X18161Y67691D02*
X18161Y63034D01*
X15833Y59157D02*
X12107Y59157D01*
X15833Y59156D02*
X15928Y59154D01*
X16023Y59148D01*
X16117Y59139D01*
X16211Y59125D01*
X16305Y59108D01*
X16397Y59087D01*
X16489Y59062D01*
X16579Y59033D01*
X16669Y59001D01*
X16757Y58965D01*
X16843Y58925D01*
X16928Y58883D01*
X17011Y58836D01*
X17092Y58786D01*
X17170Y58733D01*
X17247Y58677D01*
X17321Y58618D01*
X17393Y58556D01*
X17462Y58491D01*
X17529Y58423D01*
X17592Y58353D01*
X17653Y58279D01*
X17711Y58204D01*
X17765Y58126D01*
X17817Y58046D01*
X17865Y57964D01*
X17909Y57881D01*
X17951Y57795D01*
X17988Y57708D01*
X18022Y57619D01*
X18053Y57529D01*
X18080Y57438D01*
X18103Y57346D01*
X18122Y57253D01*
X18137Y57159D01*
X18149Y57065D01*
X18157Y56970D01*
X18161Y56875D01*
X18161Y56781D01*
X18157Y56686D01*
X18149Y56591D01*
X18137Y56497D01*
X18122Y56403D01*
X18103Y56310D01*
X18080Y56218D01*
X18053Y56127D01*
X18022Y56037D01*
X17988Y55948D01*
X17951Y55861D01*
X17909Y55775D01*
X17865Y55692D01*
X17817Y55610D01*
X17765Y55530D01*
X17711Y55452D01*
X17653Y55377D01*
X17592Y55303D01*
X17529Y55233D01*
X17462Y55165D01*
X17393Y55100D01*
X17321Y55038D01*
X17247Y54979D01*
X17170Y54923D01*
X17092Y54870D01*
X17011Y54820D01*
X16928Y54773D01*
X16843Y54731D01*
X16757Y54691D01*
X16669Y54655D01*
X16579Y54623D01*
X16489Y54594D01*
X16397Y54569D01*
X16305Y54548D01*
X16211Y54531D01*
X16117Y54517D01*
X16023Y54508D01*
X15928Y54502D01*
X15833Y54500D01*
X12107Y54500D01*
X12012Y54502D01*
X11917Y54508D01*
X11823Y54517D01*
X11729Y54531D01*
X11635Y54548D01*
X11543Y54569D01*
X11451Y54594D01*
X11361Y54623D01*
X11271Y54655D01*
X11183Y54691D01*
X11097Y54731D01*
X11012Y54773D01*
X10929Y54820D01*
X10848Y54870D01*
X10770Y54923D01*
X10693Y54979D01*
X10619Y55038D01*
X10547Y55100D01*
X10478Y55165D01*
X10411Y55233D01*
X10348Y55303D01*
X10287Y55377D01*
X10229Y55452D01*
X10175Y55530D01*
X10123Y55610D01*
X10075Y55692D01*
X10031Y55775D01*
X9989Y55861D01*
X9952Y55948D01*
X9918Y56037D01*
X9887Y56127D01*
X9860Y56218D01*
X9837Y56310D01*
X9818Y56403D01*
X9803Y56497D01*
X9791Y56591D01*
X9783Y56686D01*
X9779Y56781D01*
X9779Y56875D01*
X9783Y56970D01*
X9791Y57065D01*
X9803Y57159D01*
X9818Y57253D01*
X9837Y57346D01*
X9860Y57438D01*
X9887Y57529D01*
X9918Y57619D01*
X9952Y57708D01*
X9989Y57795D01*
X10031Y57881D01*
X10075Y57964D01*
X10123Y58046D01*
X10175Y58126D01*
X10229Y58204D01*
X10287Y58279D01*
X10348Y58353D01*
X10411Y58423D01*
X10478Y58491D01*
X10547Y58556D01*
X10619Y58618D01*
X10693Y58677D01*
X10770Y58733D01*
X10848Y58786D01*
X10929Y58836D01*
X11012Y58883D01*
X11097Y58925D01*
X11183Y58965D01*
X11271Y59001D01*
X11361Y59033D01*
X11451Y59062D01*
X11543Y59087D01*
X11635Y59108D01*
X11729Y59125D01*
X11823Y59139D01*
X11917Y59148D01*
X12012Y59154D01*
X12107Y59156D01*
X9779Y49492D02*
X18161Y49492D01*
X18161Y47164D01*
X18159Y47069D01*
X18153Y46974D01*
X18144Y46880D01*
X18130Y46786D01*
X18113Y46692D01*
X18092Y46600D01*
X18067Y46508D01*
X18038Y46418D01*
X18006Y46328D01*
X17970Y46240D01*
X17930Y46154D01*
X17888Y46069D01*
X17841Y45986D01*
X17791Y45905D01*
X17738Y45827D01*
X17682Y45750D01*
X17623Y45676D01*
X17561Y45604D01*
X17496Y45535D01*
X17428Y45468D01*
X17358Y45405D01*
X17284Y45344D01*
X17209Y45286D01*
X17131Y45232D01*
X17051Y45180D01*
X16969Y45132D01*
X16886Y45088D01*
X16800Y45046D01*
X16713Y45009D01*
X16624Y44975D01*
X16534Y44944D01*
X16443Y44917D01*
X16351Y44894D01*
X16258Y44875D01*
X16164Y44860D01*
X16070Y44848D01*
X15975Y44840D01*
X15880Y44836D01*
X15786Y44836D01*
X15691Y44840D01*
X15596Y44848D01*
X15502Y44860D01*
X15408Y44875D01*
X15315Y44894D01*
X15223Y44917D01*
X15132Y44944D01*
X15042Y44975D01*
X14953Y45009D01*
X14866Y45046D01*
X14780Y45088D01*
X14697Y45132D01*
X14615Y45180D01*
X14535Y45232D01*
X14457Y45286D01*
X14382Y45344D01*
X14308Y45405D01*
X14238Y45468D01*
X14170Y45535D01*
X14105Y45604D01*
X14043Y45676D01*
X13984Y45750D01*
X13928Y45827D01*
X13875Y45905D01*
X13825Y45986D01*
X13778Y46069D01*
X13736Y46154D01*
X13696Y46240D01*
X13660Y46328D01*
X13628Y46418D01*
X13599Y46508D01*
X13574Y46600D01*
X13553Y46692D01*
X13536Y46786D01*
X13522Y46880D01*
X13513Y46974D01*
X13507Y47069D01*
X13505Y47164D01*
X13504Y47164D02*
X13504Y49492D01*
D11*
X173480Y244350D03*
X198880Y244350D03*
X25400Y342900D03*
X25400Y317500D03*
X25400Y368300D03*
D12*
X213300Y140300D03*
X213300Y153000D03*
X213300Y165700D03*
X213300Y178400D03*
X159060Y178400D03*
X159060Y165700D03*
X159060Y153000D03*
X159060Y140300D03*
D13*
X185420Y330200D03*
X200660Y281940D03*
X210820Y393700D03*
X406400Y381000D03*
X383540Y335280D03*
D14*
X250190Y187960D03*
X182880Y160020D03*
X118110Y193040D03*
X105410Y283210D03*
D13*
X337820Y236220D03*
X184150Y46990D03*
X95250Y397510D03*
D14*
X342900Y327660D03*
X144780Y152400D03*
D15*
X158460Y152400D02*
X159060Y153000D01*
X158460Y152400D02*
X144780Y152400D01*
D14*
X99060Y135890D03*
D13*
X248920Y292100D03*
X248920Y266700D03*
X292100Y345440D03*
X223520Y330200D03*
X311150Y306070D03*
X55880Y172720D03*
D16*
X383794Y334757D02*
X383794Y356885D01*
X383286Y335265D02*
X383794Y334757D01*
X383286Y335265D02*
X383286Y357393D01*
X383794Y356885D01*
X252381Y405004D02*
X250316Y402939D01*
X249198Y400240D01*
X249198Y397320D01*
X250316Y394621D01*
X252381Y392556D01*
X255080Y391438D01*
X258000Y391438D01*
X260699Y392556D01*
X260827Y392684D01*
X284758Y392684D01*
X284758Y390970D01*
X285876Y388271D01*
X287941Y386206D01*
X290640Y385088D01*
X290821Y385088D01*
X294894Y381015D01*
X294894Y349727D01*
X294766Y349599D01*
X293648Y346900D01*
X293648Y343980D01*
X294766Y341281D01*
X296831Y339216D01*
X299530Y338098D01*
X302450Y338098D01*
X305149Y339216D01*
X307214Y341281D01*
X308332Y343980D01*
X308332Y346900D01*
X307214Y349599D01*
X307086Y349727D01*
X307086Y384753D01*
X306158Y386993D01*
X304443Y388708D01*
X300467Y392684D01*
X324104Y392684D01*
X324104Y385287D01*
X323976Y385159D01*
X322858Y382460D01*
X322858Y379540D01*
X323976Y376841D01*
X326041Y374776D01*
X328740Y373658D01*
X331660Y373658D01*
X334359Y374776D01*
X336424Y376841D01*
X336550Y377145D01*
X336676Y376841D01*
X338741Y374776D01*
X341440Y373658D01*
X344360Y373658D01*
X347059Y374776D01*
X349124Y376841D01*
X349250Y377145D01*
X349376Y376841D01*
X351441Y374776D01*
X354140Y373658D01*
X354321Y373658D01*
X371094Y356885D01*
X371094Y345880D01*
X369760Y346432D01*
X366840Y346432D01*
X364141Y345314D01*
X362076Y343249D01*
X361950Y342945D01*
X361824Y343249D01*
X359759Y345314D01*
X357060Y346432D01*
X354140Y346432D01*
X351441Y345314D01*
X349376Y343249D01*
X349250Y342945D01*
X349124Y343249D01*
X347059Y345314D01*
X344360Y346432D01*
X341440Y346432D01*
X338741Y345314D01*
X336676Y343249D01*
X336550Y342945D01*
X336424Y343249D01*
X334359Y345314D01*
X331660Y346432D01*
X328740Y346432D01*
X326041Y345314D01*
X323976Y343249D01*
X322858Y340550D01*
X322858Y340369D01*
X318785Y336296D01*
X261026Y336296D01*
X263188Y338458D01*
X264382Y341340D01*
X264382Y344460D01*
X263188Y347342D01*
X260982Y349548D01*
X258100Y350742D01*
X258037Y350742D01*
X246634Y362145D01*
X246634Y393024D01*
X246678Y393068D01*
X247872Y395950D01*
X247872Y399070D01*
X246678Y401952D01*
X244472Y404158D01*
X241590Y405352D01*
X238470Y405352D01*
X235588Y404158D01*
X233382Y401952D01*
X232188Y399070D01*
X232188Y395950D01*
X233382Y393068D01*
X233426Y393024D01*
X233426Y358096D01*
X234431Y355669D01*
X236289Y353811D01*
X236289Y353811D01*
X238200Y351900D01*
X235588Y350818D01*
X233382Y348612D01*
X232833Y347288D01*
X232053Y348068D01*
X229813Y348996D01*
X207487Y348996D01*
X207359Y349124D01*
X204660Y350242D01*
X201740Y350242D01*
X199041Y349124D01*
X196976Y347059D01*
X195858Y344360D01*
X195858Y341440D01*
X196976Y338741D01*
X199041Y336676D01*
X201740Y335558D01*
X204660Y335558D01*
X207359Y336676D01*
X207487Y336804D01*
X226075Y336804D01*
X236132Y326747D01*
X237847Y325032D01*
X240087Y324104D01*
X322523Y324104D01*
X324763Y325032D01*
X326478Y326747D01*
X331479Y331748D01*
X331660Y331748D01*
X334359Y332866D01*
X336424Y334931D01*
X336550Y335235D01*
X336676Y334931D01*
X338741Y332866D01*
X341440Y331748D01*
X341621Y331748D01*
X381254Y292115D01*
X381254Y265415D01*
X320031Y204192D01*
X319850Y204192D01*
X317151Y203074D01*
X315086Y201009D01*
X313968Y198310D01*
X313968Y195390D01*
X315086Y192691D01*
X316253Y191524D01*
X299735Y175006D01*
X253207Y175006D01*
X253079Y175134D01*
X250380Y176252D01*
X247460Y176252D01*
X244761Y175134D01*
X242696Y173069D01*
X241578Y170370D01*
X241578Y169633D01*
X227643Y183568D01*
X225403Y184496D01*
X224545Y184496D01*
X222819Y186222D01*
X203781Y186222D01*
X201103Y183544D01*
X201103Y173256D01*
X202309Y172050D01*
X201103Y170844D01*
X201103Y160556D01*
X202309Y159350D01*
X201103Y158144D01*
X201103Y147856D01*
X202309Y146650D01*
X201103Y145444D01*
X201103Y135156D01*
X203781Y132478D01*
X222819Y132478D01*
X224545Y134204D01*
X312963Y134204D01*
X313424Y134395D01*
X192605Y13577D01*
X192588Y13577D01*
X191230Y12201D01*
X191219Y12190D01*
X188756Y10003D01*
X183081Y6678D01*
X176739Y4935D01*
X173453Y4699D01*
X29972Y4699D01*
X26018Y5010D01*
X18498Y7454D01*
X12101Y12101D01*
X7454Y18498D01*
X5010Y26018D01*
X4699Y29972D01*
X4699Y46849D01*
X7517Y44031D01*
X8481Y44031D01*
X11019Y40538D01*
X11019Y40538D01*
X11019Y40538D01*
X15833Y38973D01*
X15833Y38973D01*
X20647Y40538D01*
X20647Y40538D01*
X23622Y44633D01*
X23622Y51754D01*
X22680Y52696D01*
X24023Y56828D01*
X24023Y56828D01*
X22957Y60108D01*
X23622Y60772D01*
X23622Y69953D01*
X20423Y73152D01*
X15899Y73152D01*
X13571Y70824D01*
X7517Y70824D01*
X4699Y68006D01*
X4699Y400050D01*
X5010Y404004D01*
X7454Y411524D01*
X12101Y417921D01*
X18498Y422568D01*
X26018Y425012D01*
X29972Y425323D01*
X400050Y425323D01*
X404004Y425012D01*
X411524Y422568D01*
X417921Y417921D01*
X422568Y411524D01*
X425012Y404004D01*
X425323Y400050D01*
X425323Y256569D01*
X425196Y254802D01*
X425196Y318713D01*
X424268Y320953D01*
X411176Y334045D01*
X413048Y335918D01*
X414242Y338800D01*
X414242Y341920D01*
X413048Y344802D01*
X410842Y347008D01*
X407960Y348202D01*
X406146Y348202D01*
X406146Y375863D01*
X405218Y378103D01*
X403503Y379818D01*
X401042Y382279D01*
X401042Y382460D01*
X399924Y385159D01*
X397859Y387224D01*
X395160Y388342D01*
X392240Y388342D01*
X389541Y387224D01*
X387476Y385159D01*
X387350Y384855D01*
X387224Y385159D01*
X385159Y387224D01*
X382460Y388342D01*
X379540Y388342D01*
X376841Y387224D01*
X374776Y385159D01*
X374650Y384855D01*
X374524Y385159D01*
X372459Y387224D01*
X369760Y388342D01*
X366840Y388342D01*
X364141Y387224D01*
X362076Y385159D01*
X361950Y384855D01*
X361824Y385159D01*
X359759Y387224D01*
X357060Y388342D01*
X354140Y388342D01*
X351441Y387224D01*
X349376Y385159D01*
X349250Y384855D01*
X349124Y385159D01*
X348996Y385287D01*
X348996Y401263D01*
X348068Y403503D01*
X342599Y408972D01*
X340359Y409900D01*
X265907Y409900D01*
X265779Y410028D01*
X263080Y411146D01*
X260160Y411146D01*
X257461Y410028D01*
X255396Y407963D01*
X254541Y405899D01*
X252381Y405004D01*
X251968Y99897D02*
X251968Y90095D01*
X251968Y99897D02*
X248217Y108952D01*
X241286Y115883D01*
X232231Y119634D01*
X222429Y119634D01*
X213374Y115883D01*
X206443Y108952D01*
X202692Y99897D01*
X202692Y90095D01*
X206443Y81040D01*
X213374Y74109D01*
X222429Y70358D01*
X232231Y70358D01*
X241286Y74109D01*
X248217Y81040D01*
X251968Y90095D01*
X95472Y326100D02*
X95472Y329220D01*
X94278Y332102D01*
X92072Y334308D01*
X90790Y334839D01*
X96579Y340628D01*
X100330Y349683D01*
X100330Y359485D01*
X96579Y368540D01*
X89648Y375471D01*
X80593Y379222D01*
X70791Y379222D01*
X61736Y375471D01*
X54805Y368540D01*
X51054Y359485D01*
X51054Y349683D01*
X54805Y340628D01*
X61736Y333697D01*
X70791Y329946D01*
X80089Y329946D01*
X79788Y329220D01*
X79788Y326100D01*
X80982Y323218D01*
X83188Y321012D01*
X86070Y319818D01*
X89190Y319818D01*
X92072Y321012D01*
X94278Y323218D01*
X95472Y326100D01*
X133572Y221270D02*
X133572Y218150D01*
X133572Y221270D02*
X132378Y224152D01*
X130172Y226358D01*
X127290Y227552D01*
X124170Y227552D01*
X121288Y226358D01*
X119082Y224152D01*
X117888Y221270D01*
X117888Y218150D01*
X119082Y215268D01*
X121288Y213062D01*
X124170Y211868D01*
X127290Y211868D01*
X130172Y213062D01*
X132378Y215268D01*
X133572Y218150D01*
X110712Y174280D02*
X110712Y171160D01*
X110712Y174280D02*
X109518Y177162D01*
X107312Y179368D01*
X104430Y180562D01*
X101310Y180562D01*
X98428Y179368D01*
X96222Y177162D01*
X95028Y174280D01*
X95028Y171160D01*
X96222Y168278D01*
X98428Y166072D01*
X101310Y164878D01*
X104430Y164878D01*
X107312Y166072D01*
X109518Y168278D01*
X110712Y171160D01*
X266922Y265140D02*
X266922Y268260D01*
X265728Y271142D01*
X263522Y273348D01*
X260640Y274542D01*
X257520Y274542D01*
X254638Y273348D01*
X252432Y271142D01*
X251238Y268260D01*
X251238Y265140D01*
X252432Y262258D01*
X254638Y260052D01*
X257520Y258858D01*
X260640Y258858D01*
X263522Y260052D01*
X265728Y262258D01*
X266922Y265140D01*
X246602Y265140D02*
X246602Y268260D01*
X245408Y271142D01*
X243202Y273348D01*
X240320Y274542D01*
X237200Y274542D01*
X234318Y273348D01*
X232112Y271142D01*
X230918Y268260D01*
X230918Y265140D01*
X232112Y262258D01*
X234318Y260052D01*
X237200Y258858D01*
X240320Y258858D01*
X243202Y260052D01*
X245408Y262258D01*
X246602Y265140D01*
X208502Y289270D02*
X208502Y292390D01*
X207308Y295272D01*
X205102Y297478D01*
X202220Y298672D01*
X199100Y298672D01*
X196218Y297478D01*
X194012Y295272D01*
X192818Y292390D01*
X192818Y289270D01*
X194012Y286388D01*
X196218Y284182D01*
X199100Y282988D01*
X202220Y282988D01*
X205102Y284182D01*
X207308Y286388D01*
X208502Y289270D01*
X129762Y328640D02*
X129762Y331760D01*
X128568Y334642D01*
X126362Y336848D01*
X123480Y338042D01*
X120360Y338042D01*
X117478Y336848D01*
X115272Y334642D01*
X114078Y331760D01*
X114078Y328640D01*
X115272Y325758D01*
X117478Y323552D01*
X120360Y322358D01*
X123480Y322358D01*
X126362Y323552D01*
X128568Y325758D01*
X129762Y328640D01*
X155162Y328640D02*
X155162Y331760D01*
X153968Y334642D01*
X151762Y336848D01*
X148880Y338042D01*
X145760Y338042D01*
X142878Y336848D01*
X140672Y334642D01*
X139478Y331760D01*
X139478Y328640D01*
X140672Y325758D01*
X142878Y323552D01*
X145760Y322358D01*
X148880Y322358D01*
X151762Y323552D01*
X153968Y325758D01*
X155162Y328640D01*
X170472Y148181D02*
X169937Y147255D01*
X170472Y148181D02*
X170749Y149215D01*
X170749Y152899D01*
X159161Y152899D01*
X159161Y153101D01*
X170749Y153101D01*
X170749Y156785D01*
X170472Y157819D01*
X169937Y158745D01*
X169692Y158991D01*
X171257Y160556D01*
X171257Y170844D01*
X170051Y172050D01*
X171257Y173256D01*
X171257Y183544D01*
X168579Y186222D01*
X149541Y186222D01*
X146863Y183544D01*
X146863Y173256D01*
X148069Y172050D01*
X146863Y170844D01*
X146863Y160556D01*
X148428Y158991D01*
X148183Y158745D01*
X147648Y157819D01*
X147371Y156785D01*
X147371Y153101D01*
X158959Y153101D01*
X158959Y152899D01*
X147371Y152899D01*
X147371Y149215D01*
X147648Y148181D01*
X148183Y147255D01*
X148428Y147009D01*
X148323Y146904D01*
X142796Y146904D01*
X140369Y145899D01*
X138511Y144041D01*
X137323Y142852D01*
X135541Y142114D01*
X133476Y140049D01*
X132358Y137350D01*
X132358Y134430D01*
X133476Y131731D01*
X135541Y129666D01*
X138240Y128548D01*
X141160Y128548D01*
X143859Y129666D01*
X145924Y131731D01*
X146662Y133513D01*
X146845Y133696D01*
X148323Y133696D01*
X149541Y132478D01*
X168579Y132478D01*
X171257Y135156D01*
X171257Y145444D01*
X169692Y147009D01*
X169937Y147255D01*
X199388Y244858D02*
X199388Y257812D01*
X199388Y244858D02*
X198372Y244858D01*
X198372Y257812D01*
X197821Y257812D01*
X195728Y257481D01*
X193712Y256826D01*
X191824Y255864D01*
X190110Y254618D01*
X188612Y253120D01*
X187366Y251406D01*
X186435Y249578D01*
X185323Y252263D01*
X181393Y256193D01*
X176259Y258320D01*
X170701Y258320D01*
X165567Y256193D01*
X161637Y252263D01*
X159510Y247129D01*
X159510Y241571D01*
X161637Y236437D01*
X165567Y232507D01*
X170701Y230380D01*
X176259Y230380D01*
X181393Y232507D01*
X185323Y236437D01*
X186435Y239122D01*
X187366Y237294D01*
X188612Y235580D01*
X190110Y234082D01*
X191824Y232836D01*
X193712Y231874D01*
X195728Y231219D01*
X197821Y230888D01*
X198372Y230888D01*
X198372Y243842D01*
X199388Y243842D01*
X199388Y230888D01*
X199939Y230888D01*
X202032Y231219D01*
X204048Y231874D01*
X205936Y232836D01*
X207650Y234082D01*
X209148Y235580D01*
X210394Y237294D01*
X211356Y239182D01*
X212011Y241198D01*
X212342Y243291D01*
X212342Y243842D01*
X199388Y243842D01*
X199388Y244858D01*
X212342Y244858D01*
X212342Y245409D01*
X212011Y247502D01*
X211356Y249518D01*
X210394Y251406D01*
X209148Y253120D01*
X207650Y254618D01*
X205936Y255864D01*
X204048Y256826D01*
X202032Y257481D01*
X199939Y257812D01*
X199388Y257812D01*
X105152Y248442D02*
X105152Y240258D01*
X105152Y248442D02*
X102020Y256003D01*
X96233Y261790D01*
X88672Y264922D01*
X80488Y264922D01*
X72927Y261790D01*
X67140Y256003D01*
X64008Y248442D01*
X64008Y240258D01*
X67140Y232697D01*
X72927Y226910D01*
X80488Y223778D01*
X88672Y223778D01*
X96233Y226910D01*
X102020Y232697D01*
X105152Y240258D01*
X308352Y240258D02*
X308352Y248442D01*
X305220Y256003D01*
X299433Y261790D01*
X291872Y264922D01*
X283688Y264922D01*
X276127Y261790D01*
X270340Y256003D01*
X267208Y248442D01*
X267208Y240258D01*
X270340Y232697D01*
X276127Y226910D01*
X283688Y223778D01*
X291872Y223778D01*
X299433Y226910D01*
X305220Y232697D01*
X308352Y240258D01*
X24384Y304038D02*
X24341Y304038D01*
X24384Y304038D02*
X24384Y316484D01*
X26416Y316484D01*
X26416Y304038D01*
X26459Y304038D01*
X28552Y304369D01*
X30568Y305024D01*
X32456Y305986D01*
X34170Y307232D01*
X35668Y308730D01*
X36914Y310444D01*
X37876Y312332D01*
X38531Y314348D01*
X38862Y316441D01*
X38862Y316484D01*
X26416Y316484D01*
X26416Y318516D01*
X38862Y318516D01*
X38862Y318559D01*
X38572Y320388D01*
X60441Y298519D01*
X60441Y298519D01*
X62299Y296661D01*
X64726Y295656D01*
X117915Y295656D01*
X125118Y288453D01*
X125856Y286671D01*
X127921Y284606D01*
X130620Y283488D01*
X133540Y283488D01*
X136239Y284606D01*
X138304Y286671D01*
X139422Y289370D01*
X139422Y292290D01*
X138304Y294989D01*
X136239Y297054D01*
X134457Y297792D01*
X126249Y306001D01*
X126249Y306001D01*
X124391Y307859D01*
X121964Y308864D01*
X68775Y308864D01*
X38828Y338812D01*
X39370Y340121D01*
X39370Y345679D01*
X37243Y350813D01*
X33313Y354743D01*
X31245Y355600D01*
X33313Y356457D01*
X37243Y360387D01*
X39370Y365521D01*
X39370Y371079D01*
X37243Y376213D01*
X33313Y380143D01*
X28179Y382270D01*
X22621Y382270D01*
X17487Y380143D01*
X13557Y376213D01*
X11430Y371079D01*
X11430Y365521D01*
X13557Y360387D01*
X17487Y356457D01*
X19555Y355600D01*
X17487Y354743D01*
X13557Y350813D01*
X11430Y345679D01*
X11430Y340121D01*
X13557Y334987D01*
X17487Y331057D01*
X20172Y329945D01*
X18344Y329014D01*
X16630Y327768D01*
X15132Y326270D01*
X13886Y324556D01*
X12924Y322668D01*
X12269Y320652D01*
X11938Y318559D01*
X11938Y318516D01*
X24384Y318516D01*
X24384Y316484D01*
X11938Y316484D01*
X11938Y316441D01*
X12269Y314348D01*
X12924Y312332D01*
X13886Y310444D01*
X15132Y308730D01*
X16630Y307232D01*
X18344Y305986D01*
X20232Y305024D01*
X22248Y304369D01*
X24341Y304038D01*
X359664Y289635D02*
X359664Y279833D01*
X359664Y289635D02*
X355913Y298690D01*
X348982Y305621D01*
X339927Y309372D01*
X330125Y309372D01*
X321070Y305621D01*
X314139Y298690D01*
X310388Y289635D01*
X310388Y279833D01*
X314139Y270778D01*
X321070Y263847D01*
X330125Y260096D01*
X339927Y260096D01*
X348982Y263847D01*
X355913Y270778D01*
X359664Y279833D01*
X169672Y99897D02*
X169672Y90095D01*
X169672Y99897D02*
X165921Y108952D01*
X158990Y115883D01*
X149935Y119634D01*
X140133Y119634D01*
X131078Y115883D01*
X124147Y108952D01*
X120396Y99897D01*
X120396Y90095D01*
X124147Y81040D01*
X131078Y74109D01*
X140133Y70358D01*
X149935Y70358D01*
X158990Y74109D01*
X165921Y81040D01*
X169672Y90095D01*
X180963Y6096D02*
X22676Y6096D01*
X12035Y12192D02*
X191221Y12192D01*
X197317Y18288D02*
X7606Y18288D01*
X5541Y24384D02*
X203413Y24384D01*
X209509Y30480D02*
X4699Y30480D01*
X4699Y36576D02*
X215605Y36576D01*
X9468Y42672D02*
X4699Y42672D01*
X22197Y42672D02*
X221701Y42672D01*
X227797Y48768D02*
X23622Y48768D01*
X23385Y54864D02*
X233893Y54864D01*
X239989Y60960D02*
X23622Y60960D01*
X23622Y67056D02*
X246085Y67056D01*
X133388Y73152D02*
X4699Y73152D01*
X156680Y73152D02*
X215684Y73152D01*
X238976Y73152D02*
X252181Y73152D01*
X125939Y79248D02*
X4699Y79248D01*
X164129Y79248D02*
X208235Y79248D01*
X246425Y79248D02*
X258277Y79248D01*
X122364Y85344D02*
X4699Y85344D01*
X167704Y85344D02*
X204660Y85344D01*
X250000Y85344D02*
X264373Y85344D01*
X120396Y91440D02*
X4699Y91440D01*
X169672Y91440D02*
X202692Y91440D01*
X251968Y91440D02*
X270469Y91440D01*
X120396Y97536D02*
X4699Y97536D01*
X169672Y97536D02*
X202692Y97536D01*
X251968Y97536D02*
X276565Y97536D01*
X121943Y103632D02*
X4699Y103632D01*
X168125Y103632D02*
X204239Y103632D01*
X250421Y103632D02*
X282661Y103632D01*
X124923Y109728D02*
X4699Y109728D01*
X165145Y109728D02*
X207219Y109728D01*
X247441Y109728D02*
X288757Y109728D01*
X131019Y115824D02*
X4699Y115824D01*
X159049Y115824D02*
X213315Y115824D01*
X241345Y115824D02*
X294853Y115824D01*
X300949Y121920D02*
X4699Y121920D01*
X4699Y128016D02*
X307045Y128016D01*
X132490Y134112D02*
X4699Y134112D01*
X170213Y134112D02*
X202147Y134112D01*
X224453Y134112D02*
X313141Y134112D01*
X133635Y140208D02*
X4699Y140208D01*
X171257Y140208D02*
X201103Y140208D01*
X141348Y146304D02*
X4699Y146304D01*
X170397Y146304D02*
X201963Y146304D01*
X147371Y152400D02*
X4699Y152400D01*
X170749Y152400D02*
X201103Y152400D01*
X148039Y158496D02*
X4699Y158496D01*
X170081Y158496D02*
X201455Y158496D01*
X146863Y164592D02*
X4699Y164592D01*
X171257Y164592D02*
X201103Y164592D01*
X95224Y170688D02*
X4699Y170688D01*
X110516Y170688D02*
X146863Y170688D01*
X171257Y170688D02*
X201103Y170688D01*
X240523Y170688D02*
X241710Y170688D01*
X96065Y176784D02*
X4699Y176784D01*
X109675Y176784D02*
X146863Y176784D01*
X171257Y176784D02*
X201103Y176784D01*
X234427Y176784D02*
X301513Y176784D01*
X146863Y182880D02*
X4699Y182880D01*
X171257Y182880D02*
X201103Y182880D01*
X228331Y182880D02*
X307609Y182880D01*
X313705Y188976D02*
X4699Y188976D01*
X4699Y195072D02*
X314100Y195072D01*
X315245Y201168D02*
X4699Y201168D01*
X4699Y207264D02*
X323103Y207264D01*
X120990Y213360D02*
X4699Y213360D01*
X130470Y213360D02*
X329199Y213360D01*
X117888Y219456D02*
X4699Y219456D01*
X133572Y219456D02*
X335295Y219456D01*
X76205Y225552D02*
X4699Y225552D01*
X92955Y225552D02*
X120482Y225552D01*
X130978Y225552D02*
X279405Y225552D01*
X296155Y225552D02*
X341391Y225552D01*
X68189Y231648D02*
X4699Y231648D01*
X100971Y231648D02*
X167640Y231648D01*
X179320Y231648D02*
X194409Y231648D01*
X198372Y231648D02*
X199388Y231648D01*
X203351Y231648D02*
X271389Y231648D01*
X304171Y231648D02*
X347487Y231648D01*
X65049Y237744D02*
X4699Y237744D01*
X104111Y237744D02*
X161095Y237744D01*
X185865Y237744D02*
X187137Y237744D01*
X198372Y237744D02*
X199388Y237744D01*
X210623Y237744D02*
X268249Y237744D01*
X307311Y237744D02*
X353583Y237744D01*
X64008Y243840D02*
X4699Y243840D01*
X105152Y243840D02*
X159510Y243840D01*
X198372Y243840D02*
X199388Y243840D01*
X212342Y243840D02*
X267208Y243840D01*
X308352Y243840D02*
X359679Y243840D01*
X64627Y249936D02*
X4699Y249936D01*
X104533Y249936D02*
X160673Y249936D01*
X186287Y249936D02*
X186618Y249936D01*
X198372Y249936D02*
X199388Y249936D01*
X211143Y249936D02*
X267827Y249936D01*
X307733Y249936D02*
X365775Y249936D01*
X67169Y256032D02*
X4699Y256032D01*
X101991Y256032D02*
X165405Y256032D01*
X181555Y256032D02*
X192155Y256032D01*
X198372Y256032D02*
X199388Y256032D01*
X205605Y256032D02*
X270369Y256032D01*
X305191Y256032D02*
X371871Y256032D01*
X425196Y256032D02*
X425284Y256032D01*
X73743Y262128D02*
X4699Y262128D01*
X95417Y262128D02*
X232242Y262128D01*
X245278Y262128D02*
X252562Y262128D01*
X265598Y262128D02*
X276943Y262128D01*
X298617Y262128D02*
X325219Y262128D01*
X344832Y262128D02*
X377967Y262128D01*
X425196Y262128D02*
X425323Y262128D01*
X230918Y268224D02*
X4699Y268224D01*
X246602Y268224D02*
X251238Y268224D01*
X266922Y268224D02*
X316693Y268224D01*
X353359Y268224D02*
X381254Y268224D01*
X425196Y268224D02*
X425323Y268224D01*
X236664Y274320D02*
X4699Y274320D01*
X240856Y274320D02*
X256984Y274320D01*
X261176Y274320D02*
X312672Y274320D01*
X357380Y274320D02*
X381254Y274320D01*
X425196Y274320D02*
X425323Y274320D01*
X310388Y280416D02*
X4699Y280416D01*
X359664Y280416D02*
X381254Y280416D01*
X425196Y280416D02*
X425323Y280416D01*
X126015Y286512D02*
X4699Y286512D01*
X138145Y286512D02*
X193960Y286512D01*
X207360Y286512D02*
X310388Y286512D01*
X359664Y286512D02*
X381254Y286512D01*
X425196Y286512D02*
X425323Y286512D01*
X120963Y292608D02*
X4699Y292608D01*
X139290Y292608D02*
X192908Y292608D01*
X208412Y292608D02*
X311620Y292608D01*
X358432Y292608D02*
X380761Y292608D01*
X425196Y292608D02*
X425323Y292608D01*
X60257Y298704D02*
X4699Y298704D01*
X133545Y298704D02*
X314153Y298704D01*
X355899Y298704D02*
X374665Y298704D01*
X425196Y298704D02*
X425323Y298704D01*
X20923Y304800D02*
X4699Y304800D01*
X24384Y304800D02*
X26416Y304800D01*
X29877Y304800D02*
X54161Y304800D01*
X127449Y304800D02*
X320249Y304800D01*
X349803Y304800D02*
X368569Y304800D01*
X425196Y304800D02*
X425323Y304800D01*
X13656Y310896D02*
X4699Y310896D01*
X24384Y310896D02*
X26416Y310896D01*
X37144Y310896D02*
X48065Y310896D01*
X66743Y310896D02*
X362473Y310896D01*
X425196Y310896D02*
X425323Y310896D01*
X24384Y316992D02*
X4699Y316992D01*
X26416Y316992D02*
X41969Y316992D01*
X60647Y316992D02*
X356377Y316992D01*
X425196Y316992D02*
X425323Y316992D01*
X13139Y323088D02*
X4699Y323088D01*
X54551Y323088D02*
X81112Y323088D01*
X94148Y323088D02*
X118598Y323088D01*
X125242Y323088D02*
X143998Y323088D01*
X150642Y323088D02*
X350281Y323088D01*
X422133Y323088D02*
X425323Y323088D01*
X18679Y329184D02*
X4699Y329184D01*
X48455Y329184D02*
X79788Y329184D01*
X95472Y329184D02*
X114078Y329184D01*
X129762Y329184D02*
X139478Y329184D01*
X155162Y329184D02*
X233695Y329184D01*
X328915Y329184D02*
X344185Y329184D01*
X416037Y329184D02*
X425323Y329184D01*
X13435Y335280D02*
X4699Y335280D01*
X42359Y335280D02*
X60153Y335280D01*
X91231Y335280D02*
X115910Y335280D01*
X127930Y335280D02*
X141310Y335280D01*
X153330Y335280D02*
X227599Y335280D01*
X383286Y335280D02*
X383794Y335280D01*
X412410Y335280D02*
X425323Y335280D01*
X11430Y341376D02*
X4699Y341376D01*
X39370Y341376D02*
X54495Y341376D01*
X96889Y341376D02*
X195884Y341376D01*
X264382Y341376D02*
X294726Y341376D01*
X307254Y341376D02*
X323200Y341376D01*
X383286Y341376D02*
X383794Y341376D01*
X414242Y341376D02*
X425323Y341376D01*
X12173Y347472D02*
X4699Y347472D01*
X38627Y347472D02*
X51970Y347472D01*
X99414Y347472D02*
X197389Y347472D01*
X232649Y347472D02*
X232910Y347472D01*
X263058Y347472D02*
X293885Y347472D01*
X308095Y347472D02*
X371094Y347472D01*
X383286Y347472D02*
X383794Y347472D01*
X409722Y347472D02*
X425323Y347472D01*
X16311Y353568D02*
X4699Y353568D01*
X34489Y353568D02*
X51054Y353568D01*
X100330Y353568D02*
X236533Y353568D01*
X255211Y353568D02*
X294894Y353568D01*
X307086Y353568D02*
X371094Y353568D01*
X383286Y353568D02*
X383794Y353568D01*
X406146Y353568D02*
X425323Y353568D01*
X14279Y359664D02*
X4699Y359664D01*
X36521Y359664D02*
X51128Y359664D01*
X100256Y359664D02*
X233426Y359664D01*
X249115Y359664D02*
X294894Y359664D01*
X307086Y359664D02*
X368315Y359664D01*
X406146Y359664D02*
X425323Y359664D01*
X11430Y365760D02*
X4699Y365760D01*
X39370Y365760D02*
X53653Y365760D01*
X97731Y365760D02*
X233426Y365760D01*
X246634Y365760D02*
X294894Y365760D01*
X307086Y365760D02*
X362219Y365760D01*
X406146Y365760D02*
X425323Y365760D01*
X11752Y371856D02*
X4699Y371856D01*
X39048Y371856D02*
X58121Y371856D01*
X93263Y371856D02*
X233426Y371856D01*
X246634Y371856D02*
X294894Y371856D01*
X307086Y371856D02*
X356123Y371856D01*
X406146Y371856D02*
X425323Y371856D01*
X15295Y377952D02*
X4699Y377952D01*
X35505Y377952D02*
X67725Y377952D01*
X83659Y377952D02*
X233426Y377952D01*
X246634Y377952D02*
X294894Y377952D01*
X307086Y377952D02*
X323516Y377952D01*
X405281Y377952D02*
X425323Y377952D01*
X233426Y384048D02*
X4699Y384048D01*
X246634Y384048D02*
X291861Y384048D01*
X307086Y384048D02*
X323516Y384048D01*
X400384Y384048D02*
X425323Y384048D01*
X233426Y390144D02*
X4699Y390144D01*
X246634Y390144D02*
X285100Y390144D01*
X303007Y390144D02*
X324104Y390144D01*
X348996Y390144D02*
X425323Y390144D01*
X232188Y396240D02*
X4699Y396240D01*
X247872Y396240D02*
X249645Y396240D01*
X348996Y396240D02*
X425323Y396240D01*
X233766Y402336D02*
X4879Y402336D01*
X246294Y402336D02*
X250066Y402336D01*
X348551Y402336D02*
X425143Y402336D01*
X255865Y408432D02*
X6449Y408432D01*
X343139Y408432D02*
X423573Y408432D01*
X420386Y414528D02*
X9636Y414528D01*
X15822Y420624D02*
X414200Y420624D01*
X6096Y45452D02*
X6096Y22676D01*
X6096Y69403D02*
X6096Y407346D01*
X12192Y40156D02*
X12192Y12035D01*
X12192Y70824D02*
X12192Y314837D01*
X12192Y316484D02*
X12192Y318516D01*
X12192Y320163D02*
X12192Y338282D01*
X12192Y347518D02*
X12192Y363682D01*
X12192Y372918D02*
X12192Y417987D01*
X18288Y39771D02*
X18288Y7606D01*
X18288Y73152D02*
X18288Y306027D01*
X18288Y316484D02*
X18288Y318516D01*
X18288Y328973D02*
X18288Y330725D01*
X18288Y355075D02*
X18288Y356125D01*
X18288Y380475D02*
X18288Y422416D01*
X24384Y316484D02*
X24384Y5541D01*
X24384Y382270D02*
X24384Y424481D01*
X30480Y304996D02*
X30480Y4699D01*
X30480Y316484D02*
X30480Y318516D01*
X30480Y381317D02*
X30480Y425323D01*
X36576Y309980D02*
X36576Y4699D01*
X36576Y316484D02*
X36576Y318516D01*
X36576Y351481D02*
X36576Y359719D01*
X36576Y376881D02*
X36576Y425323D01*
X42672Y316289D02*
X42672Y4699D01*
X42672Y334967D02*
X42672Y425323D01*
X48768Y310193D02*
X48768Y4699D01*
X48768Y328871D02*
X48768Y425323D01*
X54864Y304097D02*
X54864Y4699D01*
X54864Y322775D02*
X54864Y340569D01*
X54864Y368599D02*
X54864Y425323D01*
X60960Y298001D02*
X60960Y4699D01*
X60960Y316679D02*
X60960Y334473D01*
X60960Y374695D02*
X60960Y425323D01*
X67056Y232899D02*
X67056Y4699D01*
X67056Y255801D02*
X67056Y295656D01*
X67056Y310583D02*
X67056Y331493D01*
X67056Y377675D02*
X67056Y425323D01*
X73152Y226817D02*
X73152Y4699D01*
X73152Y261883D02*
X73152Y295656D01*
X73152Y308864D02*
X73152Y329946D01*
X73152Y379222D02*
X73152Y425323D01*
X79248Y224292D02*
X79248Y4699D01*
X79248Y264408D02*
X79248Y295656D01*
X79248Y308864D02*
X79248Y329946D01*
X79248Y379222D02*
X79248Y425323D01*
X85344Y223778D02*
X85344Y4699D01*
X85344Y264922D02*
X85344Y295656D01*
X85344Y308864D02*
X85344Y320119D01*
X85344Y377254D02*
X85344Y425323D01*
X91440Y224925D02*
X91440Y4699D01*
X91440Y263775D02*
X91440Y295656D01*
X91440Y308864D02*
X91440Y320750D01*
X91440Y334570D02*
X91440Y335489D01*
X91440Y373679D02*
X91440Y425323D01*
X97536Y166964D02*
X97536Y4699D01*
X97536Y178476D02*
X97536Y228213D01*
X97536Y260487D02*
X97536Y295656D01*
X97536Y308864D02*
X97536Y342938D01*
X97536Y366230D02*
X97536Y425323D01*
X103632Y164878D02*
X103632Y4699D01*
X103632Y180562D02*
X103632Y236588D01*
X103632Y252112D02*
X103632Y295656D01*
X103632Y308864D02*
X103632Y425323D01*
X109728Y168785D02*
X109728Y4699D01*
X109728Y176655D02*
X109728Y295656D01*
X109728Y308864D02*
X109728Y425323D01*
X115824Y295656D02*
X115824Y4699D01*
X115824Y308864D02*
X115824Y325206D01*
X115824Y335194D02*
X115824Y425323D01*
X121920Y86416D02*
X121920Y4699D01*
X121920Y103576D02*
X121920Y212800D01*
X121920Y226620D02*
X121920Y291651D01*
X121920Y308864D02*
X121920Y322358D01*
X121920Y338042D02*
X121920Y425323D01*
X128016Y77171D02*
X128016Y4699D01*
X128016Y112821D02*
X128016Y212169D01*
X128016Y227251D02*
X128016Y284566D01*
X128016Y304233D02*
X128016Y325206D01*
X128016Y335194D02*
X128016Y425323D01*
X134112Y72852D02*
X134112Y4699D01*
X134112Y117140D02*
X134112Y131095D01*
X134112Y140685D02*
X134112Y283725D01*
X134112Y298137D02*
X134112Y425323D01*
X140208Y70358D02*
X140208Y4699D01*
X140208Y119634D02*
X140208Y128548D01*
X140208Y145737D02*
X140208Y326878D01*
X140208Y333522D02*
X140208Y425323D01*
X146304Y70358D02*
X146304Y4699D01*
X146304Y119634D02*
X146304Y132648D01*
X146304Y146904D02*
X146304Y322358D01*
X146304Y338042D02*
X146304Y425323D01*
X152400Y71379D02*
X152400Y4699D01*
X152400Y118613D02*
X152400Y132478D01*
X152400Y152899D02*
X152400Y153101D01*
X152400Y186222D02*
X152400Y324190D01*
X152400Y336210D02*
X152400Y425323D01*
X158496Y73904D02*
X158496Y4699D01*
X158496Y116088D02*
X158496Y132478D01*
X158496Y152899D02*
X158496Y153101D01*
X158496Y186222D02*
X158496Y425323D01*
X164592Y79711D02*
X164592Y4699D01*
X164592Y110281D02*
X164592Y132478D01*
X164592Y152899D02*
X164592Y153101D01*
X164592Y186222D02*
X164592Y233481D01*
X164592Y255219D02*
X164592Y425323D01*
X170688Y134587D02*
X170688Y4699D01*
X170688Y146013D02*
X170688Y148987D01*
X170688Y152899D02*
X170688Y153101D01*
X170688Y157013D02*
X170688Y159987D01*
X170688Y171413D02*
X170688Y172687D01*
X170688Y184113D02*
X170688Y230385D01*
X170688Y258315D02*
X170688Y425323D01*
X176784Y230598D02*
X176784Y4948D01*
X176784Y258102D02*
X176784Y425323D01*
X182880Y233993D02*
X182880Y6623D01*
X182880Y254707D02*
X182880Y425323D01*
X188976Y235216D02*
X188976Y10198D01*
X188976Y253484D02*
X188976Y425323D01*
X195072Y231433D02*
X195072Y16043D01*
X195072Y257267D02*
X195072Y285328D01*
X195072Y296332D02*
X195072Y425323D01*
X201168Y135091D02*
X201168Y22139D01*
X201168Y145509D02*
X201168Y147791D01*
X201168Y158209D02*
X201168Y160491D01*
X201168Y170909D02*
X201168Y173191D01*
X201168Y183609D02*
X201168Y231083D01*
X201168Y243842D02*
X201168Y244858D01*
X201168Y257617D02*
X201168Y282988D01*
X201168Y298672D02*
X201168Y335795D01*
X201168Y350005D02*
X201168Y425323D01*
X207264Y80219D02*
X207264Y28235D01*
X207264Y109773D02*
X207264Y132478D01*
X207264Y186222D02*
X207264Y233801D01*
X207264Y243842D02*
X207264Y244858D01*
X207264Y254899D02*
X207264Y286344D01*
X207264Y295316D02*
X207264Y336636D01*
X207264Y349164D02*
X207264Y425323D01*
X213360Y74123D02*
X213360Y34331D01*
X213360Y115869D02*
X213360Y132478D01*
X213360Y186222D02*
X213360Y336804D01*
X213360Y348996D02*
X213360Y425323D01*
X219456Y71590D02*
X219456Y40427D01*
X219456Y118402D02*
X219456Y132478D01*
X219456Y186222D02*
X219456Y336804D01*
X219456Y348996D02*
X219456Y425323D01*
X225552Y70358D02*
X225552Y46523D01*
X225552Y119634D02*
X225552Y134204D01*
X225552Y184434D02*
X225552Y336804D01*
X225552Y348996D02*
X225552Y425323D01*
X231648Y70358D02*
X231648Y52619D01*
X231648Y119634D02*
X231648Y134204D01*
X231648Y179563D02*
X231648Y263378D01*
X231648Y270022D02*
X231648Y331231D01*
X231648Y348236D02*
X231648Y425323D01*
X237744Y72642D02*
X237744Y58715D01*
X237744Y117350D02*
X237744Y134204D01*
X237744Y173467D02*
X237744Y258858D01*
X237744Y274542D02*
X237744Y325135D01*
X237744Y351711D02*
X237744Y352357D01*
X237744Y405051D02*
X237744Y425323D01*
X243840Y76663D02*
X243840Y64811D01*
X243840Y113329D02*
X243840Y134204D01*
X243840Y174213D02*
X243840Y260690D01*
X243840Y272710D02*
X243840Y324104D01*
X243840Y404420D02*
X243840Y425323D01*
X249936Y85190D02*
X249936Y70907D01*
X249936Y104802D02*
X249936Y134204D01*
X249936Y176252D02*
X249936Y324104D01*
X249936Y358843D02*
X249936Y395538D01*
X249936Y402022D02*
X249936Y425323D01*
X256032Y134204D02*
X256032Y77003D01*
X256032Y175006D02*
X256032Y259474D01*
X256032Y273926D02*
X256032Y324104D01*
X256032Y352747D02*
X256032Y391438D01*
X256032Y408599D02*
X256032Y425323D01*
X262128Y134204D02*
X262128Y83099D01*
X262128Y175006D02*
X262128Y259474D01*
X262128Y273926D02*
X262128Y324104D01*
X262128Y336296D02*
X262128Y337398D01*
X262128Y348402D02*
X262128Y392684D01*
X262128Y411146D02*
X262128Y425323D01*
X268224Y134204D02*
X268224Y89195D01*
X268224Y175006D02*
X268224Y237805D01*
X268224Y250895D02*
X268224Y324104D01*
X268224Y336296D02*
X268224Y392684D01*
X268224Y409900D02*
X268224Y425323D01*
X274320Y134204D02*
X274320Y95291D01*
X274320Y175006D02*
X274320Y228717D01*
X274320Y259983D02*
X274320Y324104D01*
X274320Y336296D02*
X274320Y392684D01*
X274320Y409900D02*
X274320Y425323D01*
X280416Y134204D02*
X280416Y101387D01*
X280416Y175006D02*
X280416Y225133D01*
X280416Y263567D02*
X280416Y324104D01*
X280416Y336296D02*
X280416Y392684D01*
X280416Y409900D02*
X280416Y425323D01*
X286512Y134204D02*
X286512Y107483D01*
X286512Y175006D02*
X286512Y223778D01*
X286512Y264922D02*
X286512Y324104D01*
X286512Y336296D02*
X286512Y387635D01*
X286512Y409900D02*
X286512Y425323D01*
X292608Y134204D02*
X292608Y113579D01*
X292608Y175006D02*
X292608Y224083D01*
X292608Y264617D02*
X292608Y324104D01*
X292608Y336296D02*
X292608Y383301D01*
X292608Y409900D02*
X292608Y425323D01*
X298704Y134204D02*
X298704Y119675D01*
X298704Y175006D02*
X298704Y226608D01*
X298704Y262092D02*
X298704Y324104D01*
X298704Y336296D02*
X298704Y338440D01*
X298704Y409900D02*
X298704Y425323D01*
X304800Y134204D02*
X304800Y125771D01*
X304800Y180071D02*
X304800Y232277D01*
X304800Y256423D02*
X304800Y324104D01*
X304800Y336296D02*
X304800Y339071D01*
X304800Y388351D02*
X304800Y392684D01*
X304800Y409900D02*
X304800Y425323D01*
X310896Y134204D02*
X310896Y131867D01*
X310896Y186167D02*
X310896Y278607D01*
X310896Y290861D02*
X310896Y324104D01*
X310896Y336296D02*
X310896Y392684D01*
X310896Y409900D02*
X310896Y425323D01*
X316992Y267925D02*
X316992Y202915D01*
X316992Y301543D02*
X316992Y324104D01*
X316992Y336296D02*
X316992Y392684D01*
X316992Y409900D02*
X316992Y425323D01*
X323088Y263011D02*
X323088Y207249D01*
X323088Y306457D02*
X323088Y324338D01*
X323088Y341106D02*
X323088Y378984D01*
X323088Y383016D02*
X323088Y392684D01*
X323088Y409900D02*
X323088Y425323D01*
X329184Y260486D02*
X329184Y213345D01*
X329184Y308982D02*
X329184Y329453D01*
X329184Y346432D02*
X329184Y373658D01*
X329184Y409900D02*
X329184Y425323D01*
X335280Y260096D02*
X335280Y219441D01*
X335280Y309372D02*
X335280Y333787D01*
X335280Y344393D02*
X335280Y375697D01*
X335280Y409900D02*
X335280Y425323D01*
X341376Y260696D02*
X341376Y225537D01*
X341376Y308772D02*
X341376Y331774D01*
X341376Y346406D02*
X341376Y373684D01*
X341376Y409479D02*
X341376Y425323D01*
X347472Y263221D02*
X347472Y231633D01*
X347472Y306247D02*
X347472Y325897D01*
X347472Y344901D02*
X347472Y375189D01*
X347472Y404099D02*
X347472Y425323D01*
X353568Y268433D02*
X353568Y237729D01*
X353568Y301035D02*
X353568Y319801D01*
X353568Y346195D02*
X353568Y373895D01*
X353568Y388105D02*
X353568Y425323D01*
X359664Y313705D02*
X359664Y243825D01*
X359664Y345354D02*
X359664Y368315D01*
X359664Y387264D02*
X359664Y425323D01*
X365760Y307609D02*
X365760Y249921D01*
X365760Y345985D02*
X365760Y362219D01*
X365760Y387895D02*
X365760Y425323D01*
X371856Y301513D02*
X371856Y256017D01*
X371856Y387474D02*
X371856Y425323D01*
X377952Y295417D02*
X377952Y262113D01*
X377952Y387684D02*
X377952Y425323D01*
X384048Y425323D02*
X384048Y387684D01*
X390144Y387474D02*
X390144Y425323D01*
X396240Y425323D02*
X396240Y387895D01*
X402336Y380985D02*
X402336Y425143D01*
X408432Y423573D02*
X408432Y348006D01*
X414528Y330693D02*
X414528Y420386D01*
X420624Y414200D02*
X420624Y324597D01*
D13*
X247650Y220980D03*
X140970Y243840D03*
D14*
X185420Y109220D03*
D13*
X147320Y330200D03*
X121920Y330200D03*
X200660Y290830D03*
X406400Y340360D03*
X238760Y266700D03*
X259080Y266700D03*
X102870Y172720D03*
X240030Y344170D03*
X125730Y219710D03*
X87630Y327660D03*
D17*
X75692Y354584D03*
X335026Y284734D03*
X145034Y94996D03*
X227330Y94996D03*
D15*
X66040Y302260D02*
X25400Y342900D01*
X120650Y302260D02*
X132080Y290830D01*
D14*
X132080Y290830D03*
D15*
X120650Y302260D02*
X66040Y302260D01*
D14*
X342900Y339090D03*
X321310Y196850D03*
D16*
X387350Y262890D01*
X387350Y294640D01*
X342900Y339090D01*
D14*
X248920Y168910D03*
D16*
X302260Y168910D01*
X393700Y260350D01*
X393700Y297180D01*
D14*
X355600Y339090D03*
D16*
X355600Y335280D02*
X393700Y297180D01*
X355600Y335280D02*
X355600Y339090D01*
D14*
X368300Y339090D03*
X257810Y162560D03*
D16*
X303530Y162560D01*
X368300Y332740D02*
X368300Y339090D01*
X398780Y257810D02*
X303530Y162560D01*
X398780Y257810D02*
X398780Y302260D01*
X368300Y332740D01*
D14*
X330200Y339090D03*
X203200Y342900D03*
D16*
X228600Y342900D01*
X241300Y330200D01*
X321310Y330200D02*
X330200Y339090D01*
X321310Y330200D02*
X241300Y330200D01*
X224190Y165700D02*
X213300Y165700D01*
X224190Y165700D02*
X238760Y151130D01*
X307340Y151130D01*
X408940Y252730D01*
X408940Y312420D01*
D14*
X368300Y381000D03*
D16*
X389890Y359410D01*
X389890Y331470D02*
X408940Y312420D01*
X389890Y331470D02*
X389890Y359410D01*
X311750Y140300D02*
X213300Y140300D01*
X419100Y247650D02*
X419100Y317500D01*
X419100Y247650D02*
X311750Y140300D01*
D14*
X393700Y381000D03*
D16*
X400050Y374650D01*
X400050Y336550D02*
X419100Y317500D01*
X400050Y336550D02*
X400050Y374650D01*
X309210Y145380D02*
X232350Y145380D01*
X224730Y153000D01*
X213300Y153000D01*
X414020Y250190D02*
X414020Y314960D01*
X414020Y250190D02*
X309210Y145380D01*
D14*
X381000Y381000D03*
D16*
X394970Y367030D01*
X394970Y334010D02*
X414020Y314960D01*
X394970Y334010D02*
X394970Y367030D01*
X224190Y178400D02*
X213300Y178400D01*
X403860Y255270D02*
X403860Y306070D01*
X403860Y255270D02*
X304800Y156210D01*
X246380Y156210D01*
X224190Y178400D01*
D14*
X355600Y381000D03*
D16*
X377190Y359410D01*
X377190Y332740D02*
X403860Y306070D01*
X377190Y332740D02*
X377190Y359410D01*
D14*
X139700Y135890D03*
D15*
X144110Y140300D01*
X159060Y140300D01*
D13*
X240030Y397510D03*
D15*
X240030Y359410D01*
X256540Y342900D01*
D13*
X256540Y342900D03*
D14*
X292100Y392430D03*
D16*
X300990Y383540D01*
X300990Y345440D01*
D14*
X300990Y345440D03*
X256540Y398780D03*
D16*
X327660Y398780D01*
X330200Y396240D02*
X330200Y381000D01*
D14*
X330200Y381000D03*
D16*
X330200Y396240D02*
X327660Y398780D01*
D14*
X261620Y403804D03*
D16*
X339146Y403804D01*
X342900Y400050D02*
X342900Y381000D01*
D14*
X342900Y381000D03*
D16*
X342900Y400050D02*
X339146Y403804D01*
M02*
