G04 EAGLE Gerber RS-274X export*
G75*
%MOMM*%
%FSLAX34Y34*%
%LPD*%
%INBottom Copper*%
%IPPOS*%
%AMOC8*
5,1,8,0,0,1.08239X$1,22.5*%
G01*
%ADD10C,0.177800*%
%ADD11R,1.300000X1.500000*%
%ADD12R,1.500000X1.300000*%
%ADD13R,0.736600X2.794000*%
%ADD14R,1.000000X1.100000*%
%ADD15R,1.100000X1.000000*%
%ADD16C,1.000000*%
%ADD17R,0.533400X1.981200*%
%ADD18R,0.400000X0.500000*%
%ADD19R,1.600000X0.900000*%
%ADD20R,0.800000X1.200000*%
%ADD21C,1.879600*%
%ADD22R,1.150000X0.550000*%
%ADD23R,0.550000X1.150000*%
%ADD24R,0.600000X1.250000*%
%ADD25R,0.304800X0.990600*%
%ADD26R,0.550000X1.200000*%
%ADD27R,0.750000X1.250000*%
%ADD28C,0.406400*%
%ADD29C,0.654000*%
%ADD30C,0.304800*%
%ADD31C,0.554000*%
%ADD32C,0.609600*%
%ADD33C,4.013200*%


D10*
X14436Y34134D02*
X14436Y36462D01*
X14435Y36462D02*
X14433Y36557D01*
X14427Y36652D01*
X14418Y36746D01*
X14404Y36840D01*
X14387Y36934D01*
X14366Y37026D01*
X14341Y37118D01*
X14312Y37208D01*
X14280Y37298D01*
X14244Y37386D01*
X14204Y37472D01*
X14162Y37557D01*
X14115Y37640D01*
X14065Y37721D01*
X14012Y37799D01*
X13956Y37876D01*
X13897Y37950D01*
X13835Y38022D01*
X13770Y38091D01*
X13702Y38158D01*
X13632Y38221D01*
X13558Y38282D01*
X13483Y38340D01*
X13405Y38394D01*
X13325Y38446D01*
X13243Y38494D01*
X13160Y38538D01*
X13074Y38580D01*
X12987Y38617D01*
X12898Y38651D01*
X12808Y38682D01*
X12717Y38709D01*
X12625Y38732D01*
X12532Y38751D01*
X12438Y38766D01*
X12344Y38778D01*
X12249Y38786D01*
X12154Y38790D01*
X12060Y38790D01*
X11965Y38786D01*
X11870Y38778D01*
X11776Y38766D01*
X11682Y38751D01*
X11589Y38732D01*
X11497Y38709D01*
X11406Y38682D01*
X11316Y38651D01*
X11227Y38617D01*
X11140Y38580D01*
X11054Y38538D01*
X10971Y38494D01*
X10889Y38446D01*
X10809Y38394D01*
X10731Y38340D01*
X10656Y38282D01*
X10582Y38221D01*
X10512Y38158D01*
X10444Y38091D01*
X10379Y38022D01*
X10317Y37950D01*
X10258Y37876D01*
X10202Y37799D01*
X10149Y37721D01*
X10099Y37640D01*
X10052Y37557D01*
X10010Y37472D01*
X9970Y37386D01*
X9934Y37298D01*
X9902Y37208D01*
X9873Y37118D01*
X9848Y37026D01*
X9827Y36934D01*
X9810Y36840D01*
X9796Y36746D01*
X9787Y36652D01*
X9781Y36557D01*
X9779Y36462D01*
X9779Y34134D01*
X18161Y34134D01*
X18161Y36462D01*
X18159Y36547D01*
X18153Y36631D01*
X18144Y36716D01*
X18130Y36799D01*
X18113Y36882D01*
X18092Y36965D01*
X18067Y37046D01*
X18039Y37126D01*
X18007Y37204D01*
X17971Y37281D01*
X17932Y37357D01*
X17890Y37430D01*
X17844Y37501D01*
X17795Y37571D01*
X17743Y37638D01*
X17688Y37702D01*
X17630Y37764D01*
X17570Y37824D01*
X17506Y37880D01*
X17441Y37934D01*
X17372Y37984D01*
X17302Y38031D01*
X17230Y38075D01*
X17155Y38116D01*
X17079Y38153D01*
X17001Y38187D01*
X16922Y38217D01*
X16841Y38244D01*
X16760Y38267D01*
X16677Y38286D01*
X16594Y38301D01*
X16510Y38313D01*
X16425Y38321D01*
X16340Y38325D01*
X16256Y38325D01*
X16171Y38321D01*
X16086Y38313D01*
X16002Y38301D01*
X15919Y38286D01*
X15836Y38267D01*
X15755Y38244D01*
X15674Y38217D01*
X15595Y38187D01*
X15517Y38153D01*
X15441Y38116D01*
X15366Y38075D01*
X15294Y38031D01*
X15224Y37984D01*
X15155Y37934D01*
X15090Y37880D01*
X15026Y37824D01*
X14966Y37764D01*
X14908Y37702D01*
X14853Y37638D01*
X14801Y37571D01*
X14752Y37501D01*
X14706Y37430D01*
X14664Y37357D01*
X14625Y37281D01*
X14589Y37204D01*
X14557Y37126D01*
X14529Y37046D01*
X14504Y36965D01*
X14483Y36882D01*
X14466Y36799D01*
X14452Y36716D01*
X14443Y36631D01*
X14437Y36547D01*
X14435Y36462D01*
X15833Y42757D02*
X12107Y42757D01*
X15833Y42757D02*
X15928Y42759D01*
X16023Y42765D01*
X16117Y42774D01*
X16211Y42788D01*
X16305Y42805D01*
X16397Y42826D01*
X16489Y42851D01*
X16579Y42880D01*
X16669Y42912D01*
X16757Y42948D01*
X16843Y42988D01*
X16928Y43030D01*
X17011Y43077D01*
X17092Y43127D01*
X17170Y43180D01*
X17247Y43236D01*
X17321Y43295D01*
X17393Y43357D01*
X17462Y43422D01*
X17529Y43490D01*
X17592Y43560D01*
X17653Y43634D01*
X17711Y43709D01*
X17765Y43787D01*
X17817Y43867D01*
X17865Y43949D01*
X17909Y44032D01*
X17951Y44118D01*
X17988Y44205D01*
X18022Y44294D01*
X18053Y44384D01*
X18080Y44475D01*
X18103Y44567D01*
X18122Y44660D01*
X18137Y44754D01*
X18149Y44848D01*
X18157Y44943D01*
X18161Y45038D01*
X18161Y45132D01*
X18157Y45227D01*
X18149Y45322D01*
X18137Y45416D01*
X18122Y45510D01*
X18103Y45603D01*
X18080Y45695D01*
X18053Y45786D01*
X18022Y45876D01*
X17988Y45965D01*
X17951Y46052D01*
X17909Y46138D01*
X17865Y46221D01*
X17817Y46303D01*
X17765Y46383D01*
X17711Y46461D01*
X17653Y46536D01*
X17592Y46610D01*
X17529Y46680D01*
X17462Y46748D01*
X17393Y46813D01*
X17321Y46875D01*
X17247Y46934D01*
X17170Y46990D01*
X17092Y47043D01*
X17011Y47093D01*
X16928Y47140D01*
X16843Y47182D01*
X16757Y47222D01*
X16669Y47258D01*
X16579Y47290D01*
X16489Y47319D01*
X16397Y47344D01*
X16305Y47365D01*
X16211Y47382D01*
X16117Y47396D01*
X16023Y47405D01*
X15928Y47411D01*
X15833Y47413D01*
X12107Y47413D01*
X12012Y47411D01*
X11917Y47405D01*
X11823Y47396D01*
X11729Y47382D01*
X11635Y47365D01*
X11543Y47344D01*
X11451Y47319D01*
X11361Y47290D01*
X11271Y47258D01*
X11183Y47222D01*
X11097Y47182D01*
X11012Y47140D01*
X10929Y47093D01*
X10848Y47043D01*
X10770Y46990D01*
X10693Y46934D01*
X10619Y46875D01*
X10547Y46813D01*
X10478Y46748D01*
X10411Y46680D01*
X10348Y46610D01*
X10287Y46536D01*
X10229Y46461D01*
X10175Y46383D01*
X10123Y46303D01*
X10075Y46221D01*
X10031Y46138D01*
X9989Y46052D01*
X9952Y45965D01*
X9918Y45876D01*
X9887Y45786D01*
X9860Y45695D01*
X9837Y45603D01*
X9818Y45510D01*
X9803Y45416D01*
X9791Y45322D01*
X9783Y45227D01*
X9779Y45132D01*
X9779Y45038D01*
X9783Y44943D01*
X9791Y44848D01*
X9803Y44754D01*
X9818Y44660D01*
X9837Y44567D01*
X9860Y44475D01*
X9887Y44384D01*
X9918Y44294D01*
X9952Y44205D01*
X9989Y44118D01*
X10031Y44032D01*
X10075Y43949D01*
X10123Y43867D01*
X10175Y43787D01*
X10229Y43709D01*
X10287Y43634D01*
X10348Y43560D01*
X10411Y43490D01*
X10478Y43422D01*
X10547Y43357D01*
X10619Y43295D01*
X10693Y43236D01*
X10770Y43180D01*
X10848Y43127D01*
X10929Y43077D01*
X11012Y43030D01*
X11097Y42988D01*
X11183Y42948D01*
X11271Y42912D01*
X11361Y42880D01*
X11451Y42851D01*
X11543Y42826D01*
X11635Y42805D01*
X11729Y42788D01*
X11823Y42774D01*
X11917Y42765D01*
X12012Y42759D01*
X12107Y42757D01*
X9779Y53619D02*
X18161Y53619D01*
X18161Y51291D02*
X18161Y55948D01*
X18161Y61544D02*
X9779Y61544D01*
X18161Y59216D02*
X18161Y63873D01*
X15833Y67750D02*
X12107Y67750D01*
X15833Y67751D02*
X15928Y67753D01*
X16023Y67759D01*
X16117Y67768D01*
X16211Y67782D01*
X16305Y67799D01*
X16397Y67820D01*
X16489Y67845D01*
X16579Y67874D01*
X16669Y67906D01*
X16757Y67942D01*
X16843Y67982D01*
X16928Y68024D01*
X17011Y68071D01*
X17092Y68121D01*
X17170Y68174D01*
X17247Y68230D01*
X17321Y68289D01*
X17393Y68351D01*
X17462Y68416D01*
X17529Y68484D01*
X17592Y68554D01*
X17653Y68628D01*
X17711Y68703D01*
X17765Y68781D01*
X17817Y68861D01*
X17865Y68943D01*
X17909Y69026D01*
X17951Y69112D01*
X17988Y69199D01*
X18022Y69288D01*
X18053Y69378D01*
X18080Y69469D01*
X18103Y69561D01*
X18122Y69654D01*
X18137Y69748D01*
X18149Y69842D01*
X18157Y69937D01*
X18161Y70032D01*
X18161Y70126D01*
X18157Y70221D01*
X18149Y70316D01*
X18137Y70410D01*
X18122Y70504D01*
X18103Y70597D01*
X18080Y70689D01*
X18053Y70780D01*
X18022Y70870D01*
X17988Y70959D01*
X17951Y71046D01*
X17909Y71132D01*
X17865Y71215D01*
X17817Y71297D01*
X17765Y71377D01*
X17711Y71455D01*
X17653Y71530D01*
X17592Y71604D01*
X17529Y71674D01*
X17462Y71742D01*
X17393Y71807D01*
X17321Y71869D01*
X17247Y71928D01*
X17170Y71984D01*
X17092Y72037D01*
X17011Y72087D01*
X16928Y72134D01*
X16843Y72176D01*
X16757Y72216D01*
X16669Y72252D01*
X16579Y72284D01*
X16489Y72313D01*
X16397Y72338D01*
X16305Y72359D01*
X16211Y72376D01*
X16117Y72390D01*
X16023Y72399D01*
X15928Y72405D01*
X15833Y72407D01*
X12107Y72407D01*
X12012Y72405D01*
X11917Y72399D01*
X11823Y72390D01*
X11729Y72376D01*
X11635Y72359D01*
X11543Y72338D01*
X11451Y72313D01*
X11361Y72284D01*
X11271Y72252D01*
X11183Y72216D01*
X11097Y72176D01*
X11012Y72134D01*
X10929Y72087D01*
X10848Y72037D01*
X10770Y71984D01*
X10693Y71928D01*
X10619Y71869D01*
X10547Y71807D01*
X10478Y71742D01*
X10411Y71674D01*
X10348Y71604D01*
X10287Y71530D01*
X10229Y71455D01*
X10175Y71377D01*
X10123Y71297D01*
X10075Y71215D01*
X10031Y71132D01*
X9989Y71046D01*
X9952Y70959D01*
X9918Y70870D01*
X9887Y70780D01*
X9860Y70689D01*
X9837Y70597D01*
X9818Y70504D01*
X9803Y70410D01*
X9791Y70316D01*
X9783Y70221D01*
X9779Y70126D01*
X9779Y70032D01*
X9783Y69937D01*
X9791Y69842D01*
X9803Y69748D01*
X9818Y69654D01*
X9837Y69561D01*
X9860Y69469D01*
X9887Y69378D01*
X9918Y69288D01*
X9952Y69199D01*
X9989Y69112D01*
X10031Y69026D01*
X10075Y68943D01*
X10123Y68861D01*
X10175Y68781D01*
X10229Y68703D01*
X10287Y68628D01*
X10348Y68554D01*
X10411Y68484D01*
X10478Y68416D01*
X10547Y68351D01*
X10619Y68289D01*
X10693Y68230D01*
X10770Y68174D01*
X10848Y68121D01*
X10929Y68071D01*
X11012Y68024D01*
X11097Y67982D01*
X11183Y67942D01*
X11271Y67906D01*
X11361Y67874D01*
X11451Y67845D01*
X11543Y67820D01*
X11635Y67799D01*
X11729Y67782D01*
X11823Y67768D01*
X11917Y67759D01*
X12012Y67753D01*
X12107Y67751D01*
X9779Y77343D02*
X18161Y77343D01*
X13504Y80137D01*
X18161Y82931D01*
X9779Y82931D01*
D11*
X281330Y294640D03*
X300330Y294640D03*
D12*
X247650Y252070D03*
X247650Y233070D03*
D11*
X74270Y317500D03*
X55270Y317500D03*
D12*
X125730Y234340D03*
X125730Y253340D03*
D11*
X89510Y184150D03*
X70510Y184150D03*
X89510Y162560D03*
X70510Y162560D03*
D13*
X406400Y360680D03*
X406400Y401320D03*
X393700Y360680D03*
X393700Y401320D03*
X381000Y360680D03*
X381000Y401320D03*
X368300Y360680D03*
X368300Y401320D03*
X355600Y360680D03*
X355600Y401320D03*
X342900Y360680D03*
X342900Y401320D03*
X330200Y360680D03*
X330200Y401320D03*
X317500Y360680D03*
X317500Y401320D03*
D14*
X66430Y397510D03*
X83430Y397510D03*
D15*
X354330Y253610D03*
X354330Y236610D03*
X184150Y75810D03*
X184150Y58810D03*
D16*
X25400Y406400D03*
X304800Y152400D03*
D17*
X121920Y408813D03*
X134620Y408813D03*
X147320Y408813D03*
X160020Y408813D03*
X172720Y408813D03*
X185420Y408813D03*
X198120Y408813D03*
X210820Y408813D03*
X210820Y315087D03*
X198120Y315087D03*
X185420Y315087D03*
X172720Y315087D03*
X160020Y315087D03*
X147320Y315087D03*
X134620Y315087D03*
X121920Y315087D03*
D18*
X178920Y291440D03*
X185420Y291440D03*
X191920Y291440D03*
X191920Y272440D03*
X185420Y272440D03*
X178920Y272440D03*
D19*
X185420Y281940D03*
D20*
G36*
X224948Y263597D02*
X230605Y257940D01*
X222120Y249455D01*
X216463Y255112D01*
X224948Y263597D01*
G37*
G36*
X212220Y276325D02*
X217877Y270668D01*
X209392Y262183D01*
X203735Y267840D01*
X212220Y276325D01*
G37*
D21*
X173480Y244350D03*
X198880Y244350D03*
D20*
G36*
X217877Y218282D02*
X212220Y212625D01*
X203735Y221110D01*
X209392Y226767D01*
X217877Y218282D01*
G37*
G36*
X230605Y231010D02*
X224948Y225353D01*
X216463Y233838D01*
X222120Y239495D01*
X230605Y231010D01*
G37*
X177690Y209550D03*
X195690Y209550D03*
G36*
X148432Y225353D02*
X142775Y231010D01*
X151260Y239495D01*
X156917Y233838D01*
X148432Y225353D01*
G37*
G36*
X161160Y212625D02*
X155503Y218282D01*
X163988Y226767D01*
X169645Y221110D01*
X161160Y212625D01*
G37*
G36*
X155503Y270668D02*
X161160Y276325D01*
X169645Y267840D01*
X163988Y262183D01*
X155503Y270668D01*
G37*
G36*
X142775Y257940D02*
X148432Y263597D01*
X156917Y255112D01*
X151260Y249455D01*
X142775Y257940D01*
G37*
D22*
G36*
X245897Y207572D02*
X254028Y199441D01*
X250139Y195552D01*
X242008Y203683D01*
X245897Y207572D01*
G37*
G36*
X240240Y201916D02*
X248371Y193785D01*
X244482Y189896D01*
X236351Y198027D01*
X240240Y201916D01*
G37*
G36*
X226805Y215351D02*
X234936Y207220D01*
X231047Y203331D01*
X222916Y211462D01*
X226805Y215351D01*
G37*
G36*
X232462Y221008D02*
X240593Y212877D01*
X236704Y208988D01*
X228573Y217119D01*
X232462Y221008D01*
G37*
D23*
X190500Y170840D03*
X182500Y170840D03*
X182500Y189840D03*
X190500Y189840D03*
D22*
G36*
X137723Y197333D02*
X129592Y189202D01*
X125703Y193091D01*
X133834Y201222D01*
X137723Y197333D01*
G37*
G36*
X132066Y202990D02*
X123935Y194859D01*
X120046Y198748D01*
X128177Y206879D01*
X132066Y202990D01*
G37*
G36*
X145501Y216425D02*
X137370Y208294D01*
X133481Y212183D01*
X141612Y220314D01*
X145501Y216425D01*
G37*
G36*
X151158Y210769D02*
X143027Y202638D01*
X139138Y206527D01*
X147269Y214658D01*
X151158Y210769D01*
G37*
X116230Y274320D03*
X116230Y282320D03*
X135230Y282320D03*
X135230Y274320D03*
D14*
X272170Y196850D03*
X289170Y196850D03*
X190890Y146050D03*
X207890Y146050D03*
D15*
X132080Y172330D03*
X132080Y155330D03*
X91440Y283600D03*
X91440Y300600D03*
D21*
X25400Y342900D03*
X25400Y317500D03*
X25400Y368300D03*
D24*
X376580Y321110D03*
X386080Y321110D03*
X395580Y321110D03*
X395580Y296110D03*
X376580Y296110D03*
D14*
X386470Y276860D03*
X403470Y276860D03*
D15*
X414020Y320920D03*
X414020Y303920D03*
D25*
X233640Y413988D03*
X240140Y413988D03*
X246640Y413988D03*
X253140Y413988D03*
X259640Y413988D03*
X266140Y413988D03*
X272640Y413988D03*
X279140Y413988D03*
X279140Y355632D03*
X272640Y355632D03*
X266140Y355632D03*
X259640Y355632D03*
X253140Y355632D03*
X246640Y355632D03*
X240140Y355632D03*
X233640Y355632D03*
X285640Y413988D03*
X292140Y413988D03*
X285640Y355632D03*
X292140Y355632D03*
D15*
X127880Y135890D03*
X110880Y135890D03*
D11*
X257150Y328930D03*
X238150Y328930D03*
D26*
X258420Y279099D03*
X248920Y279099D03*
X239420Y279099D03*
X239420Y305101D03*
X258420Y305101D03*
D15*
X314080Y327660D03*
X331080Y327660D03*
X295910Y317890D03*
X295910Y334890D03*
D27*
X278130Y318390D03*
X278130Y334390D03*
D28*
X185420Y330200D02*
X185420Y315087D01*
D29*
X185420Y330200D03*
D28*
X185420Y281940D02*
X200660Y281940D01*
D29*
X200660Y281940D03*
D28*
X185420Y281940D02*
X185420Y291440D01*
X210820Y393700D02*
X210820Y408813D01*
D29*
X210820Y393700D03*
D28*
X406400Y401320D02*
X406400Y381000D01*
D29*
X406400Y381000D03*
X383540Y335280D03*
D28*
X386080Y332740D01*
X386080Y321110D01*
D30*
X250190Y188076D02*
X242361Y195906D01*
X250190Y188076D02*
X250190Y187960D01*
D31*
X250190Y187960D03*
X182880Y160020D03*
D30*
X182500Y160400D02*
X182500Y170840D01*
X182500Y160400D02*
X182880Y160020D01*
D31*
X118110Y193040D03*
D30*
X118226Y193040D02*
X126056Y200869D01*
X118226Y193040D02*
X118110Y193040D01*
D31*
X105410Y283210D03*
D30*
X106300Y282320D02*
X116230Y282320D01*
X106300Y282320D02*
X105410Y283210D01*
D29*
X337820Y236220D03*
D28*
X353940Y236220D02*
X354330Y236610D01*
X353940Y236220D02*
X337820Y236220D01*
D29*
X184150Y46990D03*
D32*
X184150Y58810D01*
D29*
X95250Y397510D03*
D32*
X83430Y397510D01*
D31*
X342900Y327660D03*
D28*
X331080Y327660D01*
D31*
X144780Y152400D03*
X99060Y135890D03*
D28*
X110880Y135890D01*
D29*
X248920Y292100D03*
D28*
X248920Y279099D01*
D29*
X248920Y266700D03*
D28*
X248920Y279099D01*
D29*
X292100Y345440D03*
D30*
X292100Y355592D02*
X292140Y355632D01*
X292100Y355592D02*
X292100Y345440D01*
D29*
X223520Y330200D03*
D28*
X224790Y328930D02*
X238150Y328930D01*
X224790Y328930D02*
X223520Y330200D01*
D29*
X311150Y306070D03*
D32*
X311150Y305460D02*
X300330Y294640D01*
X311150Y305460D02*
X311150Y306070D01*
D29*
X55880Y172720D03*
D32*
X59690Y184150D02*
X70510Y184150D01*
X55880Y180340D02*
X55880Y172720D01*
X55880Y180340D02*
X59690Y184150D01*
X58420Y162560D02*
X70510Y162560D01*
X55880Y165100D02*
X55880Y172720D01*
X55880Y165100D02*
X58420Y162560D01*
D30*
X173356Y286038D02*
X172348Y287046D01*
X173356Y286038D02*
X173356Y282666D01*
X184694Y282666D01*
X184694Y281214D01*
X173895Y281214D01*
X154189Y300921D01*
X153191Y301919D01*
X153670Y302398D01*
X155459Y300609D01*
X164581Y300609D01*
X166370Y302398D01*
X168159Y300609D01*
X172728Y300609D01*
X172316Y299614D01*
X172316Y290126D01*
X172348Y290049D01*
X172348Y287046D01*
X68986Y182626D02*
X68986Y174124D01*
X68986Y182626D02*
X72034Y182626D01*
X72034Y164084D01*
X68986Y164084D01*
X68986Y174124D01*
X386080Y321110D02*
X386080Y331424D01*
X386080Y321110D02*
X386080Y321110D01*
X386080Y331424D01*
X382676Y331424D01*
X382676Y337225D01*
X386168Y340717D01*
X386884Y342445D01*
X387350Y342911D01*
X387604Y342657D01*
X387604Y339147D01*
X388532Y336907D01*
X389484Y335955D01*
X389484Y331424D01*
X386080Y331424D01*
X340644Y322125D02*
X340426Y321310D01*
X340644Y322125D02*
X340644Y326684D01*
X332056Y326684D01*
X332056Y328636D01*
X340644Y328636D01*
X340644Y332078D01*
X341440Y331748D01*
X344360Y331748D01*
X347059Y332866D01*
X349124Y334931D01*
X349250Y335235D01*
X349376Y334931D01*
X351441Y332866D01*
X354140Y331748D01*
X357060Y331748D01*
X359759Y332866D01*
X361824Y334931D01*
X361950Y335235D01*
X362076Y334931D01*
X364141Y332866D01*
X366840Y331748D01*
X369760Y331748D01*
X370484Y332048D01*
X370484Y330730D01*
X369008Y329254D01*
X369008Y312966D01*
X370484Y311490D01*
X370484Y309277D01*
X371412Y307037D01*
X371602Y306847D01*
X369870Y305116D01*
X354836Y320150D01*
X352036Y321310D01*
X349004Y321310D01*
X340426Y321310D01*
X213374Y115883D02*
X206443Y108952D01*
X203818Y102616D01*
X190000Y102616D01*
X187200Y101456D01*
X184150Y98406D01*
X183244Y99312D01*
X183244Y99312D01*
X181100Y101456D01*
X178300Y102616D01*
X168546Y102616D01*
X165921Y108952D01*
X158990Y115883D01*
X153614Y118110D01*
X218750Y118110D01*
X213374Y115883D01*
X314139Y298690D02*
X321070Y305621D01*
X314139Y298690D02*
X310894Y290856D01*
X310894Y293116D01*
X301854Y293116D01*
X301854Y296164D01*
X310894Y296164D01*
X310894Y302675D01*
X310617Y303709D01*
X310082Y304635D01*
X309325Y305392D01*
X308399Y305927D01*
X307365Y306204D01*
X301854Y306204D01*
X301854Y296164D01*
X298806Y296164D01*
X298806Y306204D01*
X293295Y306204D01*
X292261Y305927D01*
X291335Y305392D01*
X291189Y305247D01*
X289724Y306712D01*
X272936Y306712D01*
X270258Y304034D01*
X270258Y286719D01*
X265742Y286719D01*
X265742Y286993D01*
X263064Y289671D01*
X253776Y289671D01*
X253044Y288938D01*
X252205Y289163D01*
X248920Y289163D01*
X248920Y279099D01*
X248920Y279099D01*
X248920Y289163D01*
X245635Y289163D01*
X244796Y288938D01*
X244064Y289671D01*
X234776Y289671D01*
X232098Y286993D01*
X232098Y271205D01*
X232137Y271167D01*
X232112Y271142D01*
X230918Y268260D01*
X230918Y265140D01*
X231658Y263353D01*
X226842Y268169D01*
X223054Y268169D01*
X211891Y257006D01*
X211891Y253218D01*
X215914Y249195D01*
X215914Y239755D01*
X211891Y235732D01*
X211891Y231944D01*
X216930Y226905D01*
X216930Y226300D01*
X216325Y226300D01*
X211286Y231339D01*
X207498Y231339D01*
X199163Y223004D01*
X199163Y220122D01*
X189796Y220122D01*
X187118Y217444D01*
X187118Y210317D01*
X186690Y209889D01*
X186262Y210317D01*
X186262Y217444D01*
X183584Y220122D01*
X174217Y220122D01*
X174217Y223004D01*
X165882Y231339D01*
X162094Y231339D01*
X157055Y226300D01*
X156450Y226300D01*
X156450Y226905D01*
X161489Y231944D01*
X161489Y235732D01*
X157466Y239755D01*
X157466Y249195D01*
X161489Y253218D01*
X161489Y257006D01*
X150326Y268169D01*
X147542Y268169D01*
X145552Y270160D01*
X145552Y275716D01*
X146772Y275716D01*
X150931Y271558D01*
X150931Y268774D01*
X162094Y257611D01*
X163441Y257611D01*
X165213Y255839D01*
X161637Y252263D01*
X159510Y247129D01*
X159510Y241571D01*
X161637Y236437D01*
X165567Y232507D01*
X170701Y230380D01*
X176259Y230380D01*
X181393Y232507D01*
X185323Y236437D01*
X186435Y239122D01*
X187366Y237294D01*
X188612Y235580D01*
X190110Y234082D01*
X191824Y232836D01*
X193712Y231874D01*
X195728Y231219D01*
X197821Y230888D01*
X198372Y230888D01*
X198372Y243842D01*
X199388Y243842D01*
X199388Y230888D01*
X199939Y230888D01*
X202032Y231219D01*
X204048Y231874D01*
X205936Y232836D01*
X207650Y234082D01*
X209148Y235580D01*
X210394Y237294D01*
X211356Y239182D01*
X212011Y241198D01*
X212342Y243291D01*
X212342Y243842D01*
X199388Y243842D01*
X199388Y244858D01*
X212342Y244858D01*
X212342Y245409D01*
X212011Y247502D01*
X211356Y249518D01*
X210394Y251406D01*
X209148Y253120D01*
X207650Y254618D01*
X205936Y255864D01*
X204048Y256826D01*
X202032Y257481D01*
X199939Y257812D01*
X199388Y257812D01*
X199388Y244858D01*
X198372Y244858D01*
X198372Y257812D01*
X197821Y257812D01*
X195728Y257481D01*
X193712Y256826D01*
X191824Y255864D01*
X190110Y254618D01*
X188612Y253120D01*
X187366Y251406D01*
X186435Y249578D01*
X185323Y252263D01*
X182568Y255019D01*
X191019Y263469D01*
X191805Y265368D01*
X195814Y265368D01*
X196282Y265836D01*
X199273Y265836D01*
X207498Y257611D01*
X211286Y257611D01*
X222449Y268774D01*
X222449Y272562D01*
X214114Y280897D01*
X210326Y280897D01*
X208473Y279044D01*
X197484Y279044D01*
X197484Y281214D01*
X186146Y281214D01*
X186146Y282666D01*
X197484Y282666D01*
X197484Y283657D01*
X199100Y282988D01*
X202220Y282988D01*
X205102Y284182D01*
X207308Y286388D01*
X208502Y289270D01*
X208502Y292390D01*
X208201Y293116D01*
X209594Y293116D01*
X212021Y294121D01*
X214561Y296661D01*
X214561Y296661D01*
X216419Y298519D01*
X217424Y300946D01*
X217424Y302652D01*
X218059Y303287D01*
X218059Y326887D01*
X215381Y329565D01*
X206259Y329565D01*
X204470Y327776D01*
X202681Y329565D01*
X193559Y329565D01*
X191392Y327397D01*
X191339Y327488D01*
X190582Y328245D01*
X189656Y328780D01*
X188622Y329057D01*
X185420Y329057D01*
X185420Y315087D01*
X185420Y315087D01*
X185420Y329057D01*
X182218Y329057D01*
X181184Y328780D01*
X180258Y328245D01*
X179501Y327488D01*
X179448Y327397D01*
X177281Y329565D01*
X168159Y329565D01*
X166370Y327776D01*
X164581Y329565D01*
X155459Y329565D01*
X155162Y329268D01*
X155162Y331760D01*
X153968Y334642D01*
X151806Y336804D01*
X198913Y336804D01*
X199041Y336676D01*
X201740Y335558D01*
X204660Y335558D01*
X207359Y336676D01*
X209424Y338741D01*
X210542Y341440D01*
X210542Y344360D01*
X209424Y347059D01*
X207359Y349124D01*
X204660Y350242D01*
X201740Y350242D01*
X199041Y349124D01*
X198913Y348996D01*
X113087Y348996D01*
X110847Y348068D01*
X109132Y346353D01*
X94455Y331676D01*
X94278Y332102D01*
X92072Y334308D01*
X90790Y334839D01*
X96579Y340628D01*
X100330Y349683D01*
X100330Y359485D01*
X96579Y368540D01*
X89648Y375471D01*
X80593Y379222D01*
X74050Y379222D01*
X74050Y388164D01*
X75289Y389403D01*
X75935Y388758D01*
X76861Y388223D01*
X77895Y387946D01*
X82454Y387946D01*
X82454Y396534D01*
X84406Y396534D01*
X84406Y387946D01*
X88965Y387946D01*
X89999Y388223D01*
X90925Y388758D01*
X91682Y389515D01*
X92217Y390441D01*
X92494Y391475D01*
X92494Y396534D01*
X84406Y396534D01*
X84406Y398486D01*
X92494Y398486D01*
X92494Y402336D01*
X114681Y402336D01*
X114681Y397013D01*
X115824Y395870D01*
X115824Y373437D01*
X116752Y371197D01*
X123102Y364847D01*
X123102Y364847D01*
X124817Y363132D01*
X127057Y362204D01*
X227345Y362204D01*
X227544Y362005D01*
X227544Y348785D01*
X230222Y346107D01*
X232344Y346107D01*
X232188Y345730D01*
X232188Y342610D01*
X233065Y340494D01*
X231115Y340494D01*
X230081Y340217D01*
X229155Y339682D01*
X228398Y338925D01*
X227863Y337999D01*
X227586Y336965D01*
X227586Y330454D01*
X236626Y330454D01*
X236626Y327406D01*
X227586Y327406D01*
X227586Y320895D01*
X227863Y319861D01*
X228398Y318935D01*
X229155Y318178D01*
X230081Y317643D01*
X231115Y317366D01*
X236626Y317366D01*
X236626Y327406D01*
X239674Y327406D01*
X239674Y317366D01*
X245185Y317366D01*
X246219Y317643D01*
X247145Y318178D01*
X247291Y318323D01*
X248756Y316858D01*
X251816Y316858D01*
X251816Y313713D01*
X251098Y312995D01*
X251098Y297207D01*
X253776Y294529D01*
X263064Y294529D01*
X265742Y297207D01*
X265742Y310896D01*
X269808Y310896D01*
X269808Y310246D01*
X272486Y307568D01*
X283774Y307568D01*
X286452Y310246D01*
X286452Y310382D01*
X288516Y308318D01*
X303304Y308318D01*
X303890Y308904D01*
X305564Y307230D01*
X308364Y306070D01*
X322154Y306070D01*
X321070Y305621D01*
X232098Y312995D02*
X232098Y297207D01*
X234776Y294529D01*
X244064Y294529D01*
X246742Y297207D01*
X246742Y312995D01*
X244064Y315673D01*
X234776Y315673D01*
X232098Y312995D01*
X355306Y237586D02*
X355306Y235634D01*
X355306Y237586D02*
X363894Y237586D01*
X363894Y242145D01*
X363617Y243179D01*
X363082Y244105D01*
X362437Y244751D01*
X364402Y246716D01*
X364402Y260504D01*
X361950Y262956D01*
X361950Y266946D01*
X360790Y269746D01*
X358646Y271890D01*
X357039Y273497D01*
X359664Y279833D01*
X359664Y289635D01*
X356740Y296694D01*
X363784Y289650D01*
X366584Y288490D01*
X368960Y288490D01*
X368960Y265794D01*
X370120Y262994D01*
X372110Y261004D01*
X372110Y245726D01*
X362018Y235634D01*
X355306Y235634D01*
X325469Y203074D02*
X322770Y204192D01*
X319850Y204192D01*
X317151Y203074D01*
X317023Y202946D01*
X298742Y202946D01*
X298742Y204244D01*
X296064Y206922D01*
X282276Y206922D01*
X280670Y205316D01*
X279064Y206922D01*
X265276Y206922D01*
X262598Y204244D01*
X262598Y202946D01*
X256989Y202946D01*
X247790Y212145D01*
X245165Y212145D01*
X245165Y214770D01*
X234355Y225580D01*
X233340Y225580D01*
X232490Y226429D01*
X235177Y229116D01*
X235177Y232904D01*
X231154Y236927D01*
X231154Y252023D01*
X234756Y255625D01*
X235019Y255361D01*
X235578Y254803D01*
X235578Y243676D01*
X237043Y242211D01*
X236898Y242065D01*
X236363Y241139D01*
X236086Y240105D01*
X236086Y234594D01*
X246126Y234594D01*
X246126Y231546D01*
X236086Y231546D01*
X236086Y226035D01*
X236363Y225001D01*
X236898Y224075D01*
X237655Y223318D01*
X238581Y222783D01*
X239615Y222506D01*
X246126Y222506D01*
X246126Y231546D01*
X249174Y231546D01*
X249174Y222506D01*
X255685Y222506D01*
X256719Y222783D01*
X257645Y223318D01*
X258402Y224075D01*
X258937Y225001D01*
X259214Y226035D01*
X259214Y231546D01*
X249174Y231546D01*
X249174Y234594D01*
X259214Y234594D01*
X259214Y240105D01*
X258937Y241139D01*
X258402Y242065D01*
X258257Y242211D01*
X259722Y243676D01*
X259722Y258858D01*
X260640Y258858D01*
X263522Y260052D01*
X265728Y262258D01*
X266922Y265140D01*
X266922Y268260D01*
X265728Y271142D01*
X265703Y271167D01*
X265742Y271205D01*
X265742Y271479D01*
X275535Y271479D01*
X278335Y272639D01*
X287790Y282094D01*
X287986Y282568D01*
X289724Y282568D01*
X291189Y284033D01*
X291335Y283888D01*
X292261Y283353D01*
X293295Y283076D01*
X298806Y283076D01*
X298806Y293116D01*
X301854Y293116D01*
X301854Y283076D01*
X307365Y283076D01*
X308399Y283353D01*
X309325Y283888D01*
X310082Y284645D01*
X310388Y285175D01*
X310388Y279833D01*
X314139Y270778D01*
X321070Y263847D01*
X330125Y260096D01*
X339927Y260096D01*
X346263Y262721D01*
X346369Y262615D01*
X344258Y260504D01*
X344258Y246716D01*
X346223Y244751D01*
X345578Y244105D01*
X345043Y243179D01*
X344766Y242145D01*
X344766Y237586D01*
X353354Y237586D01*
X353354Y235634D01*
X344766Y235634D01*
X344766Y231075D01*
X345043Y230041D01*
X345578Y229115D01*
X346335Y228358D01*
X347261Y227823D01*
X348295Y227546D01*
X353354Y227546D01*
X353354Y235634D01*
X355306Y235634D01*
X355306Y228922D01*
X327463Y201080D01*
X325469Y203074D01*
X308352Y240258D02*
X308352Y248442D01*
X305220Y256003D01*
X299433Y261790D01*
X291872Y264922D01*
X283688Y264922D01*
X276127Y261790D01*
X270340Y256003D01*
X267208Y248442D01*
X267208Y240258D01*
X270340Y232697D01*
X276127Y226910D01*
X283688Y223778D01*
X291872Y223778D01*
X299433Y226910D01*
X305220Y232697D01*
X308352Y240258D01*
X259089Y155218D02*
X237221Y133350D01*
X259089Y155218D02*
X259270Y155218D01*
X261969Y156336D01*
X264034Y158401D01*
X265152Y161100D01*
X265152Y164020D01*
X264034Y166719D01*
X261969Y168784D01*
X259270Y169902D01*
X256350Y169902D01*
X256262Y169866D01*
X256262Y170370D01*
X255144Y173069D01*
X253079Y175134D01*
X250380Y176252D01*
X247460Y176252D01*
X244761Y175134D01*
X242696Y173069D01*
X241578Y170370D01*
X241578Y170189D01*
X223535Y152146D01*
X217462Y152146D01*
X217462Y153444D01*
X214784Y156122D01*
X200996Y156122D01*
X199390Y154516D01*
X197784Y156122D01*
X197494Y156122D01*
X197494Y162868D01*
X197822Y163196D01*
X197822Y178484D01*
X195966Y180340D01*
X197822Y182196D01*
X197822Y197484D01*
X197104Y198202D01*
X197104Y198978D01*
X201584Y198978D01*
X204262Y201656D01*
X204262Y202794D01*
X204976Y203090D01*
X207120Y205234D01*
X210133Y208247D01*
X210326Y208053D01*
X214114Y208053D01*
X217494Y211433D01*
X218343Y210584D01*
X218343Y209568D01*
X229153Y198758D01*
X232339Y198758D01*
X232286Y198562D01*
X232286Y197492D01*
X232563Y196458D01*
X233098Y195532D01*
X237542Y191088D01*
X242360Y195906D01*
X242361Y195905D01*
X237543Y191087D01*
X241987Y186643D01*
X242913Y186108D01*
X243947Y185831D01*
X245017Y185831D01*
X246051Y186108D01*
X246977Y186643D01*
X249300Y188966D01*
X242361Y195905D01*
X242361Y195906D01*
X249300Y188966D01*
X251214Y190880D01*
X251517Y190754D01*
X262598Y190754D01*
X262598Y189456D01*
X265276Y186778D01*
X279064Y186778D01*
X280670Y188384D01*
X282276Y186778D01*
X296064Y186778D01*
X298742Y189456D01*
X298742Y190754D01*
X317023Y190754D01*
X317080Y190697D01*
X259734Y133350D01*
X237221Y133350D01*
X286452Y342398D02*
X288516Y344462D01*
X286452Y342534D02*
X286452Y342398D01*
X286452Y342534D02*
X283774Y345212D01*
X272486Y345212D01*
X269808Y342534D01*
X269808Y324104D01*
X268222Y324104D01*
X268222Y338324D01*
X265544Y341002D01*
X264242Y341002D01*
X264382Y341340D01*
X264382Y344460D01*
X263700Y346107D01*
X289058Y346107D01*
X289675Y346724D01*
X290081Y346615D01*
X292140Y346615D01*
X292140Y355632D01*
X292140Y355632D01*
X292140Y346615D01*
X293648Y346615D01*
X293648Y344462D01*
X288516Y344462D01*
X309245Y344816D02*
X309245Y354584D01*
X309245Y344816D02*
X311923Y342138D01*
X323077Y342138D01*
X323826Y342887D01*
X322858Y340550D01*
X322858Y337630D01*
X323476Y336138D01*
X323085Y335912D01*
X322939Y335767D01*
X321474Y337232D01*
X313129Y337232D01*
X312018Y338343D01*
X310303Y340058D01*
X308063Y340986D01*
X307086Y340986D01*
X307086Y341153D01*
X307214Y341281D01*
X308332Y343980D01*
X308332Y346900D01*
X307214Y349599D01*
X305149Y351664D01*
X302450Y352782D01*
X299530Y352782D01*
X297728Y352036D01*
X297728Y355632D01*
X292140Y355632D01*
X292140Y355632D01*
X297728Y355632D01*
X297728Y359131D01*
X301347Y355512D01*
X303587Y354584D01*
X306013Y354584D01*
X309245Y354584D01*
X142226Y252023D02*
X138203Y256046D01*
X142226Y252023D02*
X142226Y236927D01*
X138203Y232904D01*
X138203Y229116D01*
X141583Y225736D01*
X140734Y224887D01*
X139718Y224887D01*
X133572Y218740D01*
X133572Y221270D01*
X132744Y223268D01*
X135124Y223268D01*
X137802Y225946D01*
X137802Y242734D01*
X136337Y244199D01*
X136482Y244345D01*
X137017Y245271D01*
X137294Y246305D01*
X137294Y251816D01*
X127254Y251816D01*
X127254Y254864D01*
X137294Y254864D01*
X137294Y259739D01*
X138203Y258830D01*
X138203Y256046D01*
X114078Y331760D02*
X115272Y334642D01*
X114078Y331760D02*
X114078Y328640D01*
X114768Y326974D01*
X114681Y326887D01*
X114681Y303287D01*
X117359Y300609D01*
X126481Y300609D01*
X128016Y302144D01*
X128016Y299676D01*
X128929Y297472D01*
X127921Y297054D01*
X125856Y294989D01*
X124738Y292290D01*
X124738Y289370D01*
X125492Y287548D01*
X125334Y287389D01*
X125232Y287565D01*
X124475Y288322D01*
X123549Y288857D01*
X122515Y289134D01*
X116230Y289134D01*
X116230Y282320D01*
X116230Y282320D01*
X116230Y289134D01*
X109945Y289134D01*
X108911Y288857D01*
X107985Y288322D01*
X107228Y287565D01*
X106693Y286639D01*
X106416Y285605D01*
X106416Y282320D01*
X116230Y282320D01*
X116230Y282320D01*
X106416Y282320D01*
X106416Y281055D01*
X101512Y285959D01*
X101512Y290494D01*
X99906Y292100D01*
X101512Y293706D01*
X101512Y307494D01*
X98834Y310172D01*
X97536Y310172D01*
X97536Y317515D01*
X116825Y336804D01*
X117434Y336804D01*
X115272Y334642D01*
X142152Y162224D02*
X142152Y153879D01*
X142152Y162224D02*
X140546Y163830D01*
X142152Y165436D01*
X142152Y179224D01*
X139474Y181902D01*
X138684Y181902D01*
X138684Y191829D01*
X142295Y195440D01*
X142295Y198065D01*
X144920Y198065D01*
X155730Y208875D01*
X155730Y209890D01*
X156579Y210740D01*
X159266Y208053D01*
X163054Y208053D01*
X163247Y208247D01*
X166260Y205234D01*
X168404Y203090D01*
X169118Y202794D01*
X169118Y201656D01*
X171796Y198978D01*
X175896Y198978D01*
X175896Y198202D01*
X175178Y197484D01*
X175178Y182196D01*
X177431Y179944D01*
X177255Y179842D01*
X176498Y179085D01*
X175963Y178159D01*
X175686Y177125D01*
X175686Y170840D01*
X182500Y170840D01*
X182500Y170840D01*
X175686Y170840D01*
X175686Y164555D01*
X175963Y163521D01*
X176498Y162595D01*
X177255Y161838D01*
X178181Y161303D01*
X179215Y161026D01*
X182500Y161026D01*
X182500Y170840D01*
X182500Y170840D01*
X182500Y161026D01*
X184286Y161026D01*
X184286Y156122D01*
X183996Y156122D01*
X181318Y153444D01*
X181318Y140716D01*
X155315Y140716D01*
X142152Y153879D01*
X248920Y269035D02*
X248920Y279099D01*
X248920Y279099D01*
X248920Y269035D01*
X251559Y269035D01*
X251238Y268260D01*
X251238Y265140D01*
X252066Y263142D01*
X245917Y263142D01*
X245816Y263243D01*
X246602Y265140D01*
X246602Y268260D01*
X246281Y269035D01*
X248920Y269035D01*
X416445Y237434D02*
X417821Y238792D01*
X416445Y237434D02*
X416445Y237417D01*
X192605Y13577D01*
X192588Y13577D01*
X191230Y12201D01*
X191219Y12190D01*
X188756Y10003D01*
X183081Y6678D01*
X176739Y4935D01*
X173453Y4699D01*
X29972Y4699D01*
X26018Y5010D01*
X18498Y7454D01*
X12101Y12101D01*
X7454Y18498D01*
X5010Y26018D01*
X4699Y29972D01*
X4699Y31491D01*
X7517Y28673D01*
X20423Y28673D01*
X23622Y31871D01*
X23622Y38841D01*
X22497Y40390D01*
X24023Y45085D01*
X24023Y45085D01*
X22957Y48364D01*
X23622Y49029D01*
X23622Y66135D01*
X22957Y66799D01*
X24023Y70079D01*
X24023Y70079D01*
X22698Y74157D01*
X23622Y75081D01*
X23622Y75830D01*
X24008Y76473D01*
X23622Y78015D01*
X23622Y79605D01*
X23092Y80135D01*
X23092Y80137D01*
X23092Y80139D01*
X23622Y80669D01*
X23622Y82259D01*
X24008Y83801D01*
X23622Y84444D01*
X23622Y85193D01*
X22498Y86317D01*
X21680Y87680D01*
X20953Y87862D01*
X20423Y88392D01*
X18833Y88392D01*
X17291Y88778D01*
X16648Y88392D01*
X7517Y88392D01*
X4699Y85574D01*
X4699Y400050D01*
X5010Y404004D01*
X7454Y411524D01*
X12101Y417921D01*
X18498Y422568D01*
X26018Y425012D01*
X29972Y425323D01*
X400050Y425323D01*
X404004Y425012D01*
X411524Y422568D01*
X417921Y417921D01*
X422568Y411524D01*
X425012Y404004D01*
X425323Y400050D01*
X425323Y256569D01*
X425087Y253283D01*
X423344Y246941D01*
X420019Y241266D01*
X417831Y238803D01*
X417821Y238792D01*
X299378Y144285D02*
X296685Y146978D01*
X299378Y144285D02*
X302896Y142828D01*
X306704Y142828D01*
X310222Y144285D01*
X312915Y146978D01*
X314372Y150496D01*
X314372Y154304D01*
X312915Y157822D01*
X310222Y160515D01*
X308970Y161033D01*
X386190Y238254D01*
X387350Y241054D01*
X387350Y256540D01*
X401566Y256540D01*
X404366Y257700D01*
X406510Y259844D01*
X409930Y263264D01*
X411090Y266064D01*
X411090Y267514D01*
X413042Y269466D01*
X413042Y269785D01*
X414526Y270400D01*
X416670Y272544D01*
X416670Y272544D01*
X418336Y274210D01*
X418336Y274210D01*
X420480Y276354D01*
X421640Y279154D01*
X421640Y294574D01*
X424092Y297026D01*
X424092Y310814D01*
X422486Y312420D01*
X424092Y314026D01*
X424092Y327814D01*
X421414Y330492D01*
X406626Y330492D01*
X403948Y327814D01*
X403948Y327016D01*
X403152Y327016D01*
X403152Y329254D01*
X401676Y330730D01*
X401676Y333994D01*
X401958Y333712D01*
X404840Y332518D01*
X407960Y332518D01*
X410842Y333712D01*
X413048Y335918D01*
X414242Y338800D01*
X414242Y341920D01*
X413515Y343676D01*
X414655Y344816D01*
X414655Y376544D01*
X411977Y379222D01*
X400910Y379222D01*
X401042Y379540D01*
X401042Y382460D01*
X400432Y383933D01*
X400459Y383961D01*
X401148Y383563D01*
X402182Y383286D01*
X406082Y383286D01*
X406082Y401002D01*
X406718Y401002D01*
X406718Y383286D01*
X410618Y383286D01*
X411652Y383563D01*
X412578Y384098D01*
X413335Y384855D01*
X413870Y385781D01*
X414147Y386815D01*
X414147Y401002D01*
X406718Y401002D01*
X406718Y401638D01*
X414147Y401638D01*
X414147Y415825D01*
X413870Y416859D01*
X413335Y417785D01*
X412578Y418542D01*
X411652Y419077D01*
X410618Y419354D01*
X406718Y419354D01*
X406718Y401638D01*
X406082Y401638D01*
X406082Y419354D01*
X402182Y419354D01*
X401148Y419077D01*
X400459Y418679D01*
X399277Y419862D01*
X388123Y419862D01*
X387350Y419089D01*
X386577Y419862D01*
X375423Y419862D01*
X374650Y419089D01*
X373877Y419862D01*
X362723Y419862D01*
X361950Y419089D01*
X361177Y419862D01*
X350023Y419862D01*
X349250Y419089D01*
X348477Y419862D01*
X337323Y419862D01*
X336550Y419089D01*
X335777Y419862D01*
X324623Y419862D01*
X323850Y419089D01*
X323077Y419862D01*
X311923Y419862D01*
X309245Y417184D01*
X309245Y407416D01*
X308667Y407416D01*
X306427Y406488D01*
X298236Y398297D01*
X298236Y420835D01*
X295558Y423513D01*
X230222Y423513D01*
X227544Y420835D01*
X227544Y392527D01*
X228472Y390287D01*
X229123Y389636D01*
X180325Y389636D01*
X178816Y391145D01*
X178816Y395870D01*
X179070Y396124D01*
X180859Y394335D01*
X189981Y394335D01*
X191770Y396124D01*
X193559Y394335D01*
X202681Y394335D01*
X204848Y396503D01*
X204901Y396412D01*
X205658Y395655D01*
X206584Y395120D01*
X207618Y394843D01*
X210820Y394843D01*
X210820Y408813D01*
X210820Y408813D01*
X210820Y394843D01*
X214022Y394843D01*
X215056Y395120D01*
X215982Y395655D01*
X216739Y396412D01*
X217274Y397338D01*
X217551Y398372D01*
X217551Y408813D01*
X210820Y408813D01*
X210820Y408813D01*
X217551Y408813D01*
X217551Y419254D01*
X217274Y420288D01*
X216739Y421214D01*
X215982Y421971D01*
X215056Y422506D01*
X214022Y422783D01*
X210820Y422783D01*
X210820Y408813D01*
X210820Y408813D01*
X210820Y422783D01*
X207618Y422783D01*
X206584Y422506D01*
X205658Y421971D01*
X204901Y421214D01*
X204848Y421123D01*
X202681Y423291D01*
X193559Y423291D01*
X191770Y421502D01*
X189981Y423291D01*
X180859Y423291D01*
X179070Y421502D01*
X177281Y423291D01*
X168159Y423291D01*
X166370Y421502D01*
X164581Y423291D01*
X155459Y423291D01*
X153670Y421502D01*
X151881Y423291D01*
X142759Y423291D01*
X140970Y421502D01*
X139181Y423291D01*
X130059Y423291D01*
X128270Y421502D01*
X126481Y423291D01*
X117359Y423291D01*
X114681Y420613D01*
X114681Y415544D01*
X52026Y415544D01*
X49599Y414539D01*
X47741Y412681D01*
X19801Y384741D01*
X18796Y382314D01*
X18796Y380686D01*
X17487Y380143D01*
X13557Y376213D01*
X11430Y371079D01*
X11430Y365521D01*
X13557Y360387D01*
X17487Y356457D01*
X19555Y355600D01*
X17487Y354743D01*
X13557Y350813D01*
X11430Y345679D01*
X11430Y340121D01*
X13557Y334987D01*
X17487Y331057D01*
X20172Y329945D01*
X18344Y329014D01*
X16630Y327768D01*
X15132Y326270D01*
X13886Y324556D01*
X12924Y322668D01*
X12269Y320652D01*
X11938Y318559D01*
X11938Y318516D01*
X24384Y318516D01*
X24384Y316484D01*
X11938Y316484D01*
X11938Y316441D01*
X12269Y314348D01*
X12924Y312332D01*
X13886Y310444D01*
X15132Y308730D01*
X16630Y307232D01*
X18344Y305986D01*
X20232Y305024D01*
X22248Y304369D01*
X24341Y304038D01*
X24384Y304038D01*
X24384Y316484D01*
X26416Y316484D01*
X26416Y304038D01*
X26459Y304038D01*
X28552Y304369D01*
X30568Y305024D01*
X32456Y305986D01*
X34170Y307232D01*
X35668Y308730D01*
X36914Y310444D01*
X37876Y312332D01*
X38531Y314348D01*
X38862Y316441D01*
X38862Y316484D01*
X26416Y316484D01*
X26416Y318516D01*
X38862Y318516D01*
X38862Y318559D01*
X38531Y320652D01*
X37876Y322668D01*
X36914Y324556D01*
X35668Y326270D01*
X34170Y327768D01*
X32456Y329014D01*
X30628Y329945D01*
X33313Y331057D01*
X37243Y334987D01*
X39370Y340121D01*
X39370Y345679D01*
X37243Y350813D01*
X33313Y354743D01*
X31245Y355600D01*
X33313Y356457D01*
X37243Y360387D01*
X39370Y365521D01*
X39370Y371079D01*
X37243Y376213D01*
X33598Y379859D01*
X56075Y402336D01*
X56858Y402336D01*
X56858Y390116D01*
X58810Y388164D01*
X58810Y372545D01*
X54805Y368540D01*
X51054Y359485D01*
X51054Y349683D01*
X54805Y340628D01*
X61736Y333697D01*
X70791Y329946D01*
X77377Y329946D01*
X77003Y329572D01*
X65876Y329572D01*
X64411Y328107D01*
X64265Y328252D01*
X63339Y328787D01*
X62305Y329064D01*
X56794Y329064D01*
X56794Y319024D01*
X53746Y319024D01*
X53746Y329064D01*
X48235Y329064D01*
X47201Y328787D01*
X46275Y328252D01*
X45518Y327495D01*
X44983Y326569D01*
X44706Y325535D01*
X44706Y319024D01*
X53746Y319024D01*
X53746Y315976D01*
X44706Y315976D01*
X44706Y309465D01*
X44983Y308431D01*
X45518Y307505D01*
X46275Y306748D01*
X47201Y306213D01*
X48235Y305936D01*
X53746Y305936D01*
X53746Y315976D01*
X56794Y315976D01*
X56794Y305936D01*
X62305Y305936D01*
X63339Y306213D01*
X64265Y306748D01*
X64411Y306893D01*
X65876Y305428D01*
X81368Y305428D01*
X81368Y293706D01*
X82974Y292100D01*
X81368Y290494D01*
X81368Y276706D01*
X84046Y274028D01*
X96201Y274028D01*
X101077Y269152D01*
X103317Y268224D01*
X107360Y268224D01*
X108586Y266998D01*
X123874Y266998D01*
X125730Y268854D01*
X127586Y266998D01*
X130035Y266998D01*
X133129Y263904D01*
X127254Y263904D01*
X127254Y254864D01*
X124206Y254864D01*
X124206Y263904D01*
X117695Y263904D01*
X116661Y263627D01*
X115735Y263092D01*
X114978Y262335D01*
X114443Y261409D01*
X114166Y260375D01*
X114166Y254864D01*
X124206Y254864D01*
X124206Y251816D01*
X114166Y251816D01*
X114166Y246305D01*
X114443Y245271D01*
X114978Y244345D01*
X115123Y244199D01*
X113658Y242734D01*
X113658Y225946D01*
X116336Y223268D01*
X118716Y223268D01*
X117888Y221270D01*
X117888Y218150D01*
X119082Y215268D01*
X121288Y213062D01*
X124170Y211868D01*
X127290Y211868D01*
X128908Y212538D01*
X128908Y210891D01*
X128712Y210944D01*
X127642Y210944D01*
X126608Y210667D01*
X125682Y210132D01*
X121238Y205688D01*
X126056Y200870D01*
X126055Y200869D01*
X121237Y205687D01*
X116793Y201243D01*
X116258Y200317D01*
X115981Y199283D01*
X115981Y198213D01*
X116258Y197179D01*
X116793Y196253D01*
X119116Y193930D01*
X126055Y200869D01*
X126056Y200869D01*
X119116Y193930D01*
X121130Y191916D01*
X121130Y191197D01*
X125476Y186851D01*
X125476Y181902D01*
X124686Y181902D01*
X122008Y179224D01*
X122008Y165436D01*
X123614Y163830D01*
X122008Y162224D01*
X122008Y148436D01*
X124686Y145758D01*
X133031Y145758D01*
X133327Y145462D01*
X120486Y145462D01*
X119021Y143997D01*
X118875Y144142D01*
X117949Y144677D01*
X116915Y144954D01*
X111856Y144954D01*
X111856Y136866D01*
X109904Y136866D01*
X109904Y144954D01*
X104845Y144954D01*
X103811Y144677D01*
X102885Y144142D01*
X102128Y143385D01*
X101593Y142459D01*
X101316Y141425D01*
X101316Y136866D01*
X109904Y136866D01*
X109904Y134914D01*
X101316Y134914D01*
X101316Y130355D01*
X101593Y129321D01*
X102128Y128395D01*
X102885Y127638D01*
X103811Y127103D01*
X104845Y126826D01*
X109904Y126826D01*
X109904Y134914D01*
X111856Y134914D01*
X111856Y126826D01*
X116915Y126826D01*
X117949Y127103D01*
X118875Y127638D01*
X119021Y127783D01*
X120486Y126318D01*
X135274Y126318D01*
X136885Y127929D01*
X143400Y121414D01*
X145180Y119634D01*
X140133Y119634D01*
X131078Y115883D01*
X124147Y108952D01*
X120396Y99897D01*
X120396Y90095D01*
X124147Y81040D01*
X131078Y74109D01*
X140133Y70358D01*
X149935Y70358D01*
X158990Y74109D01*
X165921Y81040D01*
X168546Y87376D01*
X173628Y87376D01*
X176189Y84815D01*
X174078Y82704D01*
X174078Y68916D01*
X176043Y66951D01*
X175398Y66305D01*
X174863Y65379D01*
X174586Y64345D01*
X174586Y59786D01*
X183174Y59786D01*
X183174Y57834D01*
X174586Y57834D01*
X174586Y53275D01*
X174863Y52241D01*
X175398Y51315D01*
X176155Y50558D01*
X177081Y50023D01*
X178115Y49746D01*
X183174Y49746D01*
X183174Y57834D01*
X185126Y57834D01*
X185126Y49746D01*
X190185Y49746D01*
X191219Y50023D01*
X192145Y50558D01*
X192902Y51315D01*
X193437Y52241D01*
X193714Y53275D01*
X193714Y57834D01*
X185126Y57834D01*
X185126Y59786D01*
X193714Y59786D01*
X193714Y64345D01*
X193437Y65379D01*
X192902Y66305D01*
X192257Y66951D01*
X194222Y68916D01*
X194222Y82704D01*
X192111Y84815D01*
X194672Y87376D01*
X203818Y87376D01*
X206443Y81040D01*
X213374Y74109D01*
X222429Y70358D01*
X232231Y70358D01*
X241286Y74109D01*
X248217Y81040D01*
X251968Y90095D01*
X251968Y99897D01*
X248217Y108952D01*
X241286Y115883D01*
X235910Y118110D01*
X264406Y118110D01*
X267206Y119270D01*
X296167Y148230D01*
X296685Y146978D01*
X105152Y240258D02*
X105152Y248442D01*
X102020Y256003D01*
X96233Y261790D01*
X88672Y264922D01*
X80488Y264922D01*
X72927Y261790D01*
X67140Y256003D01*
X64008Y248442D01*
X64008Y240258D01*
X67140Y232697D01*
X72927Y226910D01*
X80488Y223778D01*
X88672Y223778D01*
X96233Y226910D01*
X102020Y232697D01*
X105152Y240258D01*
X68986Y161036D02*
X68986Y150996D01*
X68986Y161036D02*
X72034Y161036D01*
X72034Y150996D01*
X77545Y150996D01*
X78579Y151273D01*
X79505Y151808D01*
X79651Y151953D01*
X81116Y150488D01*
X97904Y150488D01*
X100582Y153166D01*
X100582Y154940D01*
X101846Y154940D01*
X104646Y156100D01*
X109330Y160784D01*
X110490Y163584D01*
X110490Y170624D01*
X110712Y171160D01*
X110712Y174280D01*
X110490Y174816D01*
X110490Y183126D01*
X109330Y185926D01*
X104646Y190610D01*
X101846Y191770D01*
X100582Y191770D01*
X100582Y193544D01*
X97904Y196222D01*
X81116Y196222D01*
X79651Y194757D01*
X79505Y194902D01*
X78579Y195437D01*
X77545Y195714D01*
X72034Y195714D01*
X72034Y185674D01*
X68986Y185674D01*
X68986Y195714D01*
X63475Y195714D01*
X62441Y195437D01*
X61515Y194902D01*
X60758Y194145D01*
X60223Y193219D01*
X59946Y192185D01*
X59946Y185674D01*
X68986Y185674D01*
X68986Y182626D01*
X59946Y182626D01*
X59946Y176115D01*
X60223Y175081D01*
X60758Y174155D01*
X61515Y173398D01*
X61589Y173355D01*
X61515Y173312D01*
X60758Y172555D01*
X60223Y171629D01*
X59946Y170595D01*
X59946Y164084D01*
X68986Y164084D01*
X68986Y161036D01*
X59946Y161036D01*
X59946Y154525D01*
X60223Y153491D01*
X60758Y152565D01*
X61515Y151808D01*
X62441Y151273D01*
X63475Y150996D01*
X68986Y150996D01*
X15828Y404496D02*
X15828Y408304D01*
X15828Y404496D02*
X17285Y400978D01*
X19978Y398285D01*
X23496Y396828D01*
X27304Y396828D01*
X30822Y398285D01*
X33515Y400978D01*
X34972Y404496D01*
X34972Y408304D01*
X33515Y411822D01*
X30822Y414515D01*
X27304Y415972D01*
X23496Y415972D01*
X19978Y414515D01*
X17285Y411822D01*
X15828Y408304D01*
X22676Y6096D02*
X180963Y6096D01*
X191221Y12192D02*
X12035Y12192D01*
X7606Y18288D02*
X197317Y18288D01*
X203413Y24384D02*
X5541Y24384D01*
X5709Y30480D02*
X4699Y30480D01*
X22231Y30480D02*
X209509Y30480D01*
X215605Y36576D02*
X23622Y36576D01*
X23239Y42672D02*
X221701Y42672D01*
X227797Y48768D02*
X23361Y48768D01*
X23622Y54864D02*
X174586Y54864D01*
X183174Y54864D02*
X185126Y54864D01*
X193714Y54864D02*
X233893Y54864D01*
X174586Y60960D02*
X23622Y60960D01*
X193714Y60960D02*
X239989Y60960D01*
X175938Y67056D02*
X23041Y67056D01*
X192362Y67056D02*
X246085Y67056D01*
X133388Y73152D02*
X23024Y73152D01*
X156680Y73152D02*
X174078Y73152D01*
X194222Y73152D02*
X215684Y73152D01*
X238976Y73152D02*
X252181Y73152D01*
X125939Y79248D02*
X23622Y79248D01*
X164129Y79248D02*
X174078Y79248D01*
X194222Y79248D02*
X208235Y79248D01*
X246425Y79248D02*
X258277Y79248D01*
X122364Y85344D02*
X23471Y85344D01*
X167704Y85344D02*
X175660Y85344D01*
X192640Y85344D02*
X204660Y85344D01*
X250000Y85344D02*
X264373Y85344D01*
X120396Y91440D02*
X4699Y91440D01*
X251968Y91440D02*
X270469Y91440D01*
X120396Y97536D02*
X4699Y97536D01*
X251968Y97536D02*
X276565Y97536D01*
X121943Y103632D02*
X4699Y103632D01*
X168125Y103632D02*
X204239Y103632D01*
X250421Y103632D02*
X282661Y103632D01*
X124923Y109728D02*
X4699Y109728D01*
X165145Y109728D02*
X207219Y109728D01*
X247441Y109728D02*
X288757Y109728D01*
X131019Y115824D02*
X4699Y115824D01*
X159049Y115824D02*
X213315Y115824D01*
X241345Y115824D02*
X294853Y115824D01*
X142894Y121920D02*
X4699Y121920D01*
X269856Y121920D02*
X300949Y121920D01*
X102507Y128016D02*
X4699Y128016D01*
X109904Y128016D02*
X111856Y128016D01*
X275952Y128016D02*
X307045Y128016D01*
X101316Y134112D02*
X4699Y134112D01*
X109904Y134112D02*
X111856Y134112D01*
X237983Y134112D02*
X260496Y134112D01*
X282048Y134112D02*
X313141Y134112D01*
X101316Y140208D02*
X4699Y140208D01*
X109904Y140208D02*
X111856Y140208D01*
X244079Y140208D02*
X266592Y140208D01*
X288144Y140208D02*
X319237Y140208D01*
X124140Y146304D02*
X4699Y146304D01*
X149727Y146304D02*
X181318Y146304D01*
X250175Y146304D02*
X272688Y146304D01*
X294240Y146304D02*
X297359Y146304D01*
X312241Y146304D02*
X325333Y146304D01*
X60923Y152400D02*
X4699Y152400D01*
X68986Y152400D02*
X72034Y152400D01*
X99816Y152400D02*
X122008Y152400D01*
X143631Y152400D02*
X181318Y152400D01*
X217462Y152400D02*
X223789Y152400D01*
X256271Y152400D02*
X278784Y152400D01*
X314372Y152400D02*
X331429Y152400D01*
X59946Y158496D02*
X4699Y158496D01*
X68986Y158496D02*
X72034Y158496D01*
X107042Y158496D02*
X122008Y158496D01*
X142152Y158496D02*
X184286Y158496D01*
X197494Y158496D02*
X229885Y158496D01*
X264074Y158496D02*
X284880Y158496D01*
X312241Y158496D02*
X337525Y158496D01*
X59946Y164592D02*
X4699Y164592D01*
X68986Y164592D02*
X72034Y164592D01*
X110490Y164592D02*
X122852Y164592D01*
X141308Y164592D02*
X175686Y164592D01*
X182500Y164592D02*
X182500Y164592D01*
X197822Y164592D02*
X235981Y164592D01*
X264915Y164592D02*
X290976Y164592D01*
X312528Y164592D02*
X343621Y164592D01*
X59971Y170688D02*
X4699Y170688D01*
X68986Y170688D02*
X72034Y170688D01*
X110516Y170688D02*
X122008Y170688D01*
X142152Y170688D02*
X175686Y170688D01*
X182500Y170688D02*
X182500Y170688D01*
X197822Y170688D02*
X241710Y170688D01*
X256130Y170688D02*
X297072Y170688D01*
X318624Y170688D02*
X349717Y170688D01*
X59946Y176784D02*
X4699Y176784D01*
X68986Y176784D02*
X72034Y176784D01*
X110490Y176784D02*
X122008Y176784D01*
X142152Y176784D02*
X175686Y176784D01*
X197822Y176784D02*
X303168Y176784D01*
X324720Y176784D02*
X355813Y176784D01*
X68986Y182880D02*
X4699Y182880D01*
X110490Y182880D02*
X125476Y182880D01*
X138684Y182880D02*
X175178Y182880D01*
X197822Y182880D02*
X309264Y182880D01*
X330816Y182880D02*
X361909Y182880D01*
X59946Y188976D02*
X4699Y188976D01*
X68986Y188976D02*
X72034Y188976D01*
X106280Y188976D02*
X123351Y188976D01*
X138684Y188976D02*
X175178Y188976D01*
X197822Y188976D02*
X239654Y188976D01*
X249290Y188976D02*
X249291Y188976D01*
X249310Y188976D02*
X263078Y188976D01*
X298262Y188976D02*
X315360Y188976D01*
X336912Y188976D02*
X368005Y188976D01*
X61809Y195072D02*
X4699Y195072D01*
X68986Y195072D02*
X72034Y195072D01*
X79211Y195072D02*
X79966Y195072D01*
X99054Y195072D02*
X117974Y195072D01*
X120258Y195072D02*
X120259Y195072D01*
X141927Y195072D02*
X175178Y195072D01*
X197822Y195072D02*
X233558Y195072D01*
X241527Y195072D02*
X241527Y195072D01*
X243194Y195072D02*
X243195Y195072D01*
X343008Y195072D02*
X374101Y195072D01*
X116750Y201168D02*
X4699Y201168D01*
X125757Y201168D02*
X125757Y201168D01*
X148023Y201168D02*
X169606Y201168D01*
X203774Y201168D02*
X226743Y201168D01*
X327375Y201168D02*
X327552Y201168D01*
X349104Y201168D02*
X380197Y201168D01*
X122814Y207264D02*
X4699Y207264D01*
X154119Y207264D02*
X164230Y207264D01*
X209150Y207264D02*
X220647Y207264D01*
X252671Y207264D02*
X333648Y207264D01*
X355200Y207264D02*
X386293Y207264D01*
X120990Y213360D02*
X4699Y213360D01*
X186262Y213360D02*
X187118Y213360D01*
X245165Y213360D02*
X339744Y213360D01*
X361296Y213360D02*
X392389Y213360D01*
X117888Y219456D02*
X4699Y219456D01*
X133572Y219456D02*
X134288Y219456D01*
X184250Y219456D02*
X189130Y219456D01*
X240479Y219456D02*
X345840Y219456D01*
X367392Y219456D02*
X398485Y219456D01*
X76205Y225552D02*
X4699Y225552D01*
X92955Y225552D02*
X114052Y225552D01*
X137408Y225552D02*
X141399Y225552D01*
X171669Y225552D02*
X201711Y225552D01*
X234383Y225552D02*
X236215Y225552D01*
X246126Y225552D02*
X249174Y225552D01*
X259085Y225552D02*
X279405Y225552D01*
X296155Y225552D02*
X351936Y225552D01*
X373488Y225552D02*
X404581Y225552D01*
X68189Y231648D02*
X4699Y231648D01*
X100971Y231648D02*
X113658Y231648D01*
X137802Y231648D02*
X138203Y231648D01*
X161193Y231648D02*
X167640Y231648D01*
X179320Y231648D02*
X194409Y231648D01*
X198372Y231648D02*
X199388Y231648D01*
X203351Y231648D02*
X212187Y231648D01*
X235177Y231648D02*
X246126Y231648D01*
X249174Y231648D02*
X271389Y231648D01*
X304171Y231648D02*
X344766Y231648D01*
X353354Y231648D02*
X355306Y231648D01*
X379584Y231648D02*
X410677Y231648D01*
X65049Y237744D02*
X4699Y237744D01*
X104111Y237744D02*
X113658Y237744D01*
X137802Y237744D02*
X142226Y237744D01*
X159477Y237744D02*
X161095Y237744D01*
X185865Y237744D02*
X187137Y237744D01*
X198372Y237744D02*
X199388Y237744D01*
X210623Y237744D02*
X213903Y237744D01*
X231154Y237744D02*
X236086Y237744D01*
X259214Y237744D02*
X268249Y237744D01*
X307311Y237744D02*
X344766Y237744D01*
X363894Y237744D02*
X364128Y237744D01*
X385680Y237744D02*
X416759Y237744D01*
X64008Y243840D02*
X4699Y243840D01*
X105152Y243840D02*
X114764Y243840D01*
X136696Y243840D02*
X142226Y243840D01*
X157466Y243840D02*
X159510Y243840D01*
X198372Y243840D02*
X199388Y243840D01*
X212342Y243840D02*
X215914Y243840D01*
X231154Y243840D02*
X235578Y243840D01*
X259722Y243840D02*
X267208Y243840D01*
X308352Y243840D02*
X345425Y243840D01*
X363235Y243840D02*
X370224Y243840D01*
X387350Y243840D02*
X421527Y243840D01*
X64627Y249936D02*
X4699Y249936D01*
X104533Y249936D02*
X114166Y249936D01*
X137294Y249936D02*
X142226Y249936D01*
X158207Y249936D02*
X160673Y249936D01*
X186287Y249936D02*
X186618Y249936D01*
X198372Y249936D02*
X199388Y249936D01*
X211143Y249936D02*
X215173Y249936D01*
X231154Y249936D02*
X235578Y249936D01*
X259722Y249936D02*
X267827Y249936D01*
X307733Y249936D02*
X344258Y249936D01*
X364402Y249936D02*
X372110Y249936D01*
X387350Y249936D02*
X424167Y249936D01*
X67169Y256032D02*
X4699Y256032D01*
X101991Y256032D02*
X114166Y256032D01*
X124206Y256032D02*
X127254Y256032D01*
X137294Y256032D02*
X138217Y256032D01*
X161489Y256032D02*
X165020Y256032D01*
X183581Y256032D02*
X192155Y256032D01*
X198372Y256032D02*
X199388Y256032D01*
X205605Y256032D02*
X211891Y256032D01*
X259722Y256032D02*
X270369Y256032D01*
X305191Y256032D02*
X344258Y256032D01*
X364402Y256032D02*
X372110Y256032D01*
X387350Y256032D02*
X425284Y256032D01*
X73743Y262128D02*
X4699Y262128D01*
X95417Y262128D02*
X114858Y262128D01*
X124206Y262128D02*
X127254Y262128D01*
X156367Y262128D02*
X157577Y262128D01*
X189677Y262128D02*
X202981Y262128D01*
X215803Y262128D02*
X217013Y262128D01*
X265598Y262128D02*
X276943Y262128D01*
X298617Y262128D02*
X325219Y262128D01*
X344832Y262128D02*
X345882Y262128D01*
X362778Y262128D02*
X370986Y262128D01*
X408794Y262128D02*
X425323Y262128D01*
X103317Y268224D02*
X4699Y268224D01*
X125100Y268224D02*
X126360Y268224D01*
X147488Y268224D02*
X151481Y268224D01*
X221899Y268224D02*
X230918Y268224D01*
X246602Y268224D02*
X251238Y268224D01*
X266922Y268224D02*
X316693Y268224D01*
X361421Y268224D02*
X368960Y268224D01*
X411800Y268224D02*
X425323Y268224D01*
X83754Y274320D02*
X4699Y274320D01*
X145552Y274320D02*
X148168Y274320D01*
X220691Y274320D02*
X232098Y274320D01*
X248920Y274320D02*
X248920Y274320D01*
X280016Y274320D02*
X312672Y274320D01*
X357380Y274320D02*
X368960Y274320D01*
X418446Y274320D02*
X425323Y274320D01*
X81368Y280416D02*
X4699Y280416D01*
X197484Y280416D02*
X209845Y280416D01*
X214595Y280416D02*
X232098Y280416D01*
X248920Y280416D02*
X248920Y280416D01*
X286112Y280416D02*
X310388Y280416D01*
X359664Y280416D02*
X368960Y280416D01*
X421640Y280416D02*
X425323Y280416D01*
X81368Y286512D02*
X4699Y286512D01*
X101512Y286512D02*
X106659Y286512D01*
X116230Y286512D02*
X116230Y286512D01*
X168597Y286512D02*
X172882Y286512D01*
X207360Y286512D02*
X232098Y286512D01*
X248920Y286512D02*
X248920Y286512D01*
X298806Y286512D02*
X301854Y286512D01*
X359664Y286512D02*
X368960Y286512D01*
X421640Y286512D02*
X425323Y286512D01*
X82466Y292608D02*
X4699Y292608D01*
X100414Y292608D02*
X124870Y292608D01*
X162501Y292608D02*
X172316Y292608D01*
X208412Y292608D02*
X270258Y292608D01*
X298806Y292608D02*
X301854Y292608D01*
X310894Y292608D02*
X311620Y292608D01*
X358432Y292608D02*
X360826Y292608D01*
X421640Y292608D02*
X425323Y292608D01*
X81368Y298704D02*
X4699Y298704D01*
X101512Y298704D02*
X128419Y298704D01*
X156405Y298704D02*
X172316Y298704D01*
X216495Y298704D02*
X232098Y298704D01*
X246742Y298704D02*
X251098Y298704D01*
X265742Y298704D02*
X270258Y298704D01*
X298806Y298704D02*
X301854Y298704D01*
X310894Y298704D02*
X314153Y298704D01*
X424092Y298704D02*
X425323Y298704D01*
X20923Y304800D02*
X4699Y304800D01*
X24384Y304800D02*
X26416Y304800D01*
X29877Y304800D02*
X81368Y304800D01*
X101512Y304800D02*
X114681Y304800D01*
X218059Y304800D02*
X232098Y304800D01*
X246742Y304800D02*
X251098Y304800D01*
X265742Y304800D02*
X271024Y304800D01*
X298806Y304800D02*
X301854Y304800D01*
X309917Y304800D02*
X320249Y304800D01*
X424092Y304800D02*
X425323Y304800D01*
X13656Y310896D02*
X4699Y310896D01*
X24384Y310896D02*
X26416Y310896D01*
X37144Y310896D02*
X44706Y310896D01*
X53746Y310896D02*
X56794Y310896D01*
X97536Y310896D02*
X114681Y310896D01*
X218059Y310896D02*
X232098Y310896D01*
X246742Y310896D02*
X251098Y310896D01*
X364090Y310896D02*
X370484Y310896D01*
X424010Y310896D02*
X425323Y310896D01*
X24384Y316992D02*
X4699Y316992D01*
X26416Y316992D02*
X53746Y316992D01*
X97536Y316992D02*
X114681Y316992D01*
X185420Y316992D02*
X185420Y316992D01*
X218059Y316992D02*
X248622Y316992D01*
X357994Y316992D02*
X369008Y316992D01*
X424092Y316992D02*
X425323Y316992D01*
X13139Y323088D02*
X4699Y323088D01*
X37662Y323088D02*
X44706Y323088D01*
X53746Y323088D02*
X56794Y323088D01*
X103109Y323088D02*
X114681Y323088D01*
X185420Y323088D02*
X185420Y323088D01*
X218059Y323088D02*
X227586Y323088D01*
X236626Y323088D02*
X239674Y323088D01*
X340644Y323088D02*
X369008Y323088D01*
X386080Y323088D02*
X386080Y323088D01*
X424092Y323088D02*
X425323Y323088D01*
X18679Y329184D02*
X4699Y329184D01*
X32121Y329184D02*
X65488Y329184D01*
X109205Y329184D02*
X114078Y329184D01*
X164962Y329184D02*
X167778Y329184D01*
X177662Y329184D02*
X193178Y329184D01*
X203062Y329184D02*
X205878Y329184D01*
X215762Y329184D02*
X236626Y329184D01*
X268222Y329184D02*
X269808Y329184D01*
X340644Y329184D02*
X369008Y329184D01*
X386080Y329184D02*
X386080Y329184D01*
X403152Y329184D02*
X405318Y329184D01*
X422722Y329184D02*
X425323Y329184D01*
X13435Y335280D02*
X4699Y335280D01*
X37365Y335280D02*
X60153Y335280D01*
X91231Y335280D02*
X98059Y335280D01*
X115301Y335280D02*
X115910Y335280D01*
X153330Y335280D02*
X227586Y335280D01*
X268222Y335280D02*
X269808Y335280D01*
X382676Y335280D02*
X389484Y335280D01*
X412410Y335280D02*
X425323Y335280D01*
X11430Y341376D02*
X4699Y341376D01*
X39370Y341376D02*
X54495Y341376D01*
X96889Y341376D02*
X104155Y341376D01*
X210516Y341376D02*
X232699Y341376D01*
X264382Y341376D02*
X269808Y341376D01*
X307254Y341376D02*
X323200Y341376D01*
X386441Y341376D02*
X387604Y341376D01*
X414242Y341376D02*
X425323Y341376D01*
X12173Y347472D02*
X4699Y347472D01*
X38627Y347472D02*
X51970Y347472D01*
X99414Y347472D02*
X110251Y347472D01*
X209011Y347472D02*
X228857Y347472D01*
X292140Y347472D02*
X292140Y347472D01*
X308095Y347472D02*
X309245Y347472D01*
X414655Y347472D02*
X425323Y347472D01*
X16311Y353568D02*
X4699Y353568D01*
X34489Y353568D02*
X51054Y353568D01*
X100330Y353568D02*
X227544Y353568D01*
X292140Y353568D02*
X292140Y353568D01*
X297728Y353568D02*
X309245Y353568D01*
X414655Y353568D02*
X425323Y353568D01*
X14279Y359664D02*
X4699Y359664D01*
X36521Y359664D02*
X51128Y359664D01*
X100256Y359664D02*
X227544Y359664D01*
X414655Y359664D02*
X425323Y359664D01*
X11430Y365760D02*
X4699Y365760D01*
X39370Y365760D02*
X53653Y365760D01*
X97731Y365760D02*
X122189Y365760D01*
X414655Y365760D02*
X425323Y365760D01*
X11752Y371856D02*
X4699Y371856D01*
X39048Y371856D02*
X58121Y371856D01*
X93263Y371856D02*
X116479Y371856D01*
X414655Y371856D02*
X425323Y371856D01*
X15295Y377952D02*
X4699Y377952D01*
X35505Y377952D02*
X58810Y377952D01*
X83659Y377952D02*
X115824Y377952D01*
X413247Y377952D02*
X425323Y377952D01*
X19514Y384048D02*
X4699Y384048D01*
X37787Y384048D02*
X58810Y384048D01*
X74050Y384048D02*
X115824Y384048D01*
X406082Y384048D02*
X406718Y384048D01*
X412492Y384048D02*
X425323Y384048D01*
X25205Y390144D02*
X4699Y390144D01*
X43883Y390144D02*
X56858Y390144D01*
X82454Y390144D02*
X84406Y390144D01*
X92045Y390144D02*
X115824Y390144D01*
X179817Y390144D02*
X228615Y390144D01*
X406082Y390144D02*
X406718Y390144D01*
X414147Y390144D02*
X425323Y390144D01*
X31301Y396240D02*
X4699Y396240D01*
X49979Y396240D02*
X56858Y396240D01*
X82454Y396240D02*
X84406Y396240D01*
X92494Y396240D02*
X115454Y396240D01*
X204586Y396240D02*
X205073Y396240D01*
X210820Y396240D02*
X210820Y396240D01*
X216567Y396240D02*
X227544Y396240D01*
X406082Y396240D02*
X406718Y396240D01*
X414147Y396240D02*
X425323Y396240D01*
X16723Y402336D02*
X4879Y402336D01*
X34077Y402336D02*
X37397Y402336D01*
X210820Y402336D02*
X210820Y402336D01*
X217551Y402336D02*
X227544Y402336D01*
X298236Y402336D02*
X302275Y402336D01*
X406082Y402336D02*
X406718Y402336D01*
X414147Y402336D02*
X425143Y402336D01*
X15881Y408432D02*
X6449Y408432D01*
X34919Y408432D02*
X43493Y408432D01*
X210820Y408432D02*
X210820Y408432D01*
X217551Y408432D02*
X227544Y408432D01*
X298236Y408432D02*
X309245Y408432D01*
X406082Y408432D02*
X406718Y408432D01*
X414147Y408432D02*
X423573Y408432D01*
X20010Y414528D02*
X9636Y414528D01*
X30790Y414528D02*
X49589Y414528D01*
X210820Y414528D02*
X210820Y414528D01*
X217551Y414528D02*
X227544Y414528D01*
X298236Y414528D02*
X309245Y414528D01*
X406082Y414528D02*
X406718Y414528D01*
X414147Y414528D02*
X420386Y414528D01*
X114692Y420624D02*
X15822Y420624D01*
X210820Y420624D02*
X210820Y420624D01*
X217080Y420624D02*
X227544Y420624D01*
X298236Y420624D02*
X414200Y420624D01*
X6096Y30094D02*
X6096Y22676D01*
X6096Y86971D02*
X6096Y407346D01*
X12192Y28673D02*
X12192Y12035D01*
X12192Y88392D02*
X12192Y314837D01*
X12192Y316484D02*
X12192Y318516D01*
X12192Y320163D02*
X12192Y338282D01*
X12192Y347518D02*
X12192Y363682D01*
X12192Y372918D02*
X12192Y417987D01*
X18288Y28673D02*
X18288Y7606D01*
X18288Y88528D02*
X18288Y306027D01*
X18288Y316484D02*
X18288Y318516D01*
X18288Y328973D02*
X18288Y330725D01*
X18288Y355075D02*
X18288Y356125D01*
X18288Y380475D02*
X18288Y399975D01*
X18288Y412825D02*
X18288Y422416D01*
X24384Y316484D02*
X24384Y5541D01*
X24384Y389323D02*
X24384Y396828D01*
X24384Y415972D02*
X24384Y424481D01*
X30480Y304996D02*
X30480Y4699D01*
X30480Y316484D02*
X30480Y318516D01*
X30480Y395419D02*
X30480Y398144D01*
X30480Y414656D02*
X30480Y425323D01*
X36576Y309980D02*
X36576Y4699D01*
X36576Y316484D02*
X36576Y318516D01*
X36576Y325020D02*
X36576Y334319D01*
X36576Y351481D02*
X36576Y359719D01*
X36576Y376880D02*
X36576Y382837D01*
X36576Y401515D02*
X36576Y425323D01*
X42672Y388933D02*
X42672Y4699D01*
X42672Y407611D02*
X42672Y425323D01*
X48768Y305936D02*
X48768Y4699D01*
X48768Y315976D02*
X48768Y319024D01*
X48768Y329064D02*
X48768Y395029D01*
X48768Y413707D02*
X48768Y425323D01*
X54864Y315976D02*
X54864Y4699D01*
X54864Y319024D02*
X54864Y340569D01*
X54864Y368599D02*
X54864Y401125D01*
X54864Y415544D02*
X54864Y425323D01*
X60960Y152363D02*
X60960Y4699D01*
X60960Y161036D02*
X60960Y164084D01*
X60960Y172757D02*
X60960Y173953D01*
X60960Y182626D02*
X60960Y185674D01*
X60960Y194347D02*
X60960Y305936D01*
X60960Y329064D02*
X60960Y334473D01*
X60960Y415544D02*
X60960Y425323D01*
X67056Y150996D02*
X67056Y4699D01*
X67056Y161036D02*
X67056Y164084D01*
X67056Y182626D02*
X67056Y185674D01*
X67056Y195714D02*
X67056Y232899D01*
X67056Y255801D02*
X67056Y305428D01*
X67056Y329572D02*
X67056Y331493D01*
X67056Y415544D02*
X67056Y425323D01*
X73152Y150996D02*
X73152Y4699D01*
X73152Y195714D02*
X73152Y226817D01*
X73152Y261883D02*
X73152Y305428D01*
X73152Y329572D02*
X73152Y329946D01*
X73152Y415544D02*
X73152Y425323D01*
X79248Y151659D02*
X79248Y4699D01*
X79248Y195051D02*
X79248Y224292D01*
X79248Y264408D02*
X79248Y305428D01*
X79248Y379222D02*
X79248Y387946D01*
X79248Y415544D02*
X79248Y425323D01*
X85344Y150488D02*
X85344Y4699D01*
X85344Y196222D02*
X85344Y223778D01*
X85344Y264922D02*
X85344Y274028D01*
X85344Y377254D02*
X85344Y387946D01*
X85344Y396534D02*
X85344Y398486D01*
X85344Y415544D02*
X85344Y425323D01*
X91440Y150488D02*
X91440Y4699D01*
X91440Y196222D02*
X91440Y224925D01*
X91440Y263775D02*
X91440Y274028D01*
X91440Y334570D02*
X91440Y335489D01*
X91440Y373679D02*
X91440Y389273D01*
X91440Y396534D02*
X91440Y398486D01*
X91440Y415544D02*
X91440Y425323D01*
X97536Y150488D02*
X97536Y4699D01*
X97536Y196222D02*
X97536Y228213D01*
X97536Y260487D02*
X97536Y272693D01*
X97536Y310172D02*
X97536Y317515D01*
X97536Y334757D02*
X97536Y342938D01*
X97536Y366230D02*
X97536Y402336D01*
X97536Y415544D02*
X97536Y425323D01*
X103632Y127207D02*
X103632Y4699D01*
X103632Y134914D02*
X103632Y136866D01*
X103632Y144574D02*
X103632Y155680D01*
X103632Y191030D02*
X103632Y236588D01*
X103632Y252112D02*
X103632Y268224D01*
X103632Y283839D02*
X103632Y323611D01*
X103632Y340853D02*
X103632Y402336D01*
X103632Y415544D02*
X103632Y425323D01*
X109728Y126826D02*
X109728Y4699D01*
X109728Y134914D02*
X109728Y136866D01*
X109728Y144954D02*
X109728Y161745D01*
X109728Y184965D02*
X109728Y266998D01*
X109728Y282320D02*
X109728Y282320D01*
X109728Y289076D02*
X109728Y329707D01*
X109728Y346949D02*
X109728Y402336D01*
X109728Y415544D02*
X109728Y425323D01*
X115824Y126826D02*
X115824Y4699D01*
X115824Y144954D02*
X115824Y223780D01*
X115824Y251816D02*
X115824Y254864D01*
X115824Y263144D02*
X115824Y266998D01*
X115824Y282320D02*
X115824Y282320D01*
X115824Y289134D02*
X115824Y302144D01*
X115824Y335194D02*
X115824Y335803D01*
X115824Y348996D02*
X115824Y373437D01*
X115824Y421756D02*
X115824Y425323D01*
X121920Y86416D02*
X121920Y4699D01*
X121920Y103576D02*
X121920Y126318D01*
X121920Y145462D02*
X121920Y190407D01*
X121920Y196733D02*
X121920Y196734D01*
X121920Y205005D02*
X121920Y205005D01*
X121920Y206370D02*
X121920Y212800D01*
X121920Y251816D02*
X121920Y254864D01*
X121920Y263904D02*
X121920Y266998D01*
X121920Y289134D02*
X121920Y300609D01*
X121920Y348996D02*
X121920Y366029D01*
X121920Y423291D02*
X121920Y425323D01*
X128016Y77171D02*
X128016Y4699D01*
X128016Y112821D02*
X128016Y126318D01*
X128016Y145462D02*
X128016Y145758D01*
X128016Y210944D02*
X128016Y212169D01*
X128016Y251816D02*
X128016Y254864D01*
X128016Y263904D02*
X128016Y266998D01*
X128016Y297094D02*
X128016Y299676D01*
X128016Y348996D02*
X128016Y362204D01*
X128016Y421756D02*
X128016Y425323D01*
X134112Y72852D02*
X134112Y4699D01*
X134112Y117140D02*
X134112Y126318D01*
X134112Y219281D02*
X134112Y223268D01*
X134112Y251816D02*
X134112Y254864D01*
X134112Y348996D02*
X134112Y362204D01*
X134112Y423291D02*
X134112Y425323D01*
X140208Y70358D02*
X140208Y4699D01*
X140208Y119634D02*
X140208Y124606D01*
X140208Y181168D02*
X140208Y193353D01*
X140208Y224887D02*
X140208Y227111D01*
X140208Y234909D02*
X140208Y254041D01*
X140208Y348996D02*
X140208Y362204D01*
X140208Y422264D02*
X140208Y425323D01*
X146304Y70358D02*
X146304Y4699D01*
X146304Y149727D02*
X146304Y199449D01*
X146304Y269408D02*
X146304Y275716D01*
X146304Y348996D02*
X146304Y362204D01*
X146304Y423291D02*
X146304Y425323D01*
X152400Y71379D02*
X152400Y4699D01*
X152400Y143631D02*
X152400Y205545D01*
X152400Y266095D02*
X152400Y267305D01*
X152400Y336210D02*
X152400Y336804D01*
X152400Y348996D02*
X152400Y362204D01*
X152400Y422772D02*
X152400Y425323D01*
X158496Y73904D02*
X158496Y4699D01*
X158496Y116088D02*
X158496Y118110D01*
X158496Y140716D02*
X158496Y208823D01*
X158496Y227741D02*
X158496Y228951D01*
X158496Y238725D02*
X158496Y250225D01*
X158496Y259999D02*
X158496Y261209D01*
X158496Y296613D02*
X158496Y300609D01*
X158496Y329565D02*
X158496Y336804D01*
X158496Y348996D02*
X158496Y362204D01*
X158496Y423291D02*
X158496Y425323D01*
X164592Y79711D02*
X164592Y4699D01*
X164592Y110281D02*
X164592Y118110D01*
X164592Y140716D02*
X164592Y206902D01*
X164592Y231339D02*
X164592Y233481D01*
X164592Y255219D02*
X164592Y256460D01*
X164592Y290517D02*
X164592Y300620D01*
X164592Y329554D02*
X164592Y336804D01*
X164592Y348996D02*
X164592Y362204D01*
X164592Y423280D02*
X164592Y425323D01*
X170688Y87376D02*
X170688Y4699D01*
X170688Y102616D02*
X170688Y118110D01*
X170688Y140716D02*
X170688Y200086D01*
X170688Y226533D02*
X170688Y230385D01*
X170688Y284421D02*
X170688Y300609D01*
X170688Y329565D02*
X170688Y336804D01*
X170688Y348996D02*
X170688Y362204D01*
X170688Y423291D02*
X170688Y425323D01*
X176784Y50195D02*
X176784Y4948D01*
X176784Y57834D02*
X176784Y59786D01*
X176784Y102616D02*
X176784Y118110D01*
X176784Y140716D02*
X176784Y162309D01*
X176784Y170840D02*
X176784Y170840D01*
X176784Y179371D02*
X176784Y180590D01*
X176784Y220122D02*
X176784Y230598D01*
X176784Y281214D02*
X176784Y282666D01*
X176784Y329565D02*
X176784Y336804D01*
X176784Y348996D02*
X176784Y362204D01*
X176784Y423291D02*
X176784Y425323D01*
X182880Y49746D02*
X182880Y6623D01*
X182880Y57834D02*
X182880Y59786D01*
X182880Y99676D02*
X182880Y118110D01*
X182880Y155006D02*
X182880Y161026D01*
X182880Y220122D02*
X182880Y233993D01*
X182880Y254706D02*
X182880Y255331D01*
X182880Y281214D02*
X182880Y282666D01*
X182880Y329057D02*
X182880Y336804D01*
X182880Y348996D02*
X182880Y362204D01*
X182880Y389636D02*
X182880Y394335D01*
X182880Y423291D02*
X182880Y425323D01*
X188976Y49746D02*
X188976Y10198D01*
X188976Y57834D02*
X188976Y59786D01*
X188976Y102192D02*
X188976Y118110D01*
X188976Y219302D02*
X188976Y235216D01*
X188976Y253484D02*
X188976Y261427D01*
X188976Y281214D02*
X188976Y282666D01*
X188976Y328962D02*
X188976Y336804D01*
X188976Y348996D02*
X188976Y362204D01*
X188976Y389636D02*
X188976Y394335D01*
X188976Y423291D02*
X188976Y425323D01*
X195072Y87376D02*
X195072Y16043D01*
X195072Y102616D02*
X195072Y118110D01*
X195072Y220122D02*
X195072Y231433D01*
X195072Y257267D02*
X195072Y265368D01*
X195072Y281214D02*
X195072Y282666D01*
X195072Y329565D02*
X195072Y336804D01*
X195072Y348996D02*
X195072Y362204D01*
X195072Y389636D02*
X195072Y394335D01*
X195072Y423291D02*
X195072Y425323D01*
X201168Y87376D02*
X201168Y22139D01*
X201168Y102616D02*
X201168Y118110D01*
X201168Y156122D02*
X201168Y198978D01*
X201168Y225009D02*
X201168Y231083D01*
X201168Y243842D02*
X201168Y244858D01*
X201168Y257617D02*
X201168Y263941D01*
X201168Y279044D02*
X201168Y282988D01*
X201168Y329565D02*
X201168Y335795D01*
X201168Y350005D02*
X201168Y362204D01*
X201168Y389636D02*
X201168Y394335D01*
X201168Y423291D02*
X201168Y425323D01*
X207264Y80219D02*
X207264Y28235D01*
X207264Y109773D02*
X207264Y118110D01*
X207264Y156122D02*
X207264Y205378D01*
X207264Y231105D02*
X207264Y233801D01*
X207264Y243842D02*
X207264Y244858D01*
X207264Y254899D02*
X207264Y257845D01*
X207264Y279044D02*
X207264Y286344D01*
X207264Y329565D02*
X207264Y336636D01*
X207264Y349164D02*
X207264Y362204D01*
X207264Y389636D02*
X207264Y394938D01*
X207264Y422688D02*
X207264Y425323D01*
X213360Y74123D02*
X213360Y34331D01*
X213360Y115869D02*
X213360Y118110D01*
X213360Y156122D02*
X213360Y208053D01*
X213360Y229265D02*
X213360Y230475D01*
X213360Y237201D02*
X213360Y251749D01*
X213360Y258475D02*
X213360Y259685D01*
X213360Y280897D02*
X213360Y295461D01*
X213360Y329565D02*
X213360Y362204D01*
X213360Y389636D02*
X213360Y394843D01*
X213360Y408813D02*
X213360Y408813D01*
X213360Y422783D02*
X213360Y425323D01*
X219456Y71590D02*
X219456Y40427D01*
X219456Y152146D02*
X219456Y208455D01*
X219456Y264571D02*
X219456Y265781D01*
X219456Y275555D02*
X219456Y362204D01*
X219456Y389636D02*
X219456Y425323D01*
X225552Y70358D02*
X225552Y46523D01*
X225552Y154163D02*
X225552Y202359D01*
X225552Y268169D02*
X225552Y362204D01*
X225552Y389636D02*
X225552Y425323D01*
X231648Y70358D02*
X231648Y52619D01*
X231648Y160259D02*
X231648Y198758D01*
X231648Y236433D02*
X231648Y252517D01*
X231648Y263363D02*
X231648Y263378D01*
X231648Y270022D02*
X231648Y317366D01*
X231648Y327406D02*
X231648Y330454D01*
X231648Y340494D02*
X231648Y346107D01*
X231648Y423513D02*
X231648Y425323D01*
X237744Y72642D02*
X237744Y58715D01*
X237744Y117350D02*
X237744Y118110D01*
X237744Y133350D02*
X237744Y133873D01*
X237744Y166355D02*
X237744Y190886D01*
X237744Y191289D02*
X237744Y191289D01*
X237744Y222191D02*
X237744Y223266D01*
X237744Y231546D02*
X237744Y234594D01*
X237744Y289671D02*
X237744Y294529D01*
X237744Y315673D02*
X237744Y327406D01*
X237744Y423513D02*
X237744Y425323D01*
X243840Y76663D02*
X243840Y64811D01*
X243840Y113329D02*
X243840Y118110D01*
X243840Y133350D02*
X243840Y139969D01*
X243840Y174213D02*
X243840Y185860D01*
X243840Y194426D02*
X243840Y194427D01*
X243840Y216095D02*
X243840Y222506D01*
X243840Y231546D02*
X243840Y234594D01*
X243840Y289671D02*
X243840Y294529D01*
X243840Y315673D02*
X243840Y317366D01*
X243840Y423513D02*
X243840Y425323D01*
X249936Y85190D02*
X249936Y70907D01*
X249936Y104802D02*
X249936Y118110D01*
X249936Y133350D02*
X249936Y146065D01*
X249936Y176252D02*
X249936Y189602D01*
X249936Y209999D02*
X249936Y222506D01*
X249936Y231546D02*
X249936Y234594D01*
X249936Y263142D02*
X249936Y269035D01*
X249936Y289163D02*
X249936Y316858D01*
X249936Y423513D02*
X249936Y425323D01*
X256032Y118110D02*
X256032Y77003D01*
X256032Y133350D02*
X256032Y152161D01*
X256032Y170926D02*
X256032Y190754D01*
X256032Y203903D02*
X256032Y222599D01*
X256032Y231546D02*
X256032Y234594D01*
X256032Y289671D02*
X256032Y294529D01*
X256032Y423513D02*
X256032Y425323D01*
X262128Y118110D02*
X262128Y83099D01*
X262128Y135744D02*
X262128Y156495D01*
X262128Y168625D02*
X262128Y190754D01*
X262128Y202946D02*
X262128Y259474D01*
X262128Y289671D02*
X262128Y294529D01*
X262128Y423513D02*
X262128Y425323D01*
X268224Y120288D02*
X268224Y89195D01*
X268224Y141840D02*
X268224Y186778D01*
X268224Y206922D02*
X268224Y237805D01*
X268224Y250895D02*
X268224Y271479D01*
X268224Y286719D02*
X268224Y310896D01*
X268224Y324104D02*
X268224Y346107D01*
X268224Y423513D02*
X268224Y425323D01*
X274320Y126384D02*
X274320Y95291D01*
X274320Y147936D02*
X274320Y186778D01*
X274320Y206922D02*
X274320Y228717D01*
X274320Y259983D02*
X274320Y271479D01*
X274320Y306712D02*
X274320Y307568D01*
X274320Y345212D02*
X274320Y346107D01*
X274320Y423513D02*
X274320Y425323D01*
X280416Y132480D02*
X280416Y101387D01*
X280416Y154032D02*
X280416Y188130D01*
X280416Y205570D02*
X280416Y225133D01*
X280416Y263567D02*
X280416Y274720D01*
X280416Y306712D02*
X280416Y307568D01*
X280416Y345212D02*
X280416Y346107D01*
X280416Y423513D02*
X280416Y425323D01*
X286512Y138576D02*
X286512Y107483D01*
X286512Y160128D02*
X286512Y186778D01*
X286512Y206922D02*
X286512Y223778D01*
X286512Y264922D02*
X286512Y280816D01*
X286512Y306712D02*
X286512Y310322D01*
X286512Y342458D02*
X286512Y346107D01*
X286512Y423513D02*
X286512Y425323D01*
X292608Y144672D02*
X292608Y113579D01*
X292608Y166224D02*
X292608Y186778D01*
X292608Y206922D02*
X292608Y224083D01*
X292608Y264617D02*
X292608Y283260D01*
X292608Y306020D02*
X292608Y308318D01*
X292608Y344462D02*
X292608Y346615D01*
X292608Y355632D02*
X292608Y355632D01*
X292608Y423513D02*
X292608Y425323D01*
X298704Y144959D02*
X298704Y119675D01*
X298704Y172320D02*
X298704Y189418D01*
X298704Y204282D02*
X298704Y226608D01*
X298704Y262092D02*
X298704Y283076D01*
X298704Y306204D02*
X298704Y308318D01*
X298704Y352440D02*
X298704Y358155D01*
X298704Y398765D02*
X298704Y425323D01*
X304800Y142828D02*
X304800Y125771D01*
X304800Y178416D02*
X304800Y190754D01*
X304800Y202946D02*
X304800Y232277D01*
X304800Y256423D02*
X304800Y283076D01*
X304800Y293116D02*
X304800Y296164D01*
X304800Y306204D02*
X304800Y307994D01*
X304800Y351809D02*
X304800Y354584D01*
X304800Y404861D02*
X304800Y425323D01*
X310896Y144959D02*
X310896Y131867D01*
X310896Y159841D02*
X310896Y162960D01*
X310896Y184512D02*
X310896Y190754D01*
X310896Y202946D02*
X310896Y278607D01*
X310896Y290861D02*
X310896Y306070D01*
X310896Y339465D02*
X310896Y343165D01*
X310896Y418835D02*
X310896Y425323D01*
X316992Y169056D02*
X316992Y137963D01*
X316992Y190608D02*
X316992Y190754D01*
X316992Y202946D02*
X316992Y267925D01*
X316992Y301543D02*
X316992Y306070D01*
X316992Y337232D02*
X316992Y342138D01*
X316992Y419862D02*
X316992Y425323D01*
X323088Y175152D02*
X323088Y144059D01*
X323088Y204060D02*
X323088Y263011D01*
X323088Y335914D02*
X323088Y337074D01*
X323088Y341106D02*
X323088Y342149D01*
X323088Y419851D02*
X323088Y425323D01*
X329184Y181248D02*
X329184Y150155D01*
X329184Y202800D02*
X329184Y260486D01*
X329184Y419862D02*
X329184Y425323D01*
X335280Y187344D02*
X335280Y156251D01*
X335280Y208896D02*
X335280Y260096D01*
X335280Y326684D02*
X335280Y328636D01*
X335280Y419862D02*
X335280Y425323D01*
X341376Y193440D02*
X341376Y162347D01*
X341376Y214992D02*
X341376Y260696D01*
X341376Y321310D02*
X341376Y331774D01*
X341376Y419862D02*
X341376Y425323D01*
X347472Y199536D02*
X347472Y168443D01*
X347472Y221088D02*
X347472Y227767D01*
X347472Y235634D02*
X347472Y237586D01*
X347472Y321310D02*
X347472Y333279D01*
X347472Y419862D02*
X347472Y425323D01*
X353568Y205632D02*
X353568Y174539D01*
X353568Y227184D02*
X353568Y235634D01*
X353568Y320675D02*
X353568Y331985D01*
X353568Y419862D02*
X353568Y425323D01*
X359664Y211728D02*
X359664Y180635D01*
X359664Y235634D02*
X359664Y237586D01*
X359664Y270872D02*
X359664Y293770D01*
X359664Y315322D02*
X359664Y332826D01*
X359664Y419862D02*
X359664Y425323D01*
X365760Y217824D02*
X365760Y186731D01*
X365760Y239376D02*
X365760Y288831D01*
X365760Y309226D02*
X365760Y332195D01*
X365760Y419862D02*
X365760Y425323D01*
X371856Y223920D02*
X371856Y192827D01*
X371856Y245472D02*
X371856Y261258D01*
X371856Y419862D02*
X371856Y425323D01*
X377952Y230016D02*
X377952Y198923D01*
X377952Y419862D02*
X377952Y425323D01*
X384048Y236112D02*
X384048Y205019D01*
X384048Y331424D02*
X384048Y338597D01*
X384048Y419862D02*
X384048Y425323D01*
X390144Y256540D02*
X390144Y211115D01*
X390144Y419862D02*
X390144Y425323D01*
X396240Y256540D02*
X396240Y217211D01*
X396240Y419862D02*
X396240Y425323D01*
X402336Y256859D02*
X402336Y223307D01*
X402336Y330070D02*
X402336Y333555D01*
X402336Y379222D02*
X402336Y383286D01*
X402336Y419354D02*
X402336Y425143D01*
X408432Y261766D02*
X408432Y229403D01*
X408432Y330492D02*
X408432Y332714D01*
X408432Y379222D02*
X408432Y383286D01*
X408432Y401002D02*
X408432Y401638D01*
X408432Y419354D02*
X408432Y423573D01*
X414528Y270402D02*
X414528Y235499D01*
X414528Y330492D02*
X414528Y344689D01*
X414528Y376671D02*
X414528Y420386D01*
X420624Y276701D02*
X420624Y242298D01*
X420624Y330492D02*
X420624Y414200D01*
D29*
X247650Y220980D03*
D28*
X247650Y233070D01*
D29*
X140970Y243840D03*
D28*
X136550Y253340D02*
X125730Y253340D01*
X140970Y248920D02*
X140970Y243840D01*
X140970Y248920D02*
X136550Y253340D01*
X55270Y317500D02*
X25400Y317500D01*
D31*
X185420Y109220D03*
D28*
X147320Y315087D02*
X147320Y330200D01*
D29*
X147320Y330200D03*
D28*
X121920Y330200D02*
X121920Y315087D01*
D29*
X121920Y330200D03*
D28*
X191920Y291440D02*
X200050Y291440D01*
X200660Y290830D01*
D29*
X200660Y290830D03*
D28*
X406400Y340360D02*
X406400Y360680D01*
D29*
X406400Y340360D03*
X238760Y266700D03*
X259080Y266700D03*
D28*
X239420Y267360D02*
X239420Y279099D01*
X239420Y267360D02*
X238760Y266700D01*
X258420Y267360D02*
X258420Y279099D01*
X258420Y267360D02*
X259080Y266700D01*
D32*
X281330Y286410D02*
X281330Y294640D01*
X274019Y279099D02*
X258420Y279099D01*
X274019Y279099D02*
X281330Y286410D01*
D29*
X102870Y172720D03*
D32*
X100330Y162560D02*
X89510Y162560D01*
X102870Y165100D02*
X102870Y172720D01*
X102870Y165100D02*
X100330Y162560D01*
X100330Y184150D02*
X89510Y184150D01*
X102870Y181610D02*
X102870Y172720D01*
X102870Y181610D02*
X100330Y184150D01*
D29*
X240030Y344170D03*
D30*
X240140Y344280D02*
X240140Y355632D01*
X240140Y344280D02*
X240030Y344170D01*
D28*
X238760Y260960D02*
X247650Y252070D01*
X238760Y260960D02*
X238760Y266700D01*
D29*
X125730Y219710D03*
D28*
X125730Y234340D01*
D29*
X87630Y327660D03*
D28*
X84430Y327660D02*
X74270Y317500D01*
X84430Y327660D02*
X87630Y327660D01*
D33*
X75692Y354584D03*
D32*
X66430Y363846D02*
X66430Y397510D01*
X66430Y363846D02*
X75692Y354584D01*
D33*
X335026Y284734D03*
D32*
X354330Y265430D01*
X354330Y253610D01*
D33*
X145034Y94996D03*
X227330Y94996D03*
D32*
X184150Y87630D02*
X184150Y75810D01*
X184150Y87630D02*
X176784Y94996D01*
X145034Y94996D01*
X191516Y94996D02*
X227330Y94996D01*
X191516Y94996D02*
X184150Y87630D01*
D30*
X121920Y374650D02*
X121920Y408813D01*
X121920Y374650D02*
X128270Y368300D01*
X233640Y364530D02*
X233640Y355632D01*
X229870Y368300D02*
X128270Y368300D01*
X229870Y368300D02*
X233640Y364530D01*
D28*
X25400Y368300D02*
X25400Y381000D01*
X53340Y408940D01*
X121793Y408940D01*
X121920Y408813D01*
D30*
X160020Y408813D02*
X160020Y383540D01*
X253140Y371700D02*
X253140Y355632D01*
X165100Y378460D02*
X160020Y383540D01*
X165100Y378460D02*
X246380Y378460D01*
X253140Y371700D01*
X172720Y388620D02*
X172720Y408813D01*
X259640Y376630D02*
X259640Y355632D01*
X177800Y383540D02*
X172720Y388620D01*
X177800Y383540D02*
X252730Y383540D01*
X259640Y376630D01*
X134620Y378460D02*
X134620Y408813D01*
X246640Y366770D02*
X246640Y355632D01*
X139700Y373380D02*
X134620Y378460D01*
X139700Y373380D02*
X240030Y373380D01*
X246640Y366770D01*
D28*
X178920Y272440D02*
X173330Y272440D01*
X134620Y300990D02*
X134620Y315087D01*
X148590Y297180D02*
X173330Y272440D01*
X148590Y297180D02*
X138430Y297180D01*
X134620Y300990D01*
X178920Y298300D02*
X178920Y291440D01*
X178920Y298300D02*
X180340Y299720D01*
X210820Y302260D02*
X210820Y315087D01*
X208280Y299720D02*
X180340Y299720D01*
X208280Y299720D02*
X210820Y302260D01*
X207620Y272440D02*
X191920Y272440D01*
X207620Y272440D02*
X210806Y269254D01*
D32*
X223534Y256526D02*
X223534Y232424D01*
D28*
X223534Y226046D02*
X234583Y214998D01*
X223534Y226046D02*
X223534Y232424D01*
D32*
X210806Y219696D02*
X200660Y209550D01*
X195690Y209550D01*
D28*
X190500Y204360D02*
X190500Y189840D01*
X190500Y204360D02*
X195690Y209550D01*
X218570Y219696D02*
X228926Y209341D01*
X218570Y219696D02*
X210806Y219696D01*
D32*
X172720Y209550D02*
X162574Y219696D01*
X172720Y209550D02*
X177690Y209550D01*
D28*
X156196Y219696D02*
X145148Y208648D01*
X156196Y219696D02*
X162574Y219696D01*
X182500Y204740D02*
X182500Y189840D01*
X182500Y204740D02*
X177690Y209550D01*
D32*
X149846Y232424D02*
X149846Y256526D01*
D28*
X149846Y224660D02*
X139491Y214304D01*
X149846Y224660D02*
X149846Y232424D01*
X135230Y271142D02*
X135230Y274320D01*
X135230Y271142D02*
X149846Y256526D01*
D32*
X162574Y269254D02*
X173480Y258348D01*
X173480Y255270D01*
X173480Y244350D01*
D28*
X185420Y267210D02*
X185420Y272440D01*
X185420Y267210D02*
X173480Y255270D01*
X149508Y282320D02*
X135230Y282320D01*
X149508Y282320D02*
X162574Y269254D01*
D31*
X132080Y290830D03*
D28*
X135230Y287680D01*
X135230Y282320D01*
D30*
X252730Y196850D02*
X272170Y196850D01*
X252730Y196850D02*
X248018Y201562D01*
D28*
X190890Y170450D02*
X190500Y170840D01*
X190890Y170450D02*
X190890Y146050D01*
X132080Y172330D02*
X132080Y194845D01*
X131713Y195212D01*
D30*
X116230Y274320D02*
X104530Y274320D01*
X95250Y283600D01*
X91440Y283600D01*
X342900Y339090D02*
X342900Y360680D01*
D31*
X342900Y339090D03*
D30*
X321310Y196850D02*
X289170Y196850D01*
D31*
X321310Y196850D03*
D30*
X226060Y146050D02*
X207890Y146050D01*
X226060Y146050D02*
X248920Y168910D01*
D31*
X248920Y168910D03*
D30*
X355600Y339090D02*
X355600Y360680D01*
D31*
X355600Y339090D03*
D30*
X368300Y339090D02*
X368300Y360680D01*
D31*
X368300Y339090D03*
D30*
X152790Y134620D02*
X132080Y155330D01*
X229870Y134620D02*
X257810Y162560D01*
D31*
X257810Y162560D03*
D30*
X229870Y134620D02*
X152790Y134620D01*
X330200Y339090D02*
X330200Y360680D01*
D31*
X330200Y339090D03*
D30*
X91440Y320040D02*
X91440Y300600D01*
X91440Y320040D02*
X114300Y342900D01*
X203200Y342900D01*
D31*
X203200Y342900D03*
D30*
X368300Y381000D02*
X368300Y401320D01*
D31*
X368300Y381000D03*
D30*
X393700Y381000D02*
X393700Y401320D01*
D31*
X393700Y381000D03*
D30*
X381000Y381000D02*
X381000Y401320D01*
D31*
X381000Y381000D03*
D30*
X355600Y381000D02*
X355600Y401320D01*
D31*
X355600Y381000D03*
D30*
X381000Y360680D02*
X381000Y344170D01*
X376580Y339750D02*
X376580Y321110D01*
X376580Y339750D02*
X381000Y344170D01*
X376580Y321110D02*
X376580Y310490D01*
X378460Y308610D01*
X383540Y308610D01*
X386080Y306070D01*
X386080Y277250D02*
X386470Y276860D01*
X386080Y277250D02*
X386080Y306070D01*
X393700Y340360D02*
X393700Y360680D01*
X395580Y338480D02*
X395580Y321110D01*
X395580Y338480D02*
X393700Y340360D01*
X395770Y320920D02*
X414020Y320920D01*
X395770Y320920D02*
X395580Y321110D01*
D28*
X139700Y135890D02*
X127880Y135890D01*
D31*
X139700Y135890D03*
D28*
X258420Y305101D02*
X258420Y317500D01*
X258420Y327660D01*
X257150Y328930D01*
X277240Y317500D02*
X278130Y318390D01*
X277240Y317500D02*
X258420Y317500D01*
X278130Y318390D02*
X295410Y318390D01*
X295910Y317890D01*
D30*
X240140Y397620D02*
X240140Y413988D01*
X240140Y397620D02*
X240030Y397510D01*
D29*
X240030Y397510D03*
X256540Y342900D03*
D28*
X256540Y329540D01*
D30*
X257150Y328930D01*
D32*
X295910Y317890D02*
X305680Y317890D01*
X368100Y296110D02*
X376580Y296110D01*
X309880Y313690D02*
X305680Y317890D01*
X309880Y313690D02*
X350520Y313690D01*
X368100Y296110D01*
X414020Y303920D02*
X414020Y280670D01*
X410210Y276860D02*
X403470Y276860D01*
X410210Y276860D02*
X414020Y280670D01*
X403470Y276860D02*
X403470Y267580D01*
X376580Y267310D02*
X376580Y296110D01*
X403470Y267580D02*
X400050Y264160D01*
X379730Y264160D01*
X376580Y267310D01*
X149860Y125730D02*
X139700Y135890D01*
X379730Y242570D02*
X379730Y264160D01*
X262890Y125730D02*
X149860Y125730D01*
X262890Y125730D02*
X379730Y242570D01*
D28*
X295410Y334390D02*
X295910Y334890D01*
X295410Y334390D02*
X278130Y334390D01*
D30*
X292140Y392470D02*
X292140Y413988D01*
X292140Y392470D02*
X292100Y392430D01*
D31*
X292100Y392430D03*
X300990Y345440D03*
D30*
X300990Y339970D01*
X295910Y334890D01*
X306850Y334890D02*
X314080Y327660D01*
X306850Y334890D02*
X295910Y334890D01*
X233640Y393740D02*
X233640Y413988D01*
X304800Y360680D02*
X317500Y360680D01*
X304800Y360680D02*
X294640Y370840D01*
X273050Y370840D01*
X238760Y388620D02*
X233640Y393740D01*
X238760Y388620D02*
X255270Y388620D01*
X273050Y370840D01*
X246640Y399790D02*
X246640Y413988D01*
X246640Y399790D02*
X252730Y393700D01*
X309880Y401320D02*
X317500Y401320D01*
X257810Y393700D02*
X252730Y393700D01*
X294640Y386080D02*
X309880Y401320D01*
X294640Y386080D02*
X265430Y386080D01*
X257810Y393700D01*
X253140Y402180D02*
X253140Y413988D01*
X253140Y402180D02*
X256540Y398780D01*
D31*
X256540Y398780D03*
X330200Y381000D03*
D30*
X330200Y401320D01*
X259640Y405784D02*
X259640Y413988D01*
X259640Y405784D02*
X261620Y403804D01*
D31*
X261620Y403804D03*
X342900Y381000D03*
D30*
X342900Y401320D01*
M02*
