G04 EAGLE Gerber RS-274X export*
G75*
%MOMM*%
%FSLAX34Y34*%
%LPD*%
%INSoldermask Bottom*%
%IPPOS*%
%AMOC8*
5,1,8,0,0,1.08239X$1,22.5*%
G01*
%ADD10C,3.403200*%
%ADD11R,1.503200X1.703200*%
%ADD12R,1.703200X1.503200*%
%ADD13R,0.939800X2.997200*%
%ADD14R,1.203200X1.303200*%
%ADD15R,1.303200X1.203200*%
%ADD16C,1.203200*%
%ADD17R,0.736600X2.184400*%
%ADD18R,0.603200X0.703200*%
%ADD19R,1.803200X1.103200*%
%ADD20R,1.003200X1.403200*%
%ADD21C,2.082800*%
%ADD22R,1.353200X0.753200*%
%ADD23R,0.753200X1.353200*%
%ADD24R,0.803200X1.453200*%
%ADD25R,0.508000X1.193800*%
%ADD26R,0.753200X1.403200*%
%ADD27R,0.953200X1.453200*%
%ADD28C,4.216400*%


D10*
X84580Y244350D03*
X287780Y244350D03*
D11*
X281330Y294640D03*
X300330Y294640D03*
D12*
X247650Y252070D03*
X247650Y233070D03*
D11*
X74270Y317500D03*
X55270Y317500D03*
D12*
X125730Y234340D03*
X125730Y253340D03*
D11*
X89510Y184150D03*
X70510Y184150D03*
X89510Y162560D03*
X70510Y162560D03*
D13*
X406400Y360680D03*
X406400Y401320D03*
X393700Y360680D03*
X393700Y401320D03*
X381000Y360680D03*
X381000Y401320D03*
X368300Y360680D03*
X368300Y401320D03*
X355600Y360680D03*
X355600Y401320D03*
X342900Y360680D03*
X342900Y401320D03*
X330200Y360680D03*
X330200Y401320D03*
X317500Y360680D03*
X317500Y401320D03*
D14*
X66430Y397510D03*
X83430Y397510D03*
D15*
X354330Y253610D03*
X354330Y236610D03*
X184150Y75810D03*
X184150Y58810D03*
D16*
X25400Y406400D03*
X304800Y152400D03*
D17*
X121920Y408813D03*
X134620Y408813D03*
X147320Y408813D03*
X160020Y408813D03*
X172720Y408813D03*
X185420Y408813D03*
X198120Y408813D03*
X210820Y408813D03*
X210820Y315087D03*
X198120Y315087D03*
X185420Y315087D03*
X172720Y315087D03*
X160020Y315087D03*
X147320Y315087D03*
X134620Y315087D03*
X121920Y315087D03*
D18*
X178920Y291440D03*
X185420Y291440D03*
X191920Y291440D03*
X191920Y272440D03*
X185420Y272440D03*
X178920Y272440D03*
D19*
X185420Y281940D03*
D20*
G36*
X224948Y265033D02*
X232041Y257940D01*
X222120Y248019D01*
X215027Y255112D01*
X224948Y265033D01*
G37*
G36*
X212220Y277761D02*
X219313Y270668D01*
X209392Y260747D01*
X202299Y267840D01*
X212220Y277761D01*
G37*
D21*
X173480Y244350D03*
X198880Y244350D03*
D20*
G36*
X219313Y218282D02*
X212220Y211189D01*
X202299Y221110D01*
X209392Y228203D01*
X219313Y218282D01*
G37*
G36*
X232041Y231010D02*
X224948Y223917D01*
X215027Y233838D01*
X222120Y240931D01*
X232041Y231010D01*
G37*
X177690Y209550D03*
X195690Y209550D03*
G36*
X148432Y223917D02*
X141339Y231010D01*
X151260Y240931D01*
X158353Y233838D01*
X148432Y223917D01*
G37*
G36*
X161160Y211189D02*
X154067Y218282D01*
X163988Y228203D01*
X171081Y221110D01*
X161160Y211189D01*
G37*
G36*
X154067Y270668D02*
X161160Y277761D01*
X171081Y267840D01*
X163988Y260747D01*
X154067Y270668D01*
G37*
G36*
X141339Y257940D02*
X148432Y265033D01*
X158353Y255112D01*
X151260Y248019D01*
X141339Y257940D01*
G37*
D22*
G36*
X245897Y209009D02*
X255465Y199441D01*
X250139Y194115D01*
X240571Y203683D01*
X245897Y209009D01*
G37*
G36*
X240240Y203353D02*
X249808Y193785D01*
X244482Y188459D01*
X234914Y198027D01*
X240240Y203353D01*
G37*
G36*
X226805Y216788D02*
X236373Y207220D01*
X231047Y201894D01*
X221479Y211462D01*
X226805Y216788D01*
G37*
G36*
X232462Y222445D02*
X242030Y212877D01*
X236704Y207551D01*
X227136Y217119D01*
X232462Y222445D01*
G37*
D23*
X190500Y170840D03*
X182500Y170840D03*
X182500Y189840D03*
X190500Y189840D03*
D22*
G36*
X139160Y197333D02*
X129592Y187765D01*
X124266Y193091D01*
X133834Y202659D01*
X139160Y197333D01*
G37*
G36*
X133503Y202990D02*
X123935Y193422D01*
X118609Y198748D01*
X128177Y208316D01*
X133503Y202990D01*
G37*
G36*
X146938Y216425D02*
X137370Y206857D01*
X132044Y212183D01*
X141612Y221751D01*
X146938Y216425D01*
G37*
G36*
X152595Y210769D02*
X143027Y201201D01*
X137701Y206527D01*
X147269Y216095D01*
X152595Y210769D01*
G37*
X116230Y274320D03*
X116230Y282320D03*
X135230Y282320D03*
X135230Y274320D03*
D14*
X272170Y196850D03*
X289170Y196850D03*
X190890Y146050D03*
X207890Y146050D03*
D15*
X132080Y172330D03*
X132080Y155330D03*
X91440Y283600D03*
X91440Y300600D03*
D21*
X25400Y342900D03*
X25400Y317500D03*
X25400Y368300D03*
D24*
X376580Y321110D03*
X386080Y321110D03*
X395580Y321110D03*
X395580Y296110D03*
X376580Y296110D03*
D14*
X386470Y276860D03*
X403470Y276860D03*
D15*
X414020Y320920D03*
X414020Y303920D03*
D25*
X233640Y413988D03*
X240140Y413988D03*
X246640Y413988D03*
X253140Y413988D03*
X259640Y413988D03*
X266140Y413988D03*
X272640Y413988D03*
X279140Y413988D03*
X279140Y355632D03*
X272640Y355632D03*
X266140Y355632D03*
X259640Y355632D03*
X253140Y355632D03*
X246640Y355632D03*
X240140Y355632D03*
X233640Y355632D03*
X285640Y413988D03*
X292140Y413988D03*
X285640Y355632D03*
X292140Y355632D03*
D15*
X127880Y135890D03*
X110880Y135890D03*
D11*
X257150Y328930D03*
X238150Y328930D03*
D26*
X258420Y279099D03*
X248920Y279099D03*
X239420Y279099D03*
X239420Y305101D03*
X258420Y305101D03*
D15*
X314080Y327660D03*
X331080Y327660D03*
X295910Y317890D03*
X295910Y334890D03*
D27*
X278130Y318390D03*
X278130Y334390D03*
D28*
X75692Y354584D03*
X335026Y284734D03*
X145034Y94996D03*
X227330Y94996D03*
M02*
