G04 EAGLE Gerber RS-274X export*
G75*
%MOMM*%
%FSLAX34Y34*%
%LPD*%
%INSolderpaste Bottom*%
%IPPOS*%
%AMOC8*
5,1,8,0,0,1.08239X$1,22.5*%
G01*
%ADD10C,0.499872*%
%ADD11R,1.300000X1.500000*%
%ADD12R,1.500000X1.300000*%
%ADD13R,0.736600X2.794000*%
%ADD14R,1.000000X1.100000*%
%ADD15R,1.100000X1.000000*%
%ADD16R,0.533400X1.981200*%
%ADD17R,1.300000X0.700000*%
%ADD18R,0.400000X0.500000*%
%ADD19R,0.800000X1.200000*%
%ADD20R,1.150000X0.550000*%
%ADD21R,0.550000X1.150000*%
%ADD22R,0.600000X1.250000*%
%ADD23R,0.304800X0.990600*%
%ADD24R,0.550000X1.200000*%
%ADD25R,0.750000X1.250000*%


D10*
X302301Y152400D02*
X302303Y152499D01*
X302309Y152599D01*
X302319Y152697D01*
X302333Y152796D01*
X302350Y152894D01*
X302372Y152991D01*
X302397Y153087D01*
X302426Y153182D01*
X302459Y153275D01*
X302496Y153368D01*
X302536Y153459D01*
X302580Y153548D01*
X302628Y153635D01*
X302678Y153721D01*
X302733Y153804D01*
X302790Y153885D01*
X302851Y153964D01*
X302914Y154040D01*
X302981Y154114D01*
X303051Y154185D01*
X303123Y154253D01*
X303198Y154318D01*
X303275Y154380D01*
X303355Y154439D01*
X303438Y154495D01*
X303522Y154547D01*
X303608Y154597D01*
X303697Y154642D01*
X303787Y154684D01*
X303878Y154723D01*
X303971Y154758D01*
X304066Y154789D01*
X304161Y154816D01*
X304258Y154839D01*
X304355Y154859D01*
X304453Y154875D01*
X304552Y154887D01*
X304651Y154895D01*
X304750Y154899D01*
X304850Y154899D01*
X304949Y154895D01*
X305048Y154887D01*
X305147Y154875D01*
X305245Y154859D01*
X305342Y154839D01*
X305439Y154816D01*
X305534Y154789D01*
X305629Y154758D01*
X305722Y154723D01*
X305813Y154684D01*
X305903Y154642D01*
X305992Y154597D01*
X306078Y154547D01*
X306162Y154495D01*
X306245Y154439D01*
X306325Y154380D01*
X306402Y154318D01*
X306477Y154253D01*
X306549Y154185D01*
X306619Y154114D01*
X306686Y154040D01*
X306749Y153964D01*
X306810Y153885D01*
X306867Y153804D01*
X306922Y153721D01*
X306972Y153635D01*
X307020Y153548D01*
X307064Y153459D01*
X307104Y153368D01*
X307141Y153275D01*
X307174Y153182D01*
X307203Y153087D01*
X307228Y152991D01*
X307250Y152894D01*
X307267Y152796D01*
X307281Y152697D01*
X307291Y152599D01*
X307297Y152499D01*
X307299Y152400D01*
X307297Y152301D01*
X307291Y152201D01*
X307281Y152103D01*
X307267Y152004D01*
X307250Y151906D01*
X307228Y151809D01*
X307203Y151713D01*
X307174Y151618D01*
X307141Y151525D01*
X307104Y151432D01*
X307064Y151341D01*
X307020Y151252D01*
X306972Y151165D01*
X306922Y151079D01*
X306867Y150996D01*
X306810Y150915D01*
X306749Y150836D01*
X306686Y150760D01*
X306619Y150686D01*
X306549Y150615D01*
X306477Y150547D01*
X306402Y150482D01*
X306325Y150420D01*
X306245Y150361D01*
X306162Y150305D01*
X306078Y150253D01*
X305992Y150203D01*
X305903Y150158D01*
X305813Y150116D01*
X305722Y150077D01*
X305629Y150042D01*
X305534Y150011D01*
X305439Y149984D01*
X305342Y149961D01*
X305245Y149941D01*
X305147Y149925D01*
X305048Y149913D01*
X304949Y149905D01*
X304850Y149901D01*
X304750Y149901D01*
X304651Y149905D01*
X304552Y149913D01*
X304453Y149925D01*
X304355Y149941D01*
X304258Y149961D01*
X304161Y149984D01*
X304066Y150011D01*
X303971Y150042D01*
X303878Y150077D01*
X303787Y150116D01*
X303697Y150158D01*
X303608Y150203D01*
X303522Y150253D01*
X303438Y150305D01*
X303355Y150361D01*
X303275Y150420D01*
X303198Y150482D01*
X303123Y150547D01*
X303051Y150615D01*
X302981Y150686D01*
X302914Y150760D01*
X302851Y150836D01*
X302790Y150915D01*
X302733Y150996D01*
X302678Y151079D01*
X302628Y151165D01*
X302580Y151252D01*
X302536Y151341D01*
X302496Y151432D01*
X302459Y151525D01*
X302426Y151618D01*
X302397Y151713D01*
X302372Y151809D01*
X302350Y151906D01*
X302333Y152004D01*
X302319Y152103D01*
X302309Y152201D01*
X302303Y152301D01*
X302301Y152400D01*
X22901Y406400D02*
X22903Y406499D01*
X22909Y406599D01*
X22919Y406697D01*
X22933Y406796D01*
X22950Y406894D01*
X22972Y406991D01*
X22997Y407087D01*
X23026Y407182D01*
X23059Y407275D01*
X23096Y407368D01*
X23136Y407459D01*
X23180Y407548D01*
X23228Y407635D01*
X23278Y407721D01*
X23333Y407804D01*
X23390Y407885D01*
X23451Y407964D01*
X23514Y408040D01*
X23581Y408114D01*
X23651Y408185D01*
X23723Y408253D01*
X23798Y408318D01*
X23875Y408380D01*
X23955Y408439D01*
X24038Y408495D01*
X24122Y408547D01*
X24208Y408597D01*
X24297Y408642D01*
X24387Y408684D01*
X24478Y408723D01*
X24571Y408758D01*
X24666Y408789D01*
X24761Y408816D01*
X24858Y408839D01*
X24955Y408859D01*
X25053Y408875D01*
X25152Y408887D01*
X25251Y408895D01*
X25350Y408899D01*
X25450Y408899D01*
X25549Y408895D01*
X25648Y408887D01*
X25747Y408875D01*
X25845Y408859D01*
X25942Y408839D01*
X26039Y408816D01*
X26134Y408789D01*
X26229Y408758D01*
X26322Y408723D01*
X26413Y408684D01*
X26503Y408642D01*
X26592Y408597D01*
X26678Y408547D01*
X26762Y408495D01*
X26845Y408439D01*
X26925Y408380D01*
X27002Y408318D01*
X27077Y408253D01*
X27149Y408185D01*
X27219Y408114D01*
X27286Y408040D01*
X27349Y407964D01*
X27410Y407885D01*
X27467Y407804D01*
X27522Y407721D01*
X27572Y407635D01*
X27620Y407548D01*
X27664Y407459D01*
X27704Y407368D01*
X27741Y407275D01*
X27774Y407182D01*
X27803Y407087D01*
X27828Y406991D01*
X27850Y406894D01*
X27867Y406796D01*
X27881Y406697D01*
X27891Y406599D01*
X27897Y406499D01*
X27899Y406400D01*
X27897Y406301D01*
X27891Y406201D01*
X27881Y406103D01*
X27867Y406004D01*
X27850Y405906D01*
X27828Y405809D01*
X27803Y405713D01*
X27774Y405618D01*
X27741Y405525D01*
X27704Y405432D01*
X27664Y405341D01*
X27620Y405252D01*
X27572Y405165D01*
X27522Y405079D01*
X27467Y404996D01*
X27410Y404915D01*
X27349Y404836D01*
X27286Y404760D01*
X27219Y404686D01*
X27149Y404615D01*
X27077Y404547D01*
X27002Y404482D01*
X26925Y404420D01*
X26845Y404361D01*
X26762Y404305D01*
X26678Y404253D01*
X26592Y404203D01*
X26503Y404158D01*
X26413Y404116D01*
X26322Y404077D01*
X26229Y404042D01*
X26134Y404011D01*
X26039Y403984D01*
X25942Y403961D01*
X25845Y403941D01*
X25747Y403925D01*
X25648Y403913D01*
X25549Y403905D01*
X25450Y403901D01*
X25350Y403901D01*
X25251Y403905D01*
X25152Y403913D01*
X25053Y403925D01*
X24955Y403941D01*
X24858Y403961D01*
X24761Y403984D01*
X24666Y404011D01*
X24571Y404042D01*
X24478Y404077D01*
X24387Y404116D01*
X24297Y404158D01*
X24208Y404203D01*
X24122Y404253D01*
X24038Y404305D01*
X23955Y404361D01*
X23875Y404420D01*
X23798Y404482D01*
X23723Y404547D01*
X23651Y404615D01*
X23581Y404686D01*
X23514Y404760D01*
X23451Y404836D01*
X23390Y404915D01*
X23333Y404996D01*
X23278Y405079D01*
X23228Y405165D01*
X23180Y405252D01*
X23136Y405341D01*
X23096Y405432D01*
X23059Y405525D01*
X23026Y405618D01*
X22997Y405713D01*
X22972Y405809D01*
X22950Y405906D01*
X22933Y406004D01*
X22919Y406103D01*
X22909Y406201D01*
X22903Y406301D01*
X22901Y406400D01*
D11*
X281330Y294640D03*
X300330Y294640D03*
D12*
X247650Y252070D03*
X247650Y233070D03*
D11*
X74270Y317500D03*
X55270Y317500D03*
D12*
X125730Y234340D03*
X125730Y253340D03*
D11*
X89510Y184150D03*
X70510Y184150D03*
X89510Y162560D03*
X70510Y162560D03*
D13*
X406400Y360680D03*
X406400Y401320D03*
X393700Y360680D03*
X393700Y401320D03*
X381000Y360680D03*
X381000Y401320D03*
X368300Y360680D03*
X368300Y401320D03*
X355600Y360680D03*
X355600Y401320D03*
X342900Y360680D03*
X342900Y401320D03*
X330200Y360680D03*
X330200Y401320D03*
X317500Y360680D03*
X317500Y401320D03*
D14*
X66430Y397510D03*
X83430Y397510D03*
D15*
X354330Y253610D03*
X354330Y236610D03*
X184150Y75810D03*
X184150Y58810D03*
D16*
X121920Y408813D03*
X134620Y408813D03*
X147320Y408813D03*
X160020Y408813D03*
X172720Y408813D03*
X185420Y408813D03*
X198120Y408813D03*
X210820Y408813D03*
X210820Y315087D03*
X198120Y315087D03*
X185420Y315087D03*
X172720Y315087D03*
X160020Y315087D03*
X147320Y315087D03*
X134620Y315087D03*
X121920Y315087D03*
D17*
X185420Y281940D03*
D18*
X178920Y291440D03*
X185420Y291440D03*
X191920Y291440D03*
X191920Y272440D03*
X185420Y272440D03*
X178920Y272440D03*
D19*
G36*
X224948Y263597D02*
X230605Y257940D01*
X222120Y249455D01*
X216463Y255112D01*
X224948Y263597D01*
G37*
G36*
X212220Y276325D02*
X217877Y270668D01*
X209392Y262183D01*
X203735Y267840D01*
X212220Y276325D01*
G37*
G36*
X217877Y218282D02*
X212220Y212625D01*
X203735Y221110D01*
X209392Y226767D01*
X217877Y218282D01*
G37*
G36*
X230605Y231010D02*
X224948Y225353D01*
X216463Y233838D01*
X222120Y239495D01*
X230605Y231010D01*
G37*
X177690Y209550D03*
X195690Y209550D03*
G36*
X148432Y225353D02*
X142775Y231010D01*
X151260Y239495D01*
X156917Y233838D01*
X148432Y225353D01*
G37*
G36*
X161160Y212625D02*
X155503Y218282D01*
X163988Y226767D01*
X169645Y221110D01*
X161160Y212625D01*
G37*
G36*
X155503Y270668D02*
X161160Y276325D01*
X169645Y267840D01*
X163988Y262183D01*
X155503Y270668D01*
G37*
G36*
X142775Y257940D02*
X148432Y263597D01*
X156917Y255112D01*
X151260Y249455D01*
X142775Y257940D01*
G37*
D20*
G36*
X245897Y207572D02*
X254028Y199441D01*
X250139Y195552D01*
X242008Y203683D01*
X245897Y207572D01*
G37*
G36*
X240240Y201916D02*
X248371Y193785D01*
X244482Y189896D01*
X236351Y198027D01*
X240240Y201916D01*
G37*
G36*
X226805Y215351D02*
X234936Y207220D01*
X231047Y203331D01*
X222916Y211462D01*
X226805Y215351D01*
G37*
G36*
X232462Y221008D02*
X240593Y212877D01*
X236704Y208988D01*
X228573Y217119D01*
X232462Y221008D01*
G37*
D21*
X190500Y170840D03*
X182500Y170840D03*
X182500Y189840D03*
X190500Y189840D03*
D20*
G36*
X137723Y197333D02*
X129592Y189202D01*
X125703Y193091D01*
X133834Y201222D01*
X137723Y197333D01*
G37*
G36*
X132066Y202990D02*
X123935Y194859D01*
X120046Y198748D01*
X128177Y206879D01*
X132066Y202990D01*
G37*
G36*
X145501Y216425D02*
X137370Y208294D01*
X133481Y212183D01*
X141612Y220314D01*
X145501Y216425D01*
G37*
G36*
X151158Y210769D02*
X143027Y202638D01*
X139138Y206527D01*
X147269Y214658D01*
X151158Y210769D01*
G37*
X116230Y274320D03*
X116230Y282320D03*
X135230Y282320D03*
X135230Y274320D03*
D14*
X272170Y196850D03*
X289170Y196850D03*
X190890Y146050D03*
X207890Y146050D03*
D15*
X132080Y172330D03*
X132080Y155330D03*
X91440Y283600D03*
X91440Y300600D03*
D22*
X376580Y321110D03*
X386080Y321110D03*
X395580Y321110D03*
X395580Y296110D03*
X376580Y296110D03*
D14*
X386470Y276860D03*
X403470Y276860D03*
D15*
X414020Y320920D03*
X414020Y303920D03*
D23*
X233640Y413988D03*
X240140Y413988D03*
X246640Y413988D03*
X253140Y413988D03*
X259640Y413988D03*
X266140Y413988D03*
X272640Y413988D03*
X279140Y413988D03*
X279140Y355632D03*
X272640Y355632D03*
X266140Y355632D03*
X259640Y355632D03*
X253140Y355632D03*
X246640Y355632D03*
X240140Y355632D03*
X233640Y355632D03*
X285640Y413988D03*
X292140Y413988D03*
X285640Y355632D03*
X292140Y355632D03*
D15*
X127880Y135890D03*
X110880Y135890D03*
D11*
X257150Y328930D03*
X238150Y328930D03*
D24*
X258420Y279099D03*
X248920Y279099D03*
X239420Y279099D03*
X239420Y305101D03*
X258420Y305101D03*
D15*
X314080Y327660D03*
X331080Y327660D03*
X295910Y317890D03*
X295910Y334890D03*
D25*
X278130Y318390D03*
X278130Y334390D03*
M02*
