M48
;GenerationSoftware,Autodesk,EAGLE,9.6.0*%
;CreationDate,2020-07-24T10:09:24Z*%
FMAT,2
ICI,OFF
METRIC,TZ,000.000
T6C0.300
T5C0.400
T4C0.813
T3C1.016
T2C2.200
T1C3.200
%
G90
M71
T1
X28778Y24435
X8458Y24435
T2
X22733Y9500
X14503Y9500
X7569Y35458
X33503Y28473
T3
X2540Y36830
X2540Y34290
X2540Y31750
T4
X17348Y24435
X19888Y24435
T5
X40640Y38100
X38354Y33528
X24892Y26670
X33782Y23622
X18415Y4699
X9525Y39751
X24892Y29210
X29210Y34544
X22352Y33020
X31115Y30607
X5588Y17272
X24765Y22098
X14097Y24384
X14732Y33020
X12192Y33020
X20066Y29083
X40640Y34036
X23876Y26670
X25908Y26670
X10287Y17272
X24003Y34417
X12573Y21971
X8763Y32766
X24003Y39751
X25654Y34290
X18542Y33020
X20066Y28194
X21082Y39370
T6
X34290Y33909
X32131Y19685
X24892Y16891
X35560Y33909
X36830Y33909
X25781Y16256
X33020Y33909
X20320Y34290
X36830Y38100
X39370Y38100
X38100Y38100
X34290Y32766
X13970Y13589
X18542Y10922
X10541Y28321
X29210Y39243
X30099Y34544
X25654Y39878
X33020Y38100
X35560Y38100
X34290Y38100
X11811Y19304
X18288Y16002
X25019Y18796
X9906Y13589
X14478Y15240
X13208Y29083
X26162Y40380
M30